<?xml version="1.0" encoding="utf-8"?>
<!-- Generator: Adobe Illustrator 26.0.1, SVG Export Plug-In . SVG Version: 6.00 Build 0)  -->
<svg version="1.1" id="BACKGROUND" xmlns="http://www.w3.org/2000/svg" xmlns:xlink="http://www.w3.org/1999/xlink" x="0px" y="0px"
	 viewBox="0 0 750 500" style="enable-background:new 0 0 750 500;" xml:space="preserve">
<style type="text/css">
	.st0{fill:#FFFFFF;}
	.st1{clip-path:url(#SVGID_00000007410265537449010950000001809276281869414275_);}
	.st2{fill:none;stroke:#00D7D7;stroke-width:10;stroke-miterlimit:10;}
	.st3{fill:none;stroke:#000000;stroke-width:3;stroke-linecap:round;stroke-linejoin:round;}
	.st4{fill:none;stroke:#000000;stroke-width:3;stroke-linecap:round;stroke-linejoin:round;stroke-dasharray:0,7.9833;}
	.st5{fill:#00D7D7;}
	.st6{fill:none;stroke:#00D7D7;stroke-width:5;stroke-miterlimit:10;}
	.st7{fill:none;stroke:#000000;stroke-miterlimit:10;}
	.st8{fill:none;stroke:#000000;stroke-width:3;stroke-linecap:round;stroke-linejoin:round;stroke-dasharray:0,7.8939;}
	.st9{clip-path:url(#SVGID_00000140718777914361737780000013489042402869158018_);}
	.st10{fill:none;stroke:#000000;stroke-width:0.5;stroke-miterlimit:10;}
</style>
<g>
	<g>
		<rect class="st0" width="750" height="500"/>
	</g>
	<g>
		<defs>
			<rect id="SVGID_1_" width="750" height="500"/>
		</defs>
		<clipPath id="SVGID_00000059990863192287424390000017405576644500255124_">
			<use xlink:href="#SVGID_1_"  style="overflow:visible;"/>
		</clipPath>
		<g style="clip-path:url(#SVGID_00000059990863192287424390000017405576644500255124_);">
			<circle class="st2" cx="375" cy="385.13" r="34.75"/>
			<g>
				<g>
					<g>
						<line class="st3" x1="205.69" y1="375.9" x2="205.69" y2="375.9"/>
						<line class="st4" x1="213.67" y1="375.9" x2="385.31" y2="375.9"/>
						<line class="st3" x1="389.3" y1="375.9" x2="389.3" y2="375.9"/>
					</g>
				</g>
				<g>
					<g>
						<line class="st3" x1="205.69" y1="382.25" x2="205.69" y2="382.25"/>
						<line class="st4" x1="213.67" y1="382.25" x2="385.31" y2="382.25"/>
						<line class="st3" x1="389.3" y1="382.25" x2="389.3" y2="382.25"/>
					</g>
				</g>
				<g>
					<g>
						<line class="st3" x1="205.69" y1="388.59" x2="205.69" y2="388.59"/>
						<line class="st4" x1="213.67" y1="388.59" x2="385.31" y2="388.59"/>
						<line class="st3" x1="389.3" y1="388.59" x2="389.3" y2="388.59"/>
					</g>
				</g>
				<g>
					<g>
						<line class="st3" x1="205.69" y1="394.93" x2="205.69" y2="394.93"/>
						<line class="st4" x1="213.67" y1="394.93" x2="385.31" y2="394.93"/>
						<line class="st3" x1="389.3" y1="394.93" x2="389.3" y2="394.93"/>
					</g>
				</g>
				<g>
					<g>
						<line class="st3" x1="205.69" y1="401.28" x2="205.69" y2="401.28"/>
						<line class="st4" x1="213.67" y1="401.28" x2="385.31" y2="401.28"/>
						<line class="st3" x1="389.3" y1="401.28" x2="389.3" y2="401.28"/>
					</g>
				</g>
				<g>
					<g>
						<line class="st3" x1="205.69" y1="407.62" x2="205.69" y2="407.62"/>
						<line class="st4" x1="213.67" y1="407.62" x2="385.31" y2="407.62"/>
						<line class="st3" x1="389.3" y1="407.62" x2="389.3" y2="407.62"/>
					</g>
				</g>
				<g>
					<g>
						<line class="st3" x1="205.69" y1="413.97" x2="205.69" y2="413.97"/>
						<line class="st4" x1="213.67" y1="413.97" x2="385.31" y2="413.97"/>
						<line class="st3" x1="389.3" y1="413.97" x2="389.3" y2="413.97"/>
					</g>
				</g>
				<g>
					<g>
						<line class="st3" x1="205.69" y1="420.31" x2="205.69" y2="420.31"/>
						<line class="st4" x1="213.67" y1="420.31" x2="385.31" y2="420.31"/>
						<line class="st3" x1="389.3" y1="420.31" x2="389.3" y2="420.31"/>
					</g>
				</g>
				<g>
					<g>
						<line class="st3" x1="205.69" y1="426.65" x2="205.69" y2="426.65"/>
						<line class="st4" x1="213.67" y1="426.65" x2="385.31" y2="426.65"/>
						<line class="st3" x1="389.3" y1="426.65" x2="389.3" y2="426.65"/>
					</g>
				</g>
				<g>
					<g>
						<line class="st3" x1="205.69" y1="433" x2="205.69" y2="433"/>
						<line class="st4" x1="213.67" y1="433" x2="385.31" y2="433"/>
						<line class="st3" x1="389.3" y1="433" x2="389.3" y2="433"/>
					</g>
				</g>
				<g>
					<g>
						<line class="st3" x1="205.69" y1="439.34" x2="205.69" y2="439.34"/>
						<line class="st4" x1="213.67" y1="439.34" x2="385.31" y2="439.34"/>
						<line class="st3" x1="389.3" y1="439.34" x2="389.3" y2="439.34"/>
					</g>
				</g>
				<g>
					<g>
						<line class="st3" x1="205.69" y1="445.68" x2="205.69" y2="445.68"/>
						<line class="st4" x1="213.67" y1="445.68" x2="385.31" y2="445.68"/>
						<line class="st3" x1="389.3" y1="445.68" x2="389.3" y2="445.68"/>
					</g>
				</g>
				<g>
					<g>
						<line class="st3" x1="205.69" y1="452.03" x2="205.69" y2="452.03"/>
						<line class="st4" x1="213.67" y1="452.03" x2="385.31" y2="452.03"/>
						<line class="st3" x1="389.3" y1="452.03" x2="389.3" y2="452.03"/>
					</g>
				</g>
				<g>
					<g>
						<line class="st3" x1="205.69" y1="458.37" x2="205.69" y2="458.37"/>
						<line class="st4" x1="213.67" y1="458.37" x2="385.31" y2="458.37"/>
						<line class="st3" x1="389.3" y1="458.37" x2="389.3" y2="458.37"/>
					</g>
				</g>
			</g>
			<circle class="st5" cx="56.77" cy="472.23" r="41.43"/>
			<circle class="st2" cx="73.38" cy="206.64" r="25"/>
			<circle class="st5" cx="564.33" cy="319.96" r="62.52"/>
			
				<ellipse transform="matrix(0.7071 -0.7071 0.7071 0.7071 -73.6282 184.4519)" class="st5" cx="185.84" cy="181.1" rx="71.93" ry="71.93"/>
			<circle class="st6" cx="274.54" cy="220.88" r="12"/>
			
				<ellipse transform="matrix(0.9368 -0.3498 0.3498 0.9368 -101.003 133.8859)" class="st5" cx="320.2" cy="346.6" rx="18.3" ry="18.3"/>
			<circle class="st6" cx="485.76" cy="356.57" r="9.4"/>
			<rect x="515.67" y="53.67" class="st5" width="97.33" height="8"/>
			<rect x="-17.95" y="364.72" class="st5" width="145.17" height="8"/>
			<rect x="-49.83" y="379.08" class="st5" width="145.17" height="8"/>
			<rect x="-79.83" y="342.6" class="st5" width="145.17" height="8"/>
			<rect x="459.03" y="17.87" class="st5" width="145.17" height="8"/>
			<rect x="427.14" y="32.22" class="st5" width="145.17" height="8"/>
			<g>
				<line class="st7" x1="554.67" y1="106.33" x2="679" y2="-18"/>
				<line class="st7" x1="598" y1="135.54" x2="722.33" y2="11.21"/>
				<line class="st7" x1="621.83" y1="72.83" x2="688.67" y2="6"/>
				<line class="st7" x1="554.67" y1="145.75" x2="594.08" y2="106.33"/>
				<line class="st7" x1="692.17" y1="77.38" x2="731.58" y2="37.96"/>
				<line class="st7" x1="558.58" y1="73.38" x2="598" y2="33.96"/>
			</g>
			<g>
				<line class="st7" x1="-11.53" y1="555.21" x2="112.8" y2="430.88"/>
				<line class="st7" x1="10.37" y1="498.78" x2="97.47" y2="411.68"/>
				<line class="st7" x1="117.92" y1="490.43" x2="168.3" y2="440.05"/>
				<line class="st7" x1="57.23" y1="415.68" x2="94.47" y2="378.45"/>
				<line class="st7" x1="84.86" y1="485.23" x2="161.57" y2="408.52"/>
				<line class="st7" x1="-19.47" y1="507.59" x2="57.23" y2="430.88"/>
				<line class="st7" x1="123.22" y1="420.88" x2="170.84" y2="373.25"/>
			</g>
			<g>
				<line class="st7" x1="56.76" y1="253.5" x2="56.76" y2="261.5"/>
				<line class="st7" x1="60.76" y1="257.5" x2="52.76" y2="257.5"/>
			</g>
			<g>
				<line class="st7" x1="185.84" y1="474.61" x2="185.84" y2="482.61"/>
				<line class="st7" x1="189.84" y1="478.61" x2="181.84" y2="478.61"/>
			</g>
			<g>
				<line class="st7" x1="176.33" y1="342.6" x2="176.33" y2="350.6"/>
				<line class="st7" x1="180.33" y1="346.6" x2="172.33" y2="346.6"/>
			</g>
			<g>
				<line class="st7" x1="36" y1="303.47" x2="36" y2="311.47"/>
				<line class="st7" x1="40" y1="307.47" x2="32" y2="307.47"/>
			</g>
			<g>
				<line class="st7" x1="22.75" y1="319.96" x2="22.75" y2="327.96"/>
				<line class="st7" x1="26.75" y1="323.96" x2="18.75" y2="323.96"/>
			</g>
			<g>
				<line class="st7" x1="113.91" y1="375" x2="113.91" y2="383"/>
				<line class="st7" x1="117.91" y1="379" x2="109.91" y2="379"/>
			</g>
			<g>
				<line class="st7" x1="220.24" y1="356.57" x2="220.24" y2="364.57"/>
				<line class="st7" x1="224.24" y1="360.57" x2="216.24" y2="360.57"/>
			</g>
			<g>
				<line class="st7" x1="181.84" y1="395.43" x2="181.84" y2="403.43"/>
				<line class="st7" x1="185.84" y1="399.43" x2="177.84" y2="399.43"/>
			</g>
			<g>
				<line class="st7" x1="250.04" y1="464.23" x2="250.04" y2="472.23"/>
				<line class="st7" x1="254.04" y1="468.23" x2="246.04" y2="468.23"/>
			</g>
			<g>
				<line class="st7" x1="498" y1="231.44" x2="498" y2="239.44"/>
				<line class="st7" x1="502" y1="235.44" x2="494" y2="235.44"/>
			</g>
			<g>
				<line class="st7" x1="330.9" y1="149.23" x2="330.9" y2="157.23"/>
				<line class="st7" x1="334.9" y1="153.23" x2="326.9" y2="153.23"/>
			</g>
			<g>
				<line class="st7" x1="301.49" y1="160.4" x2="301.49" y2="168.4"/>
				<line class="st7" x1="305.49" y1="164.4" x2="297.49" y2="164.4"/>
			</g>
			<g>
				<line class="st7" x1="450.67" y1="389.13" x2="450.67" y2="397.13"/>
				<line class="st7" x1="454.67" y1="393.13" x2="446.67" y2="393.13"/>
			</g>
			<g>
				<line class="st7" x1="123.22" y1="391.43" x2="123.22" y2="399.43"/>
				<line class="st7" x1="127.22" y1="395.43" x2="119.22" y2="395.43"/>
			</g>
			<g>
				<line class="st7" x1="15.34" y1="411.68" x2="15.34" y2="419.68"/>
				<line class="st7" x1="19.34" y1="415.68" x2="11.34" y2="415.68"/>
			</g>
			<g>
				<line class="st7" x1="84.4" y1="200.64" x2="84.4" y2="208.64"/>
				<line class="st7" x1="88.4" y1="204.64" x2="80.4" y2="204.64"/>
			</g>
			<g>
				<line class="st7" x1="97" y1="204.87" x2="97" y2="212.87"/>
				<line class="st7" x1="101" y1="208.87" x2="93" y2="208.87"/>
			</g>
			<g>
				<line class="st7" x1="485.76" y1="247.87" x2="485.76" y2="255.87"/>
				<line class="st7" x1="489.76" y1="251.87" x2="481.76" y2="251.87"/>
			</g>
			<g>
				<line class="st7" x1="338.25" y1="159.1" x2="338.25" y2="167.1"/>
				<line class="st7" x1="342.25" y1="163.1" x2="334.25" y2="163.1"/>
			</g>
			<g>
				<line class="st7" x1="316.2" y1="201.85" x2="316.2" y2="209.85"/>
				<line class="st7" x1="320.2" y1="205.85" x2="312.2" y2="205.85"/>
			</g>
			<g>
				<line class="st7" x1="513.06" y1="254.44" x2="513.06" y2="262.44"/>
				<line class="st7" x1="517.06" y1="258.44" x2="509.06" y2="258.44"/>
			</g>
			<g>
				<line class="st7" x1="437.33" y1="381.13" x2="437.33" y2="389.13"/>
				<line class="st7" x1="441.33" y1="385.13" x2="433.33" y2="385.13"/>
			</g>
			<g>
				<line class="st7" x1="613" y1="247.87" x2="613" y2="255.87"/>
				<line class="st7" x1="617" y1="251.87" x2="609" y2="251.87"/>
			</g>
			<g>
				<line class="st7" x1="566.35" y1="42.33" x2="566.35" y2="50.33"/>
				<line class="st7" x1="570.35" y1="46.33" x2="562.35" y2="46.33"/>
			</g>
			<g>
				<line class="st7" x1="524.39" y1="20.1" x2="524.39" y2="28.1"/>
				<line class="st7" x1="528.39" y1="24.1" x2="520.39" y2="24.1"/>
			</g>
			<g>
				<line class="st7" x1="531.61" y1="13.87" x2="531.61" y2="21.87"/>
				<line class="st7" x1="535.61" y1="17.87" x2="527.61" y2="17.87"/>
			</g>
			<g>
				<line class="st7" x1="531.61" y1="60.01" x2="531.61" y2="68.01"/>
				<line class="st7" x1="535.61" y1="64.01" x2="527.61" y2="64.01"/>
			</g>
			<g>
				<line class="st7" x1="679" y1="81.3" x2="679" y2="89.3"/>
				<line class="st7" x1="683" y1="85.3" x2="675" y2="85.3"/>
			</g>
			<g>
				<line class="st7" x1="722.33" y1="78.22" x2="722.33" y2="86.22"/>
				<line class="st7" x1="726.33" y1="82.22" x2="718.33" y2="82.22"/>
			</g>
			<g>
				<line class="st7" x1="494" y1="39.86" x2="494" y2="47.86"/>
				<line class="st7" x1="498" y1="43.86" x2="490" y2="43.86"/>
			</g>
			<g>
				<line class="st7" x1="543" y1="85.3" x2="543" y2="93.3"/>
				<line class="st7" x1="547" y1="89.3" x2="539" y2="89.3"/>
			</g>
			<g>
				<line class="st7" x1="711.88" y1="100.28" x2="711.88" y2="108.28"/>
				<line class="st7" x1="715.88" y1="104.28" x2="707.88" y2="104.28"/>
			</g>
			<g>
				<line class="st7" x1="566.35" y1="275.16" x2="566.35" y2="283.16"/>
				<line class="st7" x1="570.35" y1="279.16" x2="562.35" y2="279.16"/>
			</g>
			<g>
				<line class="st7" x1="113.71" y1="470.61" x2="113.71" y2="478.61"/>
				<line class="st7" x1="117.71" y1="474.61" x2="109.71" y2="474.61"/>
			</g>
			<circle class="st5" cx="324.52" cy="46.72" r="35.5"/>
			<g>
				<g>
					<g>
						<line class="st3" x1="306.39" y1="62.12" x2="306.39" y2="62.12"/>
						<line class="st8" x1="314.29" y1="62.12" x2="476.11" y2="62.12"/>
						<line class="st3" x1="480.06" y1="62.12" x2="480.06" y2="62.12"/>
					</g>
				</g>
				<g>
					<g>
						<line class="st3" x1="306.39" y1="68.12" x2="306.39" y2="68.12"/>
						<line class="st8" x1="314.29" y1="68.12" x2="476.11" y2="68.12"/>
						<line class="st3" x1="480.06" y1="68.12" x2="480.06" y2="68.12"/>
					</g>
				</g>
				<g>
					<g>
						<line class="st3" x1="306.39" y1="74.12" x2="306.39" y2="74.12"/>
						<line class="st8" x1="314.29" y1="74.12" x2="476.11" y2="74.12"/>
						<line class="st3" x1="480.06" y1="74.12" x2="480.06" y2="74.12"/>
					</g>
				</g>
				<g>
					<g>
						<line class="st3" x1="306.39" y1="80.12" x2="306.39" y2="80.12"/>
						<line class="st8" x1="314.29" y1="80.12" x2="476.11" y2="80.12"/>
						<line class="st3" x1="480.06" y1="80.12" x2="480.06" y2="80.12"/>
					</g>
				</g>
				<g>
					<g>
						<line class="st3" x1="306.39" y1="86.12" x2="306.39" y2="86.12"/>
						<line class="st8" x1="314.29" y1="86.12" x2="476.11" y2="86.12"/>
						<line class="st3" x1="480.06" y1="86.12" x2="480.06" y2="86.12"/>
					</g>
				</g>
				<g>
					<g>
						<line class="st3" x1="306.39" y1="92.12" x2="306.39" y2="92.12"/>
						<line class="st8" x1="314.29" y1="92.12" x2="476.11" y2="92.12"/>
						<line class="st3" x1="480.06" y1="92.12" x2="480.06" y2="92.12"/>
					</g>
				</g>
				<g>
					<g>
						<line class="st3" x1="306.39" y1="98.12" x2="306.39" y2="98.12"/>
						<line class="st8" x1="314.29" y1="98.12" x2="476.11" y2="98.12"/>
						<line class="st3" x1="480.06" y1="98.12" x2="480.06" y2="98.12"/>
					</g>
				</g>
				<g>
					<g>
						<line class="st3" x1="306.39" y1="104.12" x2="306.39" y2="104.12"/>
						<line class="st8" x1="314.29" y1="104.12" x2="476.11" y2="104.12"/>
						<line class="st3" x1="480.06" y1="104.12" x2="480.06" y2="104.12"/>
					</g>
				</g>
				<g>
					<g>
						<line class="st3" x1="306.39" y1="110.12" x2="306.39" y2="110.12"/>
						<line class="st8" x1="314.29" y1="110.12" x2="476.11" y2="110.12"/>
						<line class="st3" x1="480.06" y1="110.12" x2="480.06" y2="110.12"/>
					</g>
				</g>
				<g>
					<g>
						<line class="st3" x1="306.39" y1="116.12" x2="306.39" y2="116.12"/>
						<line class="st8" x1="314.29" y1="116.12" x2="476.11" y2="116.12"/>
						<line class="st3" x1="480.06" y1="116.12" x2="480.06" y2="116.12"/>
					</g>
				</g>
				<g>
					<g>
						<line class="st3" x1="306.39" y1="122.12" x2="306.39" y2="122.12"/>
						<line class="st8" x1="314.29" y1="122.12" x2="476.11" y2="122.12"/>
						<line class="st3" x1="480.06" y1="122.12" x2="480.06" y2="122.12"/>
					</g>
				</g>
				<g>
					<g>
						<line class="st3" x1="306.39" y1="128.12" x2="306.39" y2="128.12"/>
						<line class="st8" x1="314.29" y1="128.12" x2="476.11" y2="128.12"/>
						<line class="st3" x1="480.06" y1="128.12" x2="480.06" y2="128.12"/>
					</g>
				</g>
				<g>
					<g>
						<line class="st3" x1="306.39" y1="134.12" x2="306.39" y2="134.12"/>
						<line class="st8" x1="314.29" y1="134.12" x2="476.11" y2="134.12"/>
						<line class="st3" x1="480.06" y1="134.12" x2="480.06" y2="134.12"/>
					</g>
				</g>
				<g>
					<g>
						<line class="st3" x1="306.39" y1="140.12" x2="306.39" y2="140.12"/>
						<line class="st8" x1="314.29" y1="140.12" x2="476.11" y2="140.12"/>
						<line class="st3" x1="480.06" y1="140.12" x2="480.06" y2="140.12"/>
					</g>
				</g>
			</g>
		</g>
	</g>
	<g>
		<defs>
			<rect id="SVGID_00000089549325530845921210000004104085935407910277_" width="750" height="500"/>
		</defs>
		<clipPath id="SVGID_00000017514065338701506380000012198700863370665857_">
			<use xlink:href="#SVGID_00000089549325530845921210000004104085935407910277_"  style="overflow:visible;"/>
		</clipPath>
		<g style="clip-path:url(#SVGID_00000017514065338701506380000012198700863370665857_);">
			<g>
				<g>
					<path class="st10" d="M250.04,514.38c16.55-3.54,33.92-6.96,49.22-13.88c26.33-11.91,19.2-50.97,36.4-69.93
						c16.09-17.74,36.32-26.66,61.28-26.36c26.62,0.32,52.26,7.97,78.24,12.65c27.31,4.93,36.44-19.43,44.11-40.67
						c7.41-20.52,13.85-39.79,35.62-48.65c21.47-8.73,42.9-16.74,60.91-29.92c23.61-17.27,29.74-33.68,23.39-63.24
						c-4.71-21.9,1.03-43.69,16.96-59.82c16.25-16.45,38.04-24.24,59.83-27.48c31.02-4.61,63.93,10.54,96.28,6.73
						c14.19-1.67,28.61-10.14,34.38-23.63"/>
					<path class="st10" d="M252.51,516.51c16.71-3.77,34.16-7.31,49.78-13.88c1.69-0.71,3.32-1.6,4.84-2.52
						c21.92-13.3,17.92-46.91,33.36-64.85c15.62-18.15,34.9-27.55,59.66-27.54c26.45,0.02,51.46,7.47,77.19,12.45
						c24.05,4.66,33.95-12.05,41.81-31.52c0.92-2.29,1.79-4.79,2.68-7.33c6.33-18.05,11.46-37.29,29.22-47.23
						c1.86-1.04,3.87-2.03,6.05-2.93c20.63-8.55,40.5-16.48,59.01-28.9c8.89-5.97,18.59-13.47,24.13-21.72
						c8.37-12.45,7.83-25.53,4.61-41.22c-1.22-5.95-2.51-12.98-2.72-19.95c-0.44-14.15,6.73-29.37,15.93-39.68
						c5.5-6.16,12.1-11.43,19.5-15.65c11.79-6.72,25.26-10.89,38.54-12.68c14.5-1.96,29.55,0.72,44.06,2.67
						c17.52,2.36,35.77,5.04,53.48,2.89c14.35-1.75,28.13-10.24,34.56-23.42"/>
					<path class="st10" d="M254.99,518.66c16.85-4.02,34.28-7.71,50.28-13.94c1.74-0.68,3.41-1.52,4.99-2.38
						c22.28-12.2,20.36-44.6,35.18-62.25c15.17-18.06,33.15-28.58,57.93-28.84c26.38-0.28,50.57,6.9,76.09,12.18
						c23.87,4.93,34.05-9.98,42.21-29.57c0.94-2.26,1.84-4.75,2.73-7.3c6.28-17.84,11.38-38.97,29.05-48.92
						c1.8-1.01,3.75-1.99,5.85-2.87c19.85-8.25,38.93-16.07,56.82-27.87c9.12-6.01,18.83-13.34,25.36-21.4
						c10.01-12.37,12.03-24.7,8.96-41.27c-1.1-5.96-2.46-13.01-3.15-19.88c-1.44-14.29,3.74-28.55,12.44-39.6
						c4.91-6.23,11.08-11.65,18.18-16.01c11.46-7.03,24.77-11.22,37.93-13.19c14.77-2.22,30.08,0.41,44.89,2.13
						c17.92,2.09,36.3,4.63,54.31,2.32c14.52-1.86,27.65-10.37,34.71-23.22"/>
					<path class="st10" d="M257.48,520.81c16.96-4.31,34.41-8.16,50.72-14.06c1.78-0.64,3.49-1.44,5.13-2.26
						c22.68-11.31,22.74-41.83,37.15-59.5c14.71-18.05,31.36-29.52,55.99-30.35c26.27-0.88,49.82,6.4,75.09,11.86
						c22.6,4.88,34.69-7.29,42.62-27.43c0.89-2.27,1.88-4.69,2.78-7.23c6.15-17.28,11.25-41.11,28.9-50.66
						c1.86-1.01,3.62-1.95,5.64-2.8c19.01-7.98,37.23-15.53,54.41-26.82c9.32-6.13,18.81-13.43,26.09-21.04
						c11.16-11.67,16.37-23.9,13.75-41.26c-0.9-5.94-2.25-12.98-3.24-19.81c-2.05-14.11,0.71-27.92,8.77-39.67
						c4.34-6.33,9.95-11.9,16.73-16.41c11.09-7.38,24.32-11.61,37.34-13.7c15.12-2.43,30.85,0.08,46.05,1.67
						c18.18,1.9,36.85,4.21,55.07,1.74c14.56-1.97,27.26-10.51,34.83-23.02"/>
					<path class="st10" d="M259.98,522.97c17.04-4.63,34.5-8.63,51.1-14.24c1.82-0.62,3.57-1.37,5.26-2.14
						c22.99-10.42,25.13-38.68,39.24-56.62c14.26-18.14,29.45-30.62,53.88-32.02c26.18-1.5,49.35,5.83,74.2,11.51
						c23.27,5.32,34.07-5.55,43.02-25.16c0.98-2.16,1.93-4.61,2.83-7.12c6.32-17.51,11.28-41.59,28.45-52.21
						c1.79-1.11,3.71-2.09,5.75-2.95c18.19-7.62,35.49-14.92,51.9-25.77c9.26-6.12,18.65-13.27,26.34-20.65
						c11.66-11.17,20.44-23.46,18.73-41.13c-0.57-5.91-1.79-12.93-2.93-19.7c-2.25-13.34-2.07-27.92,5.14-39.9
						c3.84-6.38,8.73-12.17,15.14-16.83c10.68-7.76,23.9-12.06,36.77-14.2c15.53-2.59,31.75-0.2,47.41,1.24
						c18.41,1.7,37.34,3.79,55.72,1.14c14.61-2.1,26.83-10.69,34.92-22.83"/>
					<path class="st10" d="M262.47,525.12c17.1-4.99,34.65-9.28,51.43-14.48c1.85-0.57,3.65-1.32,5.38-2.03
						c22.41-9.26,28.8-35.98,41.29-53.78c12.78-18.22,27.7-31.69,51.75-33.72c26.01-2.2,48.8,5.45,73.46,11.13
						c22.93,5.28,33.98-3.14,43.41-22.8c1-2.09,1.97-4.5,2.89-6.98c6.54-17.7,11.42-41.9,28.12-53.37c1.74-1.19,3.61-2.27,5.58-3.19
						c17.07-7.91,33.85-14.45,49.55-25.01c9.07-6.09,18.26-13.09,26.12-20.23c11.59-10.52,23.99-23.51,23.68-40.91
						c-0.11-5.86-1.04-12.81-2.19-19.51c-2.24-13.13-3.81-27.83,1.83-40.29c2.96-6.55,7.41-12.47,13.42-17.27
						c10.24-8.19,23.46-12.47,36.3-14.69c16.01-2.76,32.69-0.5,48.73,0.81c18.57,1.51,37.73,3.35,56.2,0.51
						c14.63-2.25,26.39-10.9,34.97-22.64"/>
					<path class="st10" d="M264.96,527.27c17.12-5.37,34.68-9.76,51.71-14.77c1.88-0.55,3.72-1.26,5.49-1.94
						c22.68-8.62,31.02-32.7,43.17-51.11c12.1-18.34,26.04-32.68,49.7-35.34c25.77-2.9,48.45,5.15,72.9,10.75
						c22.45,5.14,33.88-0.92,43.77-20.4c1.02-2.02,2.02-4.37,2.94-6.8c6.77-17.82,11.67-42.02,27.97-54.13
						c1.7-1.26,3.54-2.42,5.49-3.39c16.05-8.06,32.3-14.43,47.15-24.62c8.74-5.99,17.51-12.89,25.42-19.76
						c11.91-10.33,26.59-23.44,28.33-40.62c0.59-5.84,0.01-12.58-0.99-19.2c-1.99-13.18-4.41-27.51-0.55-40.5
						c2.03-6.83,5.69-13.07,11.27-18.04c10.08-8.98,23.19-12.63,35.87-15.16c15.8-3.15,33.5-0.35,49.86,0.34
						c18.64,0.78,38.11,2.82,56.49-0.17c14.59-2.37,25.94-11.13,34.99-22.47"/>
					<path class="st10" d="M267.43,529.41c17.11-5.78,34.69-10.26,51.93-15.11c1.91-0.54,3.78-1.21,5.59-1.85
						c23.12-8.14,32.84-29.43,44.85-48.65c11.52-18.43,24.49-33.6,47.77-36.83c25.49-3.54,48.3,4.93,72.54,10.39
						c19.91,4.49,34.86,1.67,44.09-18.02c0.94-2.01,2.07-4.22,3-6.58c7.04-17.83,12.08-41.96,28.05-54.47
						c1.69-1.32,3.52-2.53,5.45-3.55c15.16-8.02,30.84-14.63,44.82-24.58c8.33-5.93,16.74-12.68,24.51-19.28
						c12.7-10.79,27.65-23.54,32.19-40.28c1.51-5.56,1.37-12.27,0.67-18.73c-1.42-13.22-4.3-27.18-1.8-40.37
						c1.33-7.03,3.77-14.09,8.86-19.22c9.48-9.57,22.75-13.06,35.33-15.66c16.05-3.32,34.07-0.61,50.71-0.19
						c18.65,0.47,38.24,2.32,56.53-0.9c14.54-2.56,25.5-11.39,35-22.29"/>
					<path class="st10" d="M269.89,531.53c17.08-6.21,34.66-10.79,52.1-15.51c1.94-0.53,3.83-1.17,5.68-1.78
						c23.59-7.75,34.33-26.35,46.28-46.44c10.99-18.5,23.09-34.44,46.01-38.15c25.17-4.07,48.36,4.77,72.38,10.04
						c18.95,4.15,34.88,3.29,44.35-15.72c0.96-1.92,2.1-4.04,3.05-6.33c7.45-17.83,12.66-41.65,28.38-54.39
						c1.69-1.37,3.53-2.63,5.47-3.68c14.58-7.94,29.51-14.94,42.69-24.86c7.82-5.88,15.93-12.37,23.45-18.82
						c13.11-11.25,27.29-23.4,34.64-39.57c2.72-5.98,3.29-12.14,3.06-18.39c-0.49-13.13-3.5-26.73-1.93-39.84
						c0.86-7.16,2.69-14.84,6.85-20.52c7.74-10.59,22.13-13.8,34.24-16.47c16.12-3.55,34.4-0.92,51.18-0.8
						c18.58,0.14,38.19,1.77,56.31-1.68c14.46-2.75,25.07-11.65,34.98-22.12"/>
					<path class="st10" d="M272.34,533.64c17.03-6.66,34.6-11.34,52.22-15.96c1.97-0.52,3.88-1.13,5.76-1.71
						c24.03-7.42,35.54-23.53,47.43-44.51c10.52-18.54,21.84-35.2,44.44-39.27c24.84-4.48,48.71,5.25,72.42,9.7
						c17.88,3.35,34.63,5.04,44.54-13.56c0.97-1.82,2.16-3.86,3.2-6.07c8.32-17.66,13.2-40.92,28.91-53.84
						c1.71-1.4,3.57-2.7,5.54-3.78c14.36-7.89,28.01-14.81,40.96-25.42c7.44-6.09,15.03-12.13,22.22-18.4
						c13.12-11.45,26.85-23.45,35.82-38.73c3.42-5.83,5.36-12.01,5.75-17.98c0.83-12.81-2-26.09-0.94-38.88
						c0.6-7.22,1.94-15.18,5.52-21.54c6.72-11.96,20.39-14.94,32.51-17.93c15.88-3.92,34.44-1.3,51.2-1.5
						c18.4-0.22,37.94,1.17,55.8-2.51c14.37-2.97,24.67-11.93,34.97-21.95"/>
					<path class="st10" d="M274.78,535.74c16.95-7.14,34.52-11.92,52.29-16.46c1.99-0.51,3.92-1.1,5.83-1.66
						c24.38-7.18,36.49-21.05,48.31-42.86c10.06-18.56,20.74-35.84,43.1-40.15c24.55-4.74,49.07,5.1,72.65,9.35
						c17,3.06,34.49,5.55,44.7-11.65c1.02-1.72,2.32-3.61,3.41-5.69c9.09-17.26,13.97-40.04,29.62-52.88
						c1.74-1.43,3.64-2.74,5.66-3.84c14.45-7.86,28.03-14.89,39.82-26.23c5.05-4.86,13.06-11.06,20.72-18.01
						c12.84-11.65,26.02-23.54,35.98-37.92c3.92-5.66,7.08-11.81,8.25-17.42c2.53-12.15,0.24-25.19,1.17-37.46
						c0.55-7.2,1.37-16.25,4.76-22.35c6.65-11.97,16.34-15.91,30.46-19.91c15.67-4.44,34.04-2.55,50.71-2.3
						c18.23,0.28,37.26,0.64,54.97-3.42c14.33-3.29,24.31-12.22,34.96-21.78"/>
					<path class="st10" d="M277.2,537.82c16.84-7.64,34.43-12.53,52.31-17.02c2-0.5,3.96-1.08,5.89-1.62
						c24.59-6.93,37.22-19.04,48.91-41.49c9.66-18.55,19.83-36.39,42.01-40.78c24.35-4.82,49.51,4.96,73.04,8.98
						c16.42,2.8,34.07,5.69,44.86-9.94c1.08-1.57,2.46-3.29,3.61-5.22c9.99-16.69,14.9-38.93,30.58-51.57
						c1.79-1.44,3.75-2.77,5.82-3.87c14.7-7.8,28.61-14.23,39.63-26.81c4.61-5.27,11.52-11.18,18.7-18.07
						c12.31-11.79,24.83-23.66,35.3-37.22c4.23-5.48,8.02-11.56,10.15-16.74c4.55-11.06,3.24-23.92,4.4-35.58
						c0.71-7.1,1.41-16.31,4.57-22.95c5.85-12.29,14.94-17.43,28.36-22.23c14.7-5.26,33.38-3.27,49.59-3.31
						c17.87-0.04,36.5-0.1,53.81-4.39c14.25-3.53,24-12.5,34.97-21.6"/>
					<path class="st10" d="M279.62,539.9c16.69-8.17,34.34-13.18,52.27-17.64c2.01-0.5,3.98-1.06,5.93-1.59
						c24.58-6.69,37.81-17.66,49.25-40.39c9.29-18.44,19.13-36.85,41.2-41.12c24.27-4.69,49.93,4.78,73.56,8.54
						c16.12,2.57,33.43,6,44.98-8.43c1.12-1.4,2.59-2.95,3.8-4.71c11.02-15.92,16.02-37.59,31.79-49.91
						c1.85-1.44,3.87-2.77,6.02-3.87c15.13-7.73,29.37-13.29,40.24-27c4.47-5.63,9.71-11.82,16.37-18.68
						c11.6-11.96,23.34-23.88,33.96-36.71c4.38-5.29,8.17-10.87,11.18-15.84c6.16-10.2,6.85-22.03,8.61-33.39
						c1.07-6.94,1.89-16.24,4.96-23.34c5.34-12.36,13.86-18.6,26.63-24.44c13.63-6.24,32.17-4.57,47.55-4.86
						c17.33-0.33,36.29-0.45,52.29-5.43c13.83-4.31,23.06-13.04,35.05-21.41"/>
					<path class="st10" d="M282.03,541.97c16.51-8.71,34.2-13.85,52.18-18.3c2.01-0.5,4-1.05,5.97-1.57
						c24.28-6.44,38.21-16.8,49.35-39.53c9-18.36,18.69-37.25,40.69-41.15c24.34-4.32,50.23,4.53,74.14,8.02
						c16.1,2.35,32.73,5.69,45.33-7.21c1.18-1.21,2.42-2.54,3.7-4.13c12.12-14.91,17.42-35.99,33.26-47.9
						c1.91-1.43,4.02-2.75,6.25-3.83c15.64-7.6,30.4-12.2,41.32-26.93c4.42-5.97,8.03-12.73,14.08-19.62
						c10.68-12.16,21.57-24.17,32.11-36.47c4.41-5.14,8.39-10.61,11.75-15c7-9.13,10.1-19.58,13.01-30.76
						c1.77-6.79,2.84-15.97,5.95-23.5c5.11-12.38,13.24-19.98,25.2-26.68c12.47-6.98,30.02-6.12,44.86-6.75
						c16.84-0.72,34.12-1.8,50.46-6.46c14.5-4.14,23.14-13.51,35.15-21.22"/>
					<path class="st10" d="M284.43,544.03c16.3-9.28,34.02-14.55,52.03-19.03c2.02-0.5,4.02-1.05,5.99-1.57
						c24.06-6.28,38.27-16.6,49.26-38.87c8.9-18.05,19.09-38.27,40.5-40.87c24.2-2.94,50.06,3.98,74.74,7.34
						c15.99,2.18,32.28,5.06,45.77-6.28c1.23-1.04,2.55-2.19,3.75-3.54c12.62-14.25,18.82-34.24,34.67-45.52
						c1.99-1.41,4.2-2.73,6.51-3.78c15.57-7,32.53-11.52,42.62-26.73c4.13-6.22,8.25-13.64,12.62-20.57
						c8.06-12.8,19.24-24.84,29.43-36.65c4.33-5.02,8.43-10.11,11.99-14.26c7.42-8.65,12.8-17.29,17.16-27.79
						c2.65-6.38,4.58-14.63,7.55-23.44c4.17-12.33,13.58-22.2,24.11-28.91c11.95-7.61,27.93-7.59,41.93-8.83
						c16.13-1.43,32.55-2.76,48.05-7.47c14.21-4.32,23.03-13.82,35.24-21.03"/>
					<path class="st10" d="M286.84,546.1c16.04-9.87,33.8-15.28,51.82-19.82c2.02-0.51,4.03-1.06,6.01-1.57
						c23.78-6.12,38.1-16.88,49.01-38.37c8.96-17.64,18.91-38.02,40.72-40.22c24.62-2.48,50.35,3.5,75.21,6.46
						c15.98,1.9,32.05,4.21,46.24-5.6c1.28-0.88,2.66-1.85,3.86-3.03c13.16-12.91,20.35-32.25,36.12-42.78
						c2.08-1.39,4.38-2.68,6.79-3.69c15.65-6.55,34.53-10.77,43.91-26.5c3.83-6.42,7.91-13.89,11.88-21.27
						c7.16-13.32,16.47-25.6,26.38-37.34c4.17-4.94,8.27-9.74,11.96-13.67c7.57-8.07,14.9-15.56,20.66-24.68
						c3.66-5.8,6.36-14.14,9.79-23.3c4.64-12.42,13.34-22.99,23.38-30.92c10.59-8.37,25.72-9.19,38.89-10.95
						c15.13-2.03,30.6-3.86,45.1-8.47c13.99-4.44,22.98-14.12,35.34-20.84"/>
					<path class="st10" d="M289.26,548.18c15.74-10.49,33.52-16.05,51.55-20.67c2.01-0.52,4.04-1.09,6.01-1.58
						c23.22-5.84,37.72-17.47,48.62-38.06c9.26-17.48,19.03-37.3,41.39-39.18c25.07-2.11,50.53,2.85,75.49,5.36
						c16,1.61,31.96,3.21,46.7-5.16c1.32-0.75,2.75-1.57,3.98-2.58c13.99-11.48,21.85-29.94,37.69-39.76
						c2.17-1.35,4.58-2.61,7.09-3.58c16.02-6.2,36.05-9.87,45-26.34c3.59-6.61,7.64-14.11,11.34-21.82
						c6.56-13.69,14.23-26.44,23.76-38.3c3.96-4.93,8-9.6,11.75-13.26c7.53-7.34,16.26-14.24,23.13-21.66
						c4.8-5.19,8.64-13.69,12.67-23.07c5.34-12.42,13.6-23.47,23.09-32.61c9.12-8.79,23.7-10.96,35.83-13.03
						c13.97-2.38,28.48-4.94,41.98-9.49c13.61-4.59,22.78-14.4,35.15-20.58"/>
					<path class="st10" d="M291.69,550.27c15.38-11.13,33.2-16.86,51.22-21.58c2.01-0.53,4.05-1.12,6.01-1.6
						c22.56-5.58,37.12-18.24,48.23-37.86c9.95-17.58,19.47-36.01,42.34-37.83c25.29-2.01,50.59,2.06,75.59,4.07
						c16.03,1.29,31.97,2.16,47.09-4.92c1.36-0.64,2.8-1.33,4.09-2.19c14.98-9.99,23.46-27.44,39.38-36.55
						c2.27-1.3,4.78-2.51,7.39-3.44c18.91-6.73,35.21-8.75,45.76-26.29c3.9-6.48,7.35-14.44,10.93-22.27
						c6.27-13.71,12.8-27.21,21.86-39.32c3.73-4.99,7.65-9.61,11.44-13.06c7.51-6.85,16.43-12.78,24.22-19.03
						c7.1-5.7,12.05-14.6,16.24-22.6c6.32-12.05,14.26-23.55,23.29-33.93c7.98-9.18,21.33-12.39,32.8-15
						c12.95-2.95,26.34-6.02,38.85-10.51c13.08-4.69,22.36-14.62,34.59-20.23"/>
					<path class="st10" d="M294.14,552.39c15-11.78,32.82-17.7,50.83-22.55c2-0.54,4.04-1.14,6-1.63
						c22.05-5.56,36.33-18.91,47.9-37.71c11.06-17.96,20.58-34.01,43.53-36.21c25.01-2.4,50.51,1.11,75.48,2.58
						c16.02,0.95,32.01,1.1,47.38-4.87c1.39-0.54,2.86-1.13,4.2-1.86c15.63-8.55,25.25-24.88,41.17-33.23
						c2.37-1.24,4.98-2.4,7.69-3.28c19.83-6.44,35.67-7.7,46.09-26.41c3.74-6.71,7.03-14.78,10.58-22.64
						c6.16-13.64,12.43-27.81,20.87-40.2c3.5-5.13,7.3-9.79,11.11-13.12c7.35-6.44,16.05-11.73,24.17-17.22
						c8.15-5.5,14.9-13.32,20.01-21.63c7.33-11.92,15.64-23.57,24.05-34.84c7.03-9.42,19.05-13.61,29.9-16.81
						c11.94-3.53,23.99-7.25,35.76-11.51c12.64-4.58,21.71-14.75,33.7-19.8"/>
					<path class="st10" d="M296.59,554.5c14.76-12.29,32.31-18.54,50.41-23.56c1.99-0.55,4.02-1.15,5.98-1.67
						c21.69-5.78,35.49-19.51,47.69-37.56c12.05-17.83,22.43-31.73,44.91-34.37c24.67-2.9,50.28,0,75.15,0.9
						c16,0.58,32.02,0.1,47.55-4.98c1.42-0.47,2.92-0.97,4.3-1.59c16.09-7.27,27.07-22.26,43.03-29.88c2.47-1.18,5.18-2.28,7.98-3.1
						c20.71-6.1,35.79-6.85,45.95-26.72c3.56-6.95,6.67-15.14,10.23-22.97c6.26-13.76,13.23-27.93,20.9-40.77
						c3.2-5.35,6.98-10.15,10.81-13.46c7.23-6.24,16-10.84,24.12-16.08c8.88-5.74,16.3-12.58,22.61-20.42
						c8.7-10.8,17.38-23.44,25.43-35.34c6.67-9.85,16.76-14.2,27.19-18.43c10.57-4.29,21.98-8.13,32.72-12.46
						c11.93-4.8,21.04-14.03,32.55-19.31"/>
					<path class="st10" d="M299.04,556.61c14.68-12.69,31.68-19.35,49.95-24.61c1.98-0.57,4.01-1.13,5.98-1.71
						c21.33-6.31,35.15-20.09,47.61-37.37c12.08-16.76,25.36-29.4,46.43-32.33c24.43-3.39,49.8-1.21,74.58-0.99
						c15.98,0.14,31.97-0.83,47.58-5.24c1.45-0.41,2.98-0.85,4.39-1.38c16.46-6.22,28.85-19.64,44.92-26.56
						c2.57-1.11,5.38-2.13,8.26-2.9c21.55-5.72,35.56-6.22,45.34-27.23c3.35-7.2,6.33-15.32,9.86-23.27
						c6.31-14.18,14.92-27.53,21.94-40.84c3-5.69,6.75-10.73,10.62-14.1c7.27-6.33,16.46-10.68,24.69-15.73
						c8.6-5.27,16.56-12.04,23.28-19.02c9.88-10.26,19.6-22.67,27.49-35.41c5.75-9.28,15.08-15.43,24.75-19.82
						c9.8-4.44,19.84-9.09,29.77-13.33c11.3-4.82,19.94-14.13,31.18-18.77"/>
					<path class="st10" d="M301.49,558.72c14.61-13.05,31.03-20.16,49.48-25.67c1.97-0.59,4.02-1.17,5.95-1.82
						c20.74-6.98,34.55-20.5,47.74-37.04c12.71-15.93,27.99-26.68,48.04-30.1c23.96-4.08,49.24-2.68,73.76-3.1
						c15.88-0.27,31.84-1.69,47.45-5.61c1.48-0.37,3.02-0.76,4.46-1.22c16.71-5.38,30.51-17.1,46.78-23.38
						c2.67-1.03,5.56-1.97,8.52-2.68c22.36-5.31,35.03-5.83,44.3-27.92c3.12-7.43,5.89-15.62,9.43-23.55
						c6.43-14.37,16.58-27.02,23.92-40.24c3.29-5.93,6.64-11.54,10.59-15.07c7.36-6.58,16.93-10.94,25.34-16.04
						c8.12-4.93,15.94-11.18,22.87-17.81c11.03-10.55,22.02-21.7,29.85-34.88c5.33-8.98,13.71-15.89,22.66-20.97
						c8.69-4.93,17.72-9.98,26.94-14.13c10.68-4.81,18.78-14.13,29.64-18.2"/>
					<path class="st10" d="M303.94,560.83c14.47-13.44,30.44-20.95,49.04-26.72c1.98-0.62,3.94-1.3,5.83-2.02
						c20.17-7.61,34.12-20.81,48.12-36.53c13.43-15.08,30.33-23.79,49.71-27.69c23.6-4.76,48.49-4.36,72.69-5.43
						c15.74-0.7,31.64-2.49,47.17-6.1c1.49-0.35,3.05-0.7,4.52-1.11c16.82-4.76,32.43-14.6,48.52-20.39
						c2.69-0.97,5.73-1.8,8.74-2.43c22.96-4.84,34.32-5.89,42.92-28.76c2.88-7.66,5.42-15.91,8.95-23.82
						c6.45-14.45,16.54-26.63,25.98-39.1c4.55-6.01,7.4-12.33,11.46-16.11c7.45-6.94,17.19-11.47,25.78-16.96
						c7.81-4.99,15.4-10.83,22.41-16.98c11.62-10.19,23.82-20.56,31.75-33.76c5.19-8.64,12.69-16.16,20.99-21.89
						c7.7-5.31,15.7-10.74,24.27-14.84c10.02-4.8,17.59-14.02,28.02-17.6"/>
					<path class="st10" d="M306.39,562.95c14.03-13.57,30.31-22,48.56-27.85c1.93-0.62,3.86-1.44,5.71-2.22
						c19.6-8.19,33.89-21,48.75-35.81c14.03-13.99,32.54-21.41,51.53-25.4c23.39-4.92,47.49-5.98,71.23-7.72
						c15.57-1.14,31.35-3.2,46.73-6.67c1.5-0.34,3.07-0.67,4.55-1.06c17.08-4.42,33.36-12.58,50.04-17.68
						c2.81-0.86,5.87-1.61,8.92-2.18c23.37-4.32,33.52-6.38,41.33-29.69c2.63-7.86,4.93-16.17,8.41-24.07
						c6.43-14.61,17.25-26.29,27.82-37.91c5.13-5.64,9.07-12.75,13.28-16.6c7.51-6.87,17.16-12.28,25.9-18.44
						c5.76-4.06,13.2-9.36,21.83-16.42c11.99-9.81,24.65-19.51,33.45-32.33c5.81-8.46,11.85-16.04,19.82-22.6
						c7.47-6.14,13.88-11.45,21.79-15.47c8.74-4.45,16.61-14.66,26.47-17.02"/>
					<path class="st10" d="M308.84,565.06c13.82-13.94,30.04-22.62,48.06-29.05c1.89-0.67,3.79-1.57,5.6-2.41
						c19.06-8.74,33.97-21.12,49.64-34.86c14.56-12.76,34.44-19.44,52.99-23.38c22.98-4.88,46.59-7.39,69.84-9.82
						c15.36-1.61,30.99-3.83,46.16-7.32c1.5-0.34,3.07-0.67,4.56-1.04c17.17-4.27,33.98-11.02,50.93-15.35
						c2.93-0.75,6.1-1.39,9.23-1.88c23.75-3.73,32.79-7.13,39.84-30.63c2.41-8.03,4.47-16.39,7.84-24.28
						c6.33-14.83,17.81-26.1,29.46-36.76c5.73-5.25,11.31-12.02,15.74-16.3c7.5-7.26,17.22-13.72,25.68-20.49
						c5.33-4.26,12.51-9.53,21.12-16.15c12.19-9.37,25.82-18.28,35.04-30.69c5.99-8.06,11.95-16.1,19.23-23.12
						c6.81-6.56,12.24-12.02,19.55-16.04c8.06-4.43,15.6-14.47,25.03-16.46"/>
					<path class="st10" d="M311.29,567.17c13.62-14.33,29.66-23.13,47.53-30.3c1.85-0.74,3.72-1.7,5.51-2.59
						c18.58-9.24,34.42-21.19,50.79-33.65c15.02-11.43,35.76-17.69,54.05-21.65c22.57-4.89,45.8-8.59,68.57-11.72
						c15.12-2.08,30.57-4.38,45.48-8.04c1.49-0.36,3.06-0.7,4.55-1.08c17.19-4.31,34.4-9.75,51.58-13.47
						c2.95-0.64,6.11-1.18,9.23-1.59c23.63-3.1,32.29-8.34,38.59-31.46c2.22-8.15,4.07-16.54,7.28-24.43
						c6.12-15.08,18.11-26.06,30.71-35.75c6.31-4.86,12.94-9.96,18.5-15.03c8.43-7.68,17.15-15.53,25.36-23.13
						c4.9-4.53,11.72-9.89,20.29-16.16c12.38-9.06,26.81-17.46,36.53-28.93c6.32-7.46,12.5-16.01,19.28-23.5
						c6.29-6.94,10.85-12.54,17.59-16.56c7.43-4.44,14.64-14.27,23.69-15.93"/>
					<path class="st10" d="M313.74,569.28c13.43-14.73,29.23-23.54,46.98-31.6c1.83-0.83,3.66-1.82,5.42-2.76
						c18.16-9.72,35.2-21.26,52.19-32.17c15.65-10.05,36.23-16.12,54.64-20.23c22.24-4.96,45.06-9.55,67.43-13.38
						c14.88-2.55,30.11-4.86,44.7-8.8c1.47-0.4,3.03-0.76,4.52-1.15c17.13-4.55,34.67-8.86,51.99-12.04
						c2.96-0.54,6.08-0.99,9.18-1.34c23.07-2.6,31.2-10.62,37.38-32.11c2.29-7.98,3.81-16.57,6.79-24.47
						c5.79-15.36,18.04-26.2,31.41-34.97c6.83-4.48,14.6-9.01,20.49-13.45c9.6-7.24,17.58-16.49,25.91-25.54
						c4.49-4.88,10.83-10.44,19.31-16.47c12.37-8.78,27.47-16.59,37.55-27.03c6.73-6.97,12.59-17.02,20.35-23.86
						c3.64-8.28,9.43-13.11,15.95-17.07c10.1-6.15,17.46-16.11,22.46-15.42"/>
					<path class="st10" d="M316.2,571.39c13.13-15.01,28.95-24.15,46.43-32.94c1.81-0.91,3.61-1.94,5.34-2.93
						c17.8-10.16,36.34-21.19,53.82-30.41c16.27-8.58,36.09-14.82,54.73-19.14c22.01-5.1,44.33-10.2,66.46-14.8
						c14.65-3.05,29.66-5.25,43.88-9.61c1.45-0.44,2.99-0.84,4.46-1.27c16.99-4.98,34.79-8.33,52.17-11.04
						c2.95-0.46,6.05-0.79,9.1-1.12c22.11-2.44,29.79-12.35,36.31-32.51c2.51-7.75,3.78-16.48,6.49-24.4
						c5.33-15.6,17.46-26.52,31.42-34.51c7.25-4.15,15.27-8.55,22.22-11.95c11.95-5.84,19.04-17.03,26.76-27.25
						c4.01-5.3,9.83-11.2,18.17-17.09c12.28-8.66,27.38-15.92,38.36-25.45c7.88-6.85,14.27-16.22,22.12-23.85
						c3.62-8.59,8.66-13.61,14.68-17.6c9.23-6.12,16.28-15.68,21.33-14.94"/>
					<path class="st10" d="M318.65,573.5c12.77-15.2,28.75-24.93,45.88-34.31c1.78-0.98,3.56-2.05,5.27-3.08
						c17.5-10.57,37.64-20.37,55.67-28.35c16.73-7.41,35.77-13.89,54.32-18.39c21.82-5.29,44.01-10.49,65.64-15.95
						c14.23-3.59,29.26-5.58,43.06-10.45c1.42-0.5,2.93-0.94,4.38-1.43c16.75-5.58,34.75-8.15,52.1-10.47
						c2.93-0.39,6.08-0.59,8.99-0.94c19.38-2.33,29.26-13.37,35.67-32.41c2.57-7.65,3.96-16.4,6.33-24.33
						c4.73-15.76,16.22-27.04,30.61-34.44c7.54-3.88,16.62-7.32,23.62-10.6c13.23-6.2,20.44-15.24,27.95-28.15
						c3.35-5.77,8.71-12.17,16.84-18.02c12.12-8.73,26.36-15.71,38.97-24.27c9.67-6.56,16.14-15.44,24.42-23.46
						c3.88-8.93,8.26-14.17,13.84-18.21c8.45-6.11,15.22-15.29,20.32-14.48"/>
					<path class="st10" d="M321.1,575.62c12.37-15.33,28.61-25.9,45.34-35.71c1.76-1.03,3.52-2.15,5.22-3.22
						c17.3-10.92,38.91-18.79,57.69-25.99c17.19-6.59,35.21-13.34,53.41-17.98c21.62-5.52,43.47-10.9,64.95-16.83
						c14.04-3.87,28.98-5.81,42.32-11.3c1.38-0.57,2.86-1.07,4.28-1.62c16.4-6.35,34.54-8.32,51.79-10.32
						c2.91-0.34,6.11-0.42,8.87-0.8c17.74-2.46,28.27-14.13,35.52-31.75c2.98-7.23,5.81-15.15,7.15-23.52
						c2.52-15.73,13.87-28.6,28.22-35.51c7.66-3.69,17.03-6.57,24.26-9.77c13.17-5.82,24.45-14.29,29.87-27.88
						c2.47-6.19,7.43-13.04,15.27-19.27c11.84-9.41,26.71-15.65,39.27-23.51c10.06-6.3,18.69-13.94,27.14-22.72
						c4.44-9.34,8.28-14.84,13.48-18.94c7.77-6.12,14.31-14.93,19.43-14.06"/>
					<path class="st10" d="M323.55,577.73c12-15.46,28.44-26.92,44.81-37.11c1.74-1.08,3.49-2.24,5.17-3.35
						c17.1-11.25,40.3-16.75,59.62-23.42c17.38-6,34.49-13.03,52.26-17.84c21.41-5.8,42.99-11.73,64.26-17.67
						c13.78-3.85,29.02-5.71,41.82-11.89c1.33-0.64,2.78-1.22,4.16-1.85c15.93-7.27,34.15-8.82,51.23-10.58
						c2.88-0.3,6.24-0.2,8.69-0.72c17.42-3.65,26.99-14.4,35.97-30.46c3.55-6.35,6.64-14.08,8.15-22.44
						c2.9-16.04,9.55-29.73,25.22-37.15c7.59-3.6,16.96-6.32,24.37-9.24c13.5-5.33,26.88-11.75,32.32-26.69
						c2.59-7.11,6.03-14.32,13.42-20.84c11.26-9.95,26.11-16.08,39.14-23.21c10.62-5.81,22.27-12.08,30.11-21.65
						c7.06-8.61,8.78-15.67,13.65-19.85c7.19-6.16,13.53-14.6,18.65-13.66"/>
					<path class="st10" d="M326,579.84c11.62-15.66,28.23-27.92,44.3-38.52c1.72-1.14,3.46-2.33,5.14-3.47
						c16.98-11.54,42.2-14.6,61.4-20.73c16.9-5.4,33.65-12.86,50.94-17.87c21.16-6.12,42.61-12.7,63.52-18.56
						c13.51-3.79,29.37-5.13,41.66-12.11c1.28-0.73,2.68-1.38,4.02-2.1c15.33-8.33,33.54-9.65,50.44-11.24
						c2.84-0.27,5.96-0.25,8.35-0.83c16.46-3.97,27.16-14.1,37.13-28.39c3.99-5.72,7.3-12.68,9.26-21.12
						c3.72-16,5.56-31.04,21.92-39.2c7.29-3.63,16.48-6.25,23.94-8.95c13.92-5.05,27.39-10.86,34.6-25.12
						c3.56-7.03,5.2-15.43,11.94-22.39c10.38-10.72,25.15-16.69,38.41-23.37c11.43-5.75,23.88-11.53,32.99-20.45
						c8.43-8.26,9.91-16.55,14.54-20.83c6.74-6.22,12.89-14.31,18.01-13.29"/>
					<path class="st10" d="M328.45,581.95c11.34-15.89,27.94-28.91,43.81-39.93c1.71-1.19,3.45-2.41,5.12-3.58
						c16.94-11.83,43.89-12.07,63.05-17.91c16.4-5,32.68-12.84,49.42-18.06c20.88-6.5,42.21-13.73,62.77-19.49
						c13.09-3.67,30.24-4.17,41.81-11.95c1.22-0.82,2.59-1.57,3.86-2.39c14.57-9.48,32.7-10.79,49.43-12.28
						c2.8-0.25,5.71-0.4,8.08-1.01c15.66-4.05,27.79-13.37,38.78-25.68c4.47-5,8.33-11.34,10.49-19.59
						c3.78-14.4,3.95-33.25,18.86-41.2c6.71-3.57,15.27-6.65,22.64-9.18c15.38-5.26,27.13-10.9,36.25-23.5
						c4.49-6.21,5.57-16.13,11.43-23.66c9.07-11.67,23.65-17.67,36.88-24.01c12.05-5.77,25.1-11.05,35.42-19.56
						c10-8.25,11.85-17.12,16.3-21.51c6.4-6.31,12.39-14.04,17.51-12.96"/>
					<path class="st10" d="M330.9,584.06c11.11-16.19,27.67-29.9,43.35-41.33c1.69-1.23,3.44-2.48,5.11-3.67
						c16.99-12.09,45.36-9.26,64.6-14.97c15.92-4.72,31.58-12.98,47.73-18.42c20.59-6.93,41.76-14.84,62.05-20.44
						c12.12-3.34,32-3.14,42.27-11.38c1.14-0.92,2.49-1.77,3.69-2.71c13.69-10.73,31.46-12.05,48.18-13.73
						c2.74-0.28,5.55-0.56,7.92-1.18c15.11-3.96,28.86-12.21,40.86-22.43c4.97-4.23,9.42-9.88,11.82-17.88
						c4.02-13.43,3.15-34.16,15.88-43.31c5.77-4.15,13.73-7.41,20.84-9.59c14.98-4.59,27.6-10.38,37.34-21.81
						c5.15-6.04,7.35-16.48,12.03-24.75c7.2-12.74,21.59-19.1,34.34-25.14c12.41-5.89,26.99-10.85,37.37-19.01
						c8.08-6.35,12.35-14.35,18.75-21.91c5.38-6.36,12.04-13.82,17.14-12.66"/>
					<path class="st10" d="M333.35,586.17c10.91-16.51,27.37-30.93,42.91-42.71c1.67-1.27,3.42-2.54,5.1-3.75
						c17.95-12.86,45.24-5.13,66.05-11.9c15.73-5.11,30.37-13.26,45.87-18.94c20.22-7.41,41.1-16.14,61.35-21.41
						c11.97-3.11,32.9-1.7,43.11-10.41c1.15-0.98,2.34-1.97,3.46-3.04c12.73-12.06,30.15-13.65,46.76-15.57
						c2.68-0.31,5.44-0.67,7.83-1.27c14.94-3.77,30.26-10.59,43.27-18.74c5.49-3.44,10.56-8.36,13.22-16.03
						c4.73-13.66,3.06-34.52,13.15-45.44c4.34-4.69,11.85-8.07,18.58-10.12c14.7-4.5,27.68-9.41,37.93-20.03
						c6.4-6.63,11.08-16.32,14.14-25.6c4.49-13.61,18.16-21.26,30.39-26.9c13.01-6,27.41-11.14,38.75-18.81
						c9.16-6.19,15.05-13.82,21.66-22.1c5.16-6.47,11.84-13.63,16.93-12.39"/>
					<path class="st10" d="M335.8,588.29c10.7-16.83,26.98-31.99,42.51-44.07c1.67-1.3,3.43-2.6,5.11-3.81
						c18.53-13.35,45.91-1.31,67.34-8.64c15.08-5.16,29.13-13.72,43.98-19.68c19.77-7.94,40.46-17.5,60.68-22.4
						c12.24-2.97,33.57-0.95,44.23-9.3c1.22-0.95,2.42-1.93,3.4-3.08c11.48-13.51,28.51-15.59,45.11-17.74
						c2.64-0.34,5.34-0.75,7.79-1.31c15.26-3.54,31.83-8.56,45.93-14.74c6.01-2.64,11.7-6.81,14.65-14.07
						c6.02-14.87,3.65-34.07,10.87-47.47c2.71-5.03,9.65-8.8,15.9-10.74c14.3-4.43,27.4-8.35,38.04-18.18
						c7.39-6.82,13.34-17.28,16.56-26.23c4.36-12.16,13.94-23.15,26.34-29.26c13-6.4,27.21-11.79,39.43-18.99
						c10.15-5.97,17.63-13.28,24.86-22.11c5.46-6.67,11.78-13.47,16.88-12.16"/>
					<path class="st10" d="M338.25,590.4c10.46-17.16,26.56-33.15,42.14-45.42c1.67-1.31,3.43-2.63,5.13-3.85
						c19.24-13.84,46.29,3.23,68.64-5.09c14.57-5.42,27.74-14.46,41.93-20.74c19.26-8.53,39.85-18.86,60.02-23.42
						c12.52-2.83,34.32-0.14,45.43-8.16c1.28-0.93,2.65-1.89,3.58-3.02c11.06-13.4,26.17-17.46,43.39-19.9
						c2.62-0.37,5.25-0.81,7.77-1.31c16.04-3.14,33.36-5.82,48.74-10.56c6.63-2.05,12.76-5.26,16.07-12.09
						c7.34-15.12,4.53-33.27,9.19-48.9c1.92-6.42,7.21-9.97,12.89-11.78c13.77-4.39,26.89-7.22,37.7-16.26
						c8.07-6.75,13.77-17.14,18.55-26.79c6.15-12.41,10.02-24.73,23.29-31.99c12.76-6.99,26.45-12.73,39-19.55
						c10.5-5.7,20.85-12.88,28.17-21.99c5.5-6.85,11.88-13.35,17-11.97"/>
					<path class="st10" d="M340.7,592.51c10.32-17.51,26.06-34.27,41.78-46.75c1.67-1.33,3.45-2.64,5.16-3.86
						c20.04-14.28,46.65,8.02,70.1-1.29c14.07-5.59,26.19-15.43,39.66-22.07c18.74-9.25,39.22-20.18,59.33-24.46
						c12.81-2.72,35.16,0.73,46.73-7c1.35-0.9,2.71-1.84,3.75-2.96c12.77-13.84,22.33-18.81,41.86-21.87
						c2.61-0.41,5.23-0.82,7.79-1.26c17.03-2.96,34.88-3.32,51.58-6.35c7.14-1.29,13.9-3.86,17.43-10.13
						c8.2-14.57,4.99-33.55,7.86-49.64c1.25-7.04,5.03-11.54,10.06-13.21c13.1-4.36,26.14-6.04,36.95-14.32
						c8.65-6.63,14.82-17.37,20.14-27.26c5.92-11.01,10.28-27.53,21.29-35.05c11.67-7.97,24.8-13.99,37.4-20.49
						c11.28-5.82,22.91-12.18,31.43-21.77c6.33-7.13,12.13-13.26,17.3-11.83"/>
					<path class="st10" d="M343.15,594.62c10.25-17.86,25.5-35.37,41.45-48.05c1.68-1.34,3.48-2.65,5.21-3.85
						c21.09-14.65,46.97,12.89,71.72,2.69c13.62-5.61,24.55-16.55,37.24-23.6c18.13-10.08,38.47-21.51,58.56-25.51
						c13.14-2.62,36.05,1.66,48.11-5.82c1.41-0.88,2.79-1.79,3.91-2.91c13.49-13.4,20.21-20.7,40.53-23.62
						c2.56-0.37,5.23-0.8,7.82-1.18c18.1-2.64,36.51-0.79,54.34-2.25c7.6-0.62,14.83-2.32,18.57-8.47
						c8.77-14.39,5.54-33.56,7.01-49.7c0.68-7.53,3.3-13.17,7.61-14.7c12.27-4.34,25.05-4.86,35.79-12.41
						c8.88-6.25,15.93-17.38,21.33-27.59c6.43-12.15,11.41-28.55,20.25-38.3c8.79-9.69,22.6-15.7,34.7-21.83
						c12.07-6.11,24.43-12.21,34.43-21.52c7.72-7.19,12.6-13.2,17.85-11.72"/>
					<path class="st10" d="M345.6,596.73c10.17-18.23,24.92-36.47,41.14-49.3c1.69-1.34,3.51-2.64,5.27-3.82
						c22.11-14.92,47.38,17.83,73.51,6.8c13.38-5.65,22.72-17.47,34.76-25.27c17.36-11.26,37.74-22.83,57.65-26.6
						c13.63-2.58,37.02,2.66,49.58-4.62c1.47-0.85,2.9-1.75,4.06-2.85c13.6-12.88,18.94-22.12,39.42-25.12
						c2.55-0.37,5.23-0.77,7.87-1.08c19.01-2.17,38.47,1.45,56.87,1.56c7.85,0.05,15.42-1.48,19.42-7.17
						c9.59-13.65,6.37-33.21,6.8-49.08c0.21-7.88,2.17-14.46,5.68-16.02c10.64-4.72,23.81-3.86,34.22-10.71
						c9.18-6.04,16.46-17.41,22.12-27.73c7.44-13.57,14.07-29.22,20.22-41.61c5.24-10.56,19.49-17.73,30.88-23.56
						c12.59-6.44,25.75-12.55,36.93-21.37c8.76-6.92,13.39-13.05,18.77-11.52"/>
					<path class="st10" d="M348.06,598.87c9.94-18.61,24.36-37.62,40.84-50.51c1.7-1.33,3.55-2.62,5.34-3.78
						c23.31-15.06,47.77,22.77,75.46,10.97c13.5-5.75,20.95-18.48,32.34-27.02c16.41-12.31,36.76-24.22,56.53-27.72
						c14.05-2.49,38.03,3.66,51.11-3.4c1.53-0.83,3-1.71,4.2-2.8c13.38-12.12,18.56-23.48,38.54-26.34c2.54-0.36,5.28-0.8,7.93-0.96
						c19.72-1.21,39.5,2.74,59.05,4.9c8.25,0.91,15.72-0.93,20.04-6.13c10.54-12.67,7.5-32.45,7.22-47.88
						c-0.15-8.11,1.1-15.05,4.19-16.87c9.07-5.34,22.78-3.56,32.44-9.59c9.32-5.82,16.75-17.32,22.53-27.63
						c8.02-14.32,16.76-28.73,21.21-44.67c3.47-12.42,15.36-19.98,25.96-25.76c12.96-7.07,26.74-13.03,38.99-21.39
						c9.77-6.67,14.33-12.79,19.89-11.23"/>
					<path class="st10" d="M350.52,601c9.54-18.97,23.86-38.84,40.58-51.67c1.72-1.32,3.59-2.58,5.42-3.71
						c24.46-15.05,48.24,27.62,77.56,15.17c13.66-5.81,19.83-19.23,30.08-28.78c14.67-13.66,35.66-25.66,55.11-28.88
						c14.51-2.4,39.08,4.68,52.7-2.19c1.59-0.8,3.1-1.68,4.34-2.75c13.05-11.36,18.61-24.61,37.9-27.29
						c2.51-0.35,5.24-0.7,7.98-0.84c20.69-1.06,40.54,5.23,60.71,7.58c8.4,0.98,15.76-0.57,20.5-5.25
						c11.6-11.47,9.02-31.25,8.29-46.17c-0.4-8.21,0.35-15.67,3.06-17.44c7.87-5.15,21.68-3.84,30.66-8.96
						c9.22-5.26,16.72-17.06,22.54-27.25c8.57-14.98,19.46-31.45,22.17-46.97c2.05-11.76,10.46-22.31,21.07-28.69
						c13.08-7.87,27.43-13.71,40.57-21.58c10.73-6.43,15.37-12.44,21.17-10.87"/>
					<path class="st10" d="M352.98,603.13c9.24-19.3,23.34-39.99,40.36-52.75c1.74-1.31,3.64-2.54,5.51-3.62
						c25.74-14.88,48.72,32.32,79.79,19.32c13.83-5.78,19.43-19.87,28.14-30.51c12.2-14.89,34.5-27.19,53.29-30.08
						c15-2.31,40.2,5.7,54.33-0.98c1.64-0.78,3.2-1.64,4.47-2.71c12.71-10.67,18.93-25.42,37.48-27.95
						c2.49-0.34,5.25-0.68,8.03-0.73c21-0.45,40.98,8.1,61.67,9.36c8.31,0.51,15.68-0.23,20.9-4.35
						c12.74-10.07,10.95-29.55,10.03-44.02c-0.52-8.22-0.23-15.84,2.3-17.79c6.67-5.15,21.09-4.71,28.95-8.99
						c9.02-4.92,16.47-16.67,22.22-26.48c8.97-15.31,18.56-31.61,22.59-48.54c3.08-12.92,4.91-23.9,16.74-32.04
						c12.88-8.86,27.81-14.57,41.62-21.95c11.64-6.22,16.46-12.01,22.57-10.44"/>
					<path class="st10" d="M355.44,605.25c8.96-19.61,22.84-41.11,40.19-53.75c1.77-1.29,3.69-2.48,5.62-3.52
						c27.01-14.55,49.25,36.8,82.15,23.4c14.16-5.77,19.28-20.22,26.68-32.11c10.02-16.09,32.86-28.74,50.92-31.38
						c11.67-1.71,22.18-1.2,34.13,0.28c7.77,0.96,14.16,3.37,21.85-0.06c1.7-0.76,3.29-1.61,4.58-2.66
						c12.96-10.55,18.44-25.13,37.3-28.34c2.54-0.43,5.25-0.65,8.06-0.64c20.99,0.07,41.26,8.85,62.01,10.46
						c8.3,0.65,15.52-0.18,21.14-3.71c13.87-8.72,13.28-27.3,12.38-41.45c-0.52-8.13-0.52-15.85,1.9-17.93
						c6.12-5.27,19.95-5.7,27.37-9.97c8.89-5.12,15.82-15.84,21.64-25.05c9.33-14.77,18.41-32.1,22.49-49.39
						c2.88-12.24,2.3-26.84,12.97-35.62c12.18-10.03,27.87-15.63,42.11-22.51c12.48-6.03,17.58-11.53,24.16-9.98"/>
					<path class="st10" d="M357.89,607.37c8.7-19.88,22.35-42.21,40.05-54.67c1.79-1.26,3.75-2.41,5.73-3.39
						c28.36-14.06,49.79,41,84.59,27.36c14.55-5.7,19.36-20.61,25.47-33.5c8.1-17.1,30.6-30.4,48.3-32.82
						c11.93-1.63,22.93-1.38,35.13,0.83c7.82,1.42,14.68,3.85,22.49,0.56c1.74-0.73,3.38-1.58,4.69-2.62
						c12.99-10.35,18.93-24.93,37.47-28.3c2.47-0.45,5.2-0.72,7.99-0.68c20.93,0.32,41.21,9.32,61.96,11.22
						c8.31,0.76,15.67,0.09,21.35-3.33c13.85-8.34,15.55-24.36,14.86-38.93c-0.38-7.96-0.52-15.7,1.89-17.9
						c6.06-5.53,18.92-6.7,26.26-11.66c8.18-5.52,15.02-14.55,20.6-23.24c9.37-14.61,17.93-32.16,21.87-49.54
						c2.6-11.44,1.1-30.19,9.77-39.26c10.82-11.32,28.1-16.69,42.01-23.28c7.83-3.71,16.63-10.35,26.02-9.51"/>
					<path class="st10" d="M360.34,609.48c8.46-20.11,21.88-43.28,39.97-55.5c1.82-1.23,3.81-2.33,5.85-3.25
						c29.76-13.42,50.34,44.89,87.09,31.16c15.04-5.62,19.49-21,24.58-34.62c6.71-17.94,27.46-32.12,45.36-34.41
						c12.3-1.57,23.59-1.18,36.12,1.37c7.99,1.62,15.03,4.39,23.1,1.16c1.78-0.71,3.46-1.55,4.78-2.59
						c13.01-10.17,19.18-24.88,37.63-28.2c2.47-0.44,5.2-0.71,7.98-0.65c20.88,0.45,41.05,9.64,61.74,11.82
						c8.32,0.88,15.92,0.44,21.58-2.93c13.17-7.86,17.47-22.21,17.3-36.79c-0.09-7.74-0.22-15.43,2.26-17.73
						c6.33-5.86,18.55-7.62,26.02-13.36c7.23-5.56,13.57-13.88,18.86-21.74c9.52-14.15,17.15-32.02,20.78-49.01
						c2.6-12.15,0.43-32.76,7.12-42.81c8.34-12.52,27.35-18.19,41.32-24.24c8.57-3.71,17.92-9.92,27.87-9.06"/>
					<path class="st10" d="M362.79,611.6c8.35-20.27,21.35-44.31,39.93-56.24c1.86-1.19,3.88-2.26,5.98-3.09
						c31.76-12.48,50.56,48.54,89.62,34.77c15.63-5.51,19.67-21.42,24.06-35.4c5.77-18.41,23.47-33.91,42.15-36.2
						c11.53-1.41,22.49-1.2,34.27,1.12c9.22,1.82,17.18,5.93,26.48,2.48c1.8-0.67,3.51-1.54,4.86-2.57
						c13.16-10.03,19.32-24.76,37.76-28.07c2.46-0.44,5.19-0.69,7.97-0.62c20.82,0.57,40.83,9.85,61.47,12.39
						c8.42,1.04,16.1,0.76,21.82-2.53c12.31-7.07,18.94-21.32,19.59-35.09c0.35-7.46,0.37-15.05,3.02-17.44
						c6.82-6.16,18.75-8.5,26.6-14.86c5.11-4.14,10.15-10.36,16.59-20.77c9.05-14.63,15.91-31.25,19.23-47.85
						c2.87-14.33-0.05-33.83,5.02-46.13c5.58-13.53,26.23-19.88,40.01-25.4c9.31-3.74,19.15-9.52,29.69-8.65"/>
					<path class="st10" d="M365.25,613.71c8.17-20.43,20.93-45.31,39.94-56.88c1.89-1.15,3.96-2.14,6.12-2.91
						c15.53-5.55,28.12,10.18,38.14,19.3c15.32,13.93,32.35,26,54,18.86c15.93-5.25,20.09-21.48,23.8-35.87
						c4.89-19,19.07-35.85,38.79-38.12c11.72-1.35,23.19-1.3,35.13,1.54c9.27,2.2,17.64,6.43,27.04,3.08
						c1.83-0.65,3.55-1.53,4.92-2.55c13.27-9.91,19.49-24.61,37.89-27.9c2.46-0.44,5.18-0.69,7.95-0.6
						c20.74,0.66,40.64,10.02,61.17,12.93c8.51,1.21,16.27,1.08,22.06-2.12c11.59-6.4,19.82-20.96,21.6-33.84
						c0.99-7.19,1.27-14.58,4.18-17.06c7.49-6.38,19.6-9.27,27.75-16.05c4.95-4.12,9.33-11.09,14.33-20.5
						c7.94-14.96,13.96-30.05,17.13-46.07c3.15-15.87,1.32-34.72,3.46-49.11c2.09-14.02,24.74-21.67,38.08-26.77
						c9.66-3.7,20.65-9.52,31.47-8.27"/>
					<path class="st10" d="M367.69,615.82c8-20.55,20.51-46.25,40.01-57.43c1.93-1.11,4.07-2.07,6.27-2.72
						c17.25-5.09,30.78,14.02,41.98,24.2c14.91,13.56,31.98,23.41,52.63,17.1c16.17-4.94,20.77-21.36,23.76-36.06
						c3.88-19.09,14.94-37.91,35.37-40.14c12.02-1.31,23.75-1.16,35.96,1.93c9.39,2.37,17.92,6.94,27.5,3.63
						c1.84-0.64,3.52-1.54,4.91-2.55c13.52-9.83,19.7-24.38,38.07-27.67c2.44-0.44,5.16-0.68,7.92-0.58
						c20.68,0.75,40.49,10.18,60.87,13.47c8.58,1.39,16.44,1.4,22.3-1.71c11.9-6.32,19.59-20.56,23.19-33.04
						c1.97-6.83,2.46-13.82,5.72-16.59c8.24-7.02,20.65-8.8,29.29-16.9c4.9-4.59,8.74-11.37,12.65-20.52
						c6.08-14.24,11.69-29.09,14.25-44.18c2.82-16.58,2.59-35.17,2.45-51.64c-0.13-15.99,22.6-23.58,35.53-28.36
						c10.26-3.79,21.83-9.15,33.19-7.94"/>
					<path class="st10" d="M370.14,617.92c7.9-20.63,20.19-47.18,40.13-57.88c1.97-1.06,4.14-1.92,6.42-2.51
						c17.8-4.66,31.82,16.01,43.01,26.33c15.27,14.08,32.73,23.8,53.96,17.85c16.4-4.6,21.23-21.24,23.92-35.99
						c3.41-18.69,10.31-39.94,31.97-42.19c12.3-1.28,24.27-1.03,36.72,2.28c9.47,2.52,18.13,7.41,27.83,4.11
						c1.85-0.63,3.46-1.55,4.88-2.53c13.75-9.5,19.93-24.12,38.28-27.43c2.44-0.44,5.15-0.68,7.89-0.57
						c20.58,0.82,40.36,10.33,60.57,14.01c8.65,1.57,16.62,1.72,22.55-1.31c12.59-6.43,18.73-20.48,24.22-32.65
						c2.91-6.45,3.99-13.26,7.66-16.07c9.09-6.97,22.1-9.12,31.1-17.4c4.86-4.48,8.61-11.08,11.42-20.57
						c4.22-14.24,9.06-28.18,11.01-42.53c2.35-17.27,3.2-36.33,1.53-53.5c-1.68-17.36,19.51-25.7,32.8-30.31
						c11.12-3.86,22.77-8.82,34.85-7.65"/>
					<path class="st10" d="M372.58,620.01c7.68-20.66,20.01-48.1,40.3-58.21c2.01-1,4.27-1.83,6.58-2.29
						c17.2-3.45,30.39,15.14,41.41,25.75c16.24,15.65,34.51,26.92,57.78,21.01c16.58-4.22,22.12-20.58,24.24-35.69
						c2.57-18.27,6.7-42.05,28.68-44.24c12.57-1.25,24.74-0.95,37.41,2.59c9.47,2.65,18.24,7.89,27.94,4.5
						c1.79-0.62,3.5-1.5,4.94-2.45c13.97-9.15,20.19-23.83,38.51-27.17c2.43-0.44,5.13-0.68,7.86-0.56
						c20.49,0.87,40.23,10.52,60.28,14.56c8.72,1.76,16.78,2.04,22.79-0.9c12.83-6.29,18.57-20.52,24.62-32.5
						c3.32-6.57,5.76-12.8,9.9-15.64c9.97-6.81,23.69-9.06,33.11-17.57c4.9-4.42,8.61-11.1,10.62-20.66
						c2.87-13.67,6.38-27.57,7.7-41.2c1.71-17.78,2.46-37.9,0.29-54.78c-2.3-17.88,15.92-27.58,30.32-32.46
						c11.68-3.96,23.78-8.52,36.42-7.4"/>
					<path class="st10" d="M375,622.07c8.1-21.55,22.36-56.07,47.29-60.5c17.49-3.11,31.27,16.81,42.28,27.49
						c16.61,16.1,35.06,27.11,58.89,21.55c40.35-9.41,10.24-77.63,50.29-81.42c14.26-1.35,27.06-0.23,41.17,3.94
						c8.43,2.49,15.94,6.84,24.74,3.76c17.51-6.14,23.55-25.87,43.8-29.25c29.56-4.94,63.38,26.37,90.86,14.08
						c19.7-8.81,20.67-36.7,36.66-47.81c16.6-11.54,41.87-12.08,45.53-38.21c4.48-31.96,5.85-64.16,3.25-95.75
						c-2.51-30.46,40.44-44.1,65.97-41.95"/>
				</g>
			</g>
			<g>
				<g>
					<path class="st10" d="M-52.87,213.4c11.22,8.91,25.38,11.01,38.87,11.59c27.8,1.21,26.41-37.05,46.45-40.31
						c17.45-2.85,28.33-9.42,36.47-25.54c13.77-27.28,40.31-15.56,57.19-0.35c26.16,23.56,54.37,56.38,93.4,41.23
						c29.54-11.46,46.33-28.88,57.43-58.98c4.68-12.7,9.34-26.88,11.08-40.37c1.74-13.56-3.13-31.64,8.95-40.72
						c24.1-18.12,65.17,3.29,92.21-6.47c19.8-7.15,27.08-17.74,17.79-38.85c-12.77-29.02,24.26-40.81,45.07-47.37
						c18.07-5.7,47.67,1.62,61.97-13.59"/>
					<path class="st10" d="M-54.1,209.34c11.09,8.54,25.03,10.48,38.2,10.89c15.41,0.48,24.54-14.49,30.83-26.75
						c4.34-8.46,8.88-16.18,14.77-16.83c18.1-2.01,27.31-8.65,36.47-24.09c2.64-4.45,5.58-8.16,8.9-10.68
						c16.79-12.73,35.01-0.67,47.86,10.03c14.13,11.76,28.26,28.04,44.28,37.52c17.14,10.15,33.13,12.34,52.33,6.51
						c11.71-3.55,24.86-9.97,33.07-18.8c10.01-10.78,17.05-24.37,22.83-38.56c1.17-2.87,2.19-6,3.16-9.14
						c3.87-12.44,6.4-23.63,7.12-36.64c0.69-12.46-3-26.21,6.9-35.56c0.37-0.35,0.8-0.69,1.23-0.99
						c25.57-17.71,65.99,4.52,93.27-4.78c20.51-6.99,25.75-17.65,16.68-38.79c-6.66-15.54,2.33-25.83,14.16-33.15
						c9.72-6.02,22.15-10.17,33.68-13.67c18.23-5.52,47.12,1.4,61.43-13.28"/>
					<path class="st10" d="M-55.34,205.18c11.23,7.88,24.53,9.61,37.44,9.55c15.54-0.06,24.09-16.8,30.22-29.17
						c4.3-8.68,8.84-16.2,14.67-16.88c17.39-2.03,26.69-7.85,36.61-22.18c2.76-3.99,5.88-7.09,9.33-9.2
						c17.25-10.59,33.12-2.2,46.83,8.23c14.98,11.4,29.91,27.13,45.79,37.18c17.09,10.81,34.21,14.8,53.95,9.16
						c11.29-3.22,23.99-9.64,31.85-18.5c9.4-10.59,17.06-23.35,22.57-37.19c1.15-2.89,2.22-5.94,3.23-9.06
						c4.23-13.13,5.73-23.76,5.79-37.54c0.06-12.61-3.63-26.61,6.6-35.99c0.37-0.34,0.82-0.68,1.25-0.97
						c26.02-17.4,66.85,5.83,94.24-3.15c21.03-6.9,24.06-17.62,15.61-38.72c-6.44-16.07,4.58-25.82,16.71-32.76
						c10.05-5.76,22.37-9.94,33.94-13.47c18.18-5.56,46.22,1.07,60.85-12.99"/>
					<path class="st10" d="M-56.58,200.94c10.67,6.88,24.2,8.9,36.62,7.7c16.01-1.54,23.55-18.67,29.7-31.15
						c4.3-8.73,8.87-15.9,14.65-16.59c15.62-1.87,27.14-7.18,36.89-19.86c2.68-3.49,6.26-5.89,9.93-7.93
						c17.07-9.47,31.64-3.36,45.72,6.71c15.43,11.04,30.78,25.81,46.7,35.99c17.59,11.24,35.58,17.17,55.67,11.88
						c10.78-2.84,22.44-9.37,30.52-18.21c9.56-10.46,17.24-22.6,22.61-35.71c1.17-2.85,2.25-5.88,3.3-9
						c4.69-13.93,4.87-23.97,4.26-38.51c-0.53-12.72-4-26.94,6.61-36.27c0.38-0.33,0.83-0.67,1.27-0.95
						c26.48-17.06,67.73,7.08,95.09-1.6c21.25-6.75,22.2-17.74,14.6-38.65c-6.02-16.57,6.97-25.72,19.35-32.33
						c10.32-5.51,22.52-9.71,34.11-13.31c18-5.59,45.57,0.84,60.22-12.7"/>
					<path class="st10" d="M-57.84,196.68c10.61,6.15,23.94,7.36,35.75,5.47C-6.36,199.63,0.87,182,7.17,169.47
						c4.33-8.6,8.96-15.29,14.71-15.96c15.09-1.78,26.5-6.4,37.33-17.14c2.87-2.85,6.82-5.26,10.64-7.2
						c16.8-8.55,30.84-4.42,44.8,5.4c15.14,10.65,30.96,24.32,46.75,34.37c18.12,11.54,38.16,19.86,57.39,14.52
						c10.2-2.83,20.94-8.97,29.33-17.65c9.54-9.87,17.46-21.6,22.84-34.36c1.19-2.82,2.27-5.85,3.37-8.97
						c4.39-12.44,4.52-21.54,3.35-34.56c-1.25-13.94-6.4-30.95,6.13-41.35c0.41-0.34,0.86-0.68,1.31-0.96
						c26.94-16.69,68.54,8.26,95.79-0.16c21.28-6.57,20.3-17.91,13.65-38.59c-5.43-16.9,9.65-25.63,22.04-31.85
						c10.53-5.29,22.6-9.51,34.18-13.18c17.81-5.64,44.89,0.6,59.55-12.43"/>
					<path class="st10" d="M-59.09,192.42c10.58,5.35,23.66,5.55,34.85,2.96c15.28-3.54,22.31-21.29,28.9-33.75
						c4.39-8.3,9.14-14.35,14.85-14.99c14.57-1.64,26.4-5.07,38.03-14.52c3.32-2.69,7.26-4.81,11.2-6.69
						c16.46-7.86,30.13-5.46,44.01,4.05c14.83,10.15,30.5,22.91,46.1,32.66c18.61,11.64,39.6,21.68,58.87,16.82
						c9.79-2.47,20.04-8.59,28.64-16.67c9.94-9.35,17.71-20.71,23.11-33.18c1.21-2.8,2.28-5.9,3.45-8.96
						c8.7-22.72-13.4-60.14,8.21-76.9c0.43-0.34,0.9-0.67,1.37-0.95c27.46-16.54,68.16,9.57,96.07,1.01
						c21.78-6.68,18.6-18.01,13.04-38.42c-4.64-17.06,12.43-25.45,24.77-31.33c10.68-5.08,22.62-9.33,34.17-13.07
						c17.63-5.7,44.18,0.37,58.85-12.16"/>
					<path class="st10" d="M-60.33,188.21c10.59,4.46,23.35,3.56,33.92,0.28c14.75-4.57,21.59-22.04,28.63-34.34
						c4.48-7.82,9.37-13.09,15.09-13.67c14.15-1.43,26.95-3.86,38.88-12.23c3.51-2.47,7.65-4.45,11.66-6.31
						c16.28-7.56,29.63-6.2,43.36,2.63c14.31,9.21,29.54,21.73,44.81,31.06c17.23,10.52,40.63,24.27,60.03,18.61
						c9.9-2.89,19.98-7.8,28.52-15.27c10.12-8.86,17.98-19.94,23.42-32.18c1.24-2.78,2.29-5.98,3.53-8.97
						c9.56-22.98-17.66-59.96,7.11-77.71c0.46-0.33,0.95-0.66,1.44-0.94c28.12-16.11,65.92,7.98,96.09,2.06
						c23.94-4.7,16.2-21.66,12.63-38.31c-3.66-17.09,15.16-25.16,27.5-30.76c10.79-4.9,22.58-9.18,34.07-12.99
						c17.45-5.77,43.44,0.14,58.13-11.89"/>
					<path class="st10" d="M-61.57,184.06c11.03,3.82,23.05,0.91,32.99-2.46c13.73-4.66,20.79-22.45,28.45-34.4
						c4.6-7.17,9.65-11.52,15.41-12.01c14.23-1.21,27.31-2.75,39.77-10.44c3.71-2.29,7.96-4.2,12.05-6.07
						c15.9-7.27,29.23-7.29,42.86,1.11c13.82,8.53,28.53,20.74,43.23,29.66c17.3,10.49,40.67,24.6,60.56,19.89
						c10.12-2.39,20.26-6.38,29-13.55c10.29-8.44,18.29-19.27,23.77-31.34c1.26-2.77,2.37-5.9,3.61-9
						c9.43-23.51-20.98-60.47,6.2-78.33c0.49-0.32,1-0.64,1.51-0.91c28.63-15.48,65.61,8.33,95.84,2.98
						c24.01-4.25,14.83-22.21,12.4-38.25c-2.56-16.94,17.78-24.75,30.19-30.16c10.85-4.73,22.49-9.06,33.89-12.93
						c17.27-5.86,42.68-0.08,57.39-11.62"/>
					<path class="st10" d="M-62.79,180.02c11.03,2.76,22.62-1.21,32.06-5.19c13.24-5.57,19.81-22.52,28.36-33.9
						c4.76-6.34,9.94-9.54,15.73-9.91c14.3-0.93,27.92-2.27,40.73-9.43c3.86-2.16,8.18-4.23,12.36-5.96
						c15.97-6.62,28.16-8.92,42.52-0.52c13.39,7.84,27.6,19.82,41.74,28.44c17.56,10.71,40.38,24.36,60.55,21.12
						c10.34-1.66,20.62-4.94,29.65-11.92c10.45-8.08,18.62-18.7,24.17-30.64c1.29-2.77,2.65-5.88,3.71-9.05
						c7.69-23.06-23.23-61.54,5.53-78.72c0.52-0.31,1.06-0.61,1.6-0.89c28.97-14.71,65.28,8.59,95.32,3.78
						c23.86-3.82,13.64-22.94,12.36-38.27c-1.38-16.56,20.19-24.2,32.81-29.53c10.87-4.59,22.34-8.96,33.64-12.9
						c17.11-5.95,41.91-0.29,56.65-11.34"/>
					<path class="st10" d="M-64,176.1c11.28,1.16,21.75-3.1,31.14-7.8c12.74-6.36,18.65-22.34,28.35-32.77
						c4.97-5.35,10.22-7.44,16.09-7.8c14.46-0.88,28.52-2.13,41.63-8.99c3.99-2.09,8.35-4.15,12.59-5.97
						c15.61-6.73,28.15-10.04,42.31-2.26c12.98,7.13,26.84,18.98,40.39,27.37c18.75,11.59,40.07,23.27,60.19,22.36
						c10.08-0.45,20.96-3.57,30.32-10.43c10.61-7.77,18.98-18.21,24.61-30.08c1.31-2.77,2.84-5.89,3.49-9.2
						c4.58-23.38-24.74-62.51,5.44-78.79c0.55-0.3,1.11-0.58,1.67-0.83c29.51-13.46,64.52,8.78,94.53,4.42
						c23.66-3.44,12.91-23.38,12.57-38.34c-0.37-16.23,22.69-23.76,35.26-28.88c10.91-4.44,22.13-8.89,33.3-12.89
						c16.96-6.06,41.12-0.48,55.92-11.05"/>
					<path class="st10" d="M-65.19,172.33c11.17,0,21.19-5.03,30.25-10.22c12.08-6.92,17.45-22.13,28.38-30.91
						c5.13-4.12,10.54-5.66,16.49-6.03c14.64-0.91,29.11-2.24,42.46-8.99c4.09-2.07,8.47-4.16,12.75-6.11
						c15.27-6.95,28.14-11.21,42.21-4.12c12.68,6.39,26.16,18.13,39.23,26.38c18.55,11.7,39.38,23.38,59.54,23.62
						c10.39,0.13,21.25-2.25,30.96-9.03c10.77-7.52,19.37-17.79,25.08-29.62c1.34-2.78,2.48-6.03,2.78-9.46
						c2.04-23.38-26.03-63.5,6.03-78.28c0.58-0.27,1.16-0.52,1.76-0.76c29.98-12.08,63.45,8.59,93.53,4.71
						c23.53-3.04,12.15-23.99,13-38.47c0.93-15.92,24.72-23.1,37.54-28.23c10.84-4.34,21.88-8.86,32.9-12.89
						c17.05-6.24,39.89-0.88,55.2-10.76"/>
					<path class="st10" d="M-66.36,168.72c10.98-1.12,20.75-6.75,29.39-12.39c10.95-7.15,17.04-21.61,28.48-28.49
						c5.23-3.15,10.83-4.22,16.86-4.63c14.84-1.01,29.68-2.56,43.19-9.37c4.15-2.09,8.54-4.27,12.84-6.36
						c12.9-6.28,28.18-13.98,42.18-6.07c13.1,7.41,25.66,17.28,38.29,25.44c18.3,11.83,38.58,23.58,58.68,24.89
						c10.65,0.7,21.52-0.95,31.56-7.68c10.9-7.31,20.31-17.41,25.52-29.27c1.21-2.75,1.69-6.25,1.7-9.79
						c0.05-23.28-26.22-64.16,7.35-77.27c0.6-0.24,1.23-0.48,1.85-0.7c30.18-10.76,62.34,8.29,92.28,4.72
						c23.22-2.77,11.43-24.91,13.58-38.69c2.41-15.42,26.32-22.27,39.68-27.56c10.76-4.27,21.58-8.84,32.42-12.92
						c16.93-6.37,39.11-1.06,54.51-10.44"/>
					<path class="st10" d="M-67.5,165.3c10.72-2.16,20.14-8.27,28.57-14.24c10.14-7.17,16.99-20.18,28.62-25.77
						c5.45-2.62,11.07-3.08,17.17-3.54c15.04-1.15,30.21-3.05,43.82-10.09c4.19-2.17,8.57-4.46,12.86-6.72
						c12.81-6.75,27.99-15.05,42.19-8.07c13,6.39,25.34,16.38,37.6,24.51c18.05,11.96,37.73,23.87,57.69,26.15
						c10.8,1.24,21.77,0.35,32.1-6.37c10.86-7.06,21.56-17.08,25.45-29.08c0.89-2.75,0.95-6.44,0.72-10.05
						c-1.53-23.83-25.89-63.94,9.36-75.83c0.63-0.21,1.28-0.44,1.92-0.64c30.23-9.51,61.14,7.82,90.81,4.51
						c22.86-2.55,10.83-26.15,14.31-39.01c3.98-14.72,27.51-21.21,41.66-26.87c10.65-4.26,21.27-8.83,31.89-12.97
						c16.76-6.54,38.35-1.22,53.85-10.11"/>
					<path class="st10" d="M-68.62,162.08c10.4-3.07,19.62-9.51,27.8-15.71c9.27-7.04,17.29-18.48,28.77-22.82
						c5.57-2.1,11.25-2.36,17.43-2.9c15.24-1.33,30.72-3.67,44.34-11.07c4.2-2.28,8.56-4.72,12.82-7.17
						c12.73-7.33,27.63-16.15,42.15-10.07c13.01,5.44,25.21,15.41,37.2,23.54c17.82,12.08,36.89,24.24,56.64,27.4
						c10.86,1.74,21.99,1.66,32.57-5.06c10.6-6.73,22.44-16.27,24.84-28.99c0.55-2.91,0.34-6.57-0.08-10.25
						c-2.83-24.9-24.86-63.13,12-74.04c0.65-0.19,1.33-0.4,1.99-0.58c30.1-8.33,59.91,7.24,89.18,4.14
						c22.53-2.39,10.53-27.07,15.32-39.31c5.57-14.22,28.59-20.36,43.32-26.29c10.44-4.2,20.89-8.86,31.3-13.03
						c16.68-6.68,37.61-1.36,53.24-9.75"/>
					<path class="st10" d="M-69.71,159.07c10.03-3.82,18.79-10.47,27.08-16.76c9.02-6.85,17.6-16.55,28.9-19.97
						c5.68-1.72,11.37-1.95,17.59-2.57c15.43-1.53,31.19-4.36,44.75-12.26c4.18-2.44,8.52-5.05,12.72-7.71
						c12.58-7.96,27.01-17.26,42.01-12.03c13.19,4.6,25.3,14.33,37.12,22.49c17.64,12.18,36.11,24.65,55.61,28.63
						c10.84,2.21,22.23,2.96,32.98-3.75c10.53-6.57,22.68-15.4,23.72-28.94c0.23-3.02-0.14-6.66-0.69-10.38
						c-3.88-26.21-22.93-61.99,15.21-71.97c0.67-0.18,1.37-0.36,2.05-0.53c29.71-7.21,58.68,6.62,87.4,3.65
						c22.25-2.29,10.39-27.64,16.58-39.56c7.22-13.9,29.51-19.66,44.66-25.83c10.22-4.17,20.46-8.91,30.65-13.1
						c16.61-6.84,36.89-1.49,52.69-9.37"/>
					<path class="st10" d="M-70.77,156.28c9.57-4.38,18.12-11,26.45-17.1c8.97-6.56,17.78-14.86,28.95-17.74
						c5.76-1.48,11.42-1.8,17.68-2.5c15.61-1.75,31.61-5.09,45.03-13.58c4.15-2.63,8.43-5.44,12.56-8.33
						c12.37-8.66,26.02-18.32,41.68-13.87c13.58,3.85,25.66,13.15,37.37,21.32c17.46,12.17,35.44,25.08,54.7,29.82
						c10.78,2.65,22.46,4.17,33.34-2.43c10.78-6.54,22.05-14.9,22.14-28.83c0.02-3-0.5-6.71-1.13-10.44
						c-4.66-27.65-20.07-60.65,18.91-69.68c0.69-0.16,1.4-0.33,2.1-0.48c29.04-6.16,57.47,5.98,85.52,3.1
						c22.01-2.26,10.28-28.03,18.01-39.81c8.93-13.6,30.25-19.06,45.72-25.49c9.99-4.15,20-8.98,29.96-13.19
						c16.57-7,36.22-1.61,52.21-8.95"/>
					<path class="st10" d="M-71.82,153.61c9.15-4.74,17.56-11.08,25.89-16.94c8.96-6.3,18-13.36,28.94-15.98
						c5.78-1.38,11.41-1.89,17.68-2.67c15.77-1.98,31.97-5.79,45.16-14.97c4.09-2.85,8.31-5.89,12.33-9.01
						C71.62,83.6,83.3,77.25,99.1,78.86c13.31,1.36,26.48,11.55,38.13,19.66c17.25,12.01,34.95,25.51,53.97,30.95
						c10.73,3.07,22.67,5.07,33.68-1.11c10.64-5.97,20.66-15.28,20.14-28.58c-0.12-2.97-0.74-6.71-1.39-10.44
						c-5.13-29.1-16.26-59.14,23.05-67.24c0.71-0.15,1.43-0.3,2.13-0.43c28.29-5.28,56.28,5.38,83.57,2.53
						c21.86-2.29,10.11-28.3,19.57-40.07c10.66-13.26,30.83-18.54,46.53-25.23c9.74-4.15,19.51-9.08,29.23-13.28
						c16.55-7.16,35.61-1.72,51.81-8.49"/>
					<path class="st10" d="M-72.86,151.04c8.8-4.9,16.99-11,25.37-16.48c9.17-5.99,18.07-11.97,28.88-14.68
						c5.77-1.45,11.35-2.23,17.61-3.09c15.91-2.2,32.25-6.43,45.15-16.36c4.02-3.09,8.27-6.4,12.02-9.68
						C68.12,80.31,81.07,75.18,95.71,75.5c13.99,0.31,27.67,8.83,39.5,16.83c17.12,11.58,34.09,24.72,53.53,32.03
						c10.35,3.89,23.71,6.28,34.03,0.2c10.22-6.02,18.59-15.63,17.78-28.12c-0.19-2.93-0.86-6.68-1.49-10.39
						c-5.22-30.45-11.56-57.54,27.54-64.71c0.72-0.13,1.45-0.27,2.16-0.39c27.46-4.51,55.08,4.86,81.58,1.97
						c21.79-2.38,9.8-28.51,21.22-40.36c12.4-12.86,31.21-18.05,47.08-25.07c9.48-4.19,18.99-9.19,28.46-13.38
						c16.54-7.31,35.07-1.83,51.51-8"/>
					<path class="st10" d="M-73.88,148.61c8.47-4.99,16.58-10.8,24.86-15.87c9.12-5.6,18.31-10.88,28.75-13.85
						c5.73-1.63,11.25-2.86,17.48-3.8c16.01-2.4,32.46-6.96,44.96-17.67c3.93-3.36,8-6.53,11.52-9.45
						c11.59-9.61,23.76-14.41,37.92-15.03c14.29-0.63,28.72,6.42,40.89,13.55c17.49,10.25,34.51,24.51,53.71,32.41
						c9.91,4.08,24.24,7.86,33.76,1.48c9-6.04,16.64-15.5,15.78-27.35c-0.21-2.87-0.87-6.61-1.43-10.28
						c-4.85-31.56-6.06-55.86,32.31-62.14c0.73-0.12,1.47-0.26,2.18-0.35c25.92-3.25,53.92,4.34,79.58,1.48
						c18.62-2.08,14.23-30.66,22.92-40.68c10.67-12.31,31.26-17.68,47.4-24.98c9.32-4.22,18.44-9.32,27.67-13.48
						c16.56-7.46,34.61-1.94,51.32-7.45"/>
					<path class="st10" d="M-74.88,146.27c8.15-5.03,16.04-10.53,24.36-15.21c9.25-5.2,18.54-10.06,28.55-13.53
						c5.69-1.97,11.14-3.85,17.29-4.84c16.16-2.6,32.05-7.84,44.64-18.44c3.71-3.12,7.64-5.77,10.95-8.39
						c10.38-8.21,22.67-14.28,36.1-14.84c14.83-0.62,28.89,4.27,41.46,10.51c18.14,9,36.46,24.15,54.97,31.45
						c9.7,3.82,23.39,9.02,32.35,2.86c7.84-5.39,15.61-14.8,14.89-26.25c-0.18-2.8-0.77-6.51-1.22-10.12
						c-3.99-32.33,0.1-54.15,37.28-59.59c0.73-0.11,1.48-0.23,2.19-0.31c25.1-2.71,52.73,4.08,77.61,1.06
						c17.89-2.17,15.31-31.22,24.64-41.06c11.37-12,31.4-17.4,47.48-24.97c9.03-4.25,17.87-9.46,26.83-13.61
						c16.56-7.67,34.3-2.03,51.29-6.83"/>
					<path class="st10" d="M-75.88,144.01c0,0,6.63-5.34,23.86-14.57c9.12-4.89,18.76-9.58,28.29-13.74
						c5.64-2.47,11.05-5.34,17.07-6.31c15.84-2.55,31.18-7.85,44.16-17.6c3.62-2.72,7.31-5.09,10.43-7.47
						c10.01-7.62,21.4-13.69,34.18-14.75c14.62-1.21,28.54,2.4,41.32,7.74c18.6,7.77,37.38,21.78,55.89,29.48
						c9.13,3.8,22.89,9.84,31.06,4.11c7.24-5.08,15.44-13.61,15.04-24.8c-0.1-2.72-0.57-6.37-0.86-9.91
						c-2.62-32.66,6.71-52.42,42.36-57.1c0.73-0.1,1.48-0.21,2.19-0.27c24.3-2.24,51.54,3.98,75.71,0.77
						c9.6-1.28,11.13-6.43,14.23-13.99c4.85-11.84,2.73-18.27,12.13-27.51c11.87-11.66,31.48-17.28,47.33-25.03
						c8.72-4.26,17.35-9.72,25.98-13.79c16.38-7.74,34.13-2.07,51.38-6.1"/>
					<path class="st10" d="M-76.87,141.79c0,0,6.22-5.39,23.35-14c9.31-4.68,18.85-9.43,27.96-14.53
						c5.57-3.12,10.92-7.04,16.83-8.03c15.11-2.52,30.56-6.35,43.59-15.27c3.48-2.38,7.02-4.54,9.97-6.73
						c9.6-7.1,20.09-13.33,32.25-14.8c14.21-1.71,27.87,0.88,40.63,5.32c18.82,6.53,37.87,18.84,56.16,27
						c8.72,3.89,21.74,10.62,30.19,4.96c9.26-6.2,14.23-11.9,15.98-23.1c0.38-2.44-0.28-6.21-0.36-9.66
						c-0.74-32.48,13.53-50.7,47.46-54.73c0.73-0.09,1.47-0.19,2.18-0.24c23.56-1.82,50.36,4.09,73.88,0.62
						c9.69-1.43,10.88-6.78,14.15-14.32c5.23-12.05,3.93-18.43,13.89-27.69c12.2-11.35,31.36-17.25,46.95-25.15
						c8.46-4.29,16.74-10.02,25.26-13.97c16.52-7.64,34.02-2.15,51.49-5.3"/>
					<path class="st10" d="M-77.86,139.57c0,0,5.84-5.41,22.82-13.57c9.53-4.58,18.93-9.72,27.55-15.89
						c5.49-3.93,10.69-7.51,16.62-8.41c15.08-2.28,29.72-4.74,42.96-13.06c3.36-2.11,6.81-4.11,9.56-6.16
						c9.73-7.24,19.22-12.5,30.41-15.04c12.56-2.85,27.03-0.3,39.52,3.27c18.74,5.36,37.67,16.27,55.81,24.18
						c8.47,3.7,21.36,10.69,29.65,5.47c7.5-4.73,16.51-10.23,17.54-21.24c0.24-2.59,0.1-6.02,0.26-9.37
						c1.58-31.79,20.27-49.02,52.49-52.51c0.73-0.08,1.47-0.17,2.16-0.21c22.9-1.44,49.18,4.41,72.18,0.64
						c9.79-1.6,10.65-7.16,14.09-14.71c5.59-12.24,5.14-18.58,15.57-27.88c12.4-11.06,31.11-17.24,46.35-25.33
						c8.23-4.37,16.19-10.31,24.69-14.13c16.73-7.51,33.99-2.11,51.62-4.44"/>
					<path class="st10" d="M-78.85,137.35c0,0,5.51-5.41,22.27-13.32c10.07-4.75,18.6-10.81,27.06-17.81
						c5.35-4.43,10.59-6.56,16.49-7.26c14.76-1.74,29.19-3.53,42.32-11.21c3.26-1.91,6.6-3.79,9.22-5.76
						c9.25-6.92,18.16-12.67,28.72-15.54c11.82-3.21,26.06-1.19,38.14,1.63c18.44,4.3,37.03,13.79,54.89,21.25
						c8.38,3.5,21.05,10.47,29.33,5.65c7.78-4.52,17.47-8.19,19.56-19.28c0.47-2.5,0.54-5.78,1-9.04
						c4.42-30.74,26.4-47.39,57.36-50.49c0.72-0.07,1.45-0.15,2.14-0.19c22.35-1.12,48.02,4.98,70.62,0.84
						c9.89-1.81,10.42-7.59,14.04-15.15c5.92-12.35,6.48-18.86,17.15-28.09c12.49-10.8,30.86-17.2,45.51-25.58
						c7.92-4.53,15.83-10.56,24.31-14.27c16.88-7.39,34.06-2.07,51.85-3.47"/>
					<path class="st10" d="M-79.84,135.08c0,0,5.23-5.39,21.69-13.3c10.12-4.86,18.24-12.8,26.52-19.29
						c4.85-3.8,10.54-5.24,16.42-5.74c14.53-1.23,28.72-2.44,41.73-9.65c3.17-1.76,6.4-3.58,8.95-5.5
						c8.75-6.61,17.53-12.84,27.28-16.34c11.01-3.95,24.82-1.71,36.61,0.37c18.21,3.21,36.05,11.9,53.46,18.39
						c8.57,3.2,21,9.65,29.17,5.58c8.11-4.05,18.45-6.14,21.86-17.29c0.74-2.4,1.06-5.53,1.85-8.67
						c7.32-29.1,32.18-45.91,61.95-48.69c0.71-0.07,1.42-0.13,2.11-0.17c22.68-1.37,46.58,5.88,69.24,1.25
						c10-2.05,10.2-8.06,14-15.67c6.2-12.39,7.87-19.18,18.64-28.31c12.47-10.58,30.26-17.17,44.42-25.91
						c7.73-4.77,15.66-10.74,24.14-14.36c16.99-7.25,34.22-2.04,52.1-2.45"/>
					<path class="st10" d="M-80.85,132.76c0,0,5.02-5.36,21.08-13.55c9.89-5.04,17.33-14.19,26-19.88
						c4.83-3.17,10.48-4.11,16.35-4.41c14.36-0.72,28.34-1.41,41.21-8.31c3.11-1.67,6.27-3.46,8.73-5.39
						c8.43-6.63,16.87-13.6,26.15-17.5c10.41-4.37,23.59-2.19,35.06-0.56c17.38,2.48,34.74,9.99,51.55,15.82
						c8.66,3,20.74,9.09,29.07,5.29c8.7-3.97,19.45-4.44,24.33-15.3c1.01-2.25,1.65-5.25,2.79-8.27
						c10.33-27.13,37.19-44.57,66.17-47.16c0.7-0.06,1.39-0.12,2.07-0.15c22.41-1.17,45.52,7.01,68.05,1.86
						c10.11-2.31,9.99-8.58,13.96-16.24c6.42-12.39,9.23-19.52,20-28.55c12.36-10.37,29.31-17.18,43.12-26.28
						c7.69-5.07,15.64-10.87,24.18-14.42c17.09-7.08,34.46-2.02,52.38-1.38"/>
					<path class="st10" d="M-81.86,130.37c0,0,5.15-5.26,20.42-14.1c9.37-5.42,16.01-14.83,25.51-19.71
						c5.03-2.58,10.47-3.19,16.3-3.27c14.15-0.21,28.07-0.4,40.81-7.14c3.07-1.62,6.17-3.41,8.58-5.42
						c8.25-6.84,16.39-14.54,25.4-19.07c9.82-4.94,22.72-2.91,33.62-1.22c16.29,2.52,33,8.58,49.22,13.76
						c8.78,2.81,21.01,8.62,28.98,4.87c8.6-4.04,20.79-2.76,26.82-13.35c1.2-2.12,2.27-4.95,3.82-7.84
						c13.43-24.99,41.18-43.39,69.91-45.92c0.68-0.06,1.38-0.13,2.03-0.14c21.23-0.28,45.24,8.14,67.09,2.69
						c7.82-1.95,9.48-6.77,12.9-13.15c7.19-13.42,10.18-22.55,22.26-32.53c12.32-10.18,28.15-17.28,41.72-26.73
						c7.73-5.38,15.7-10.94,24.32-14.4c17.17-6.89,34.79-2,52.68-0.26"/>
					<path class="st10" d="M-82.88,127.89c0,0,5.7-5.18,19.73-14.96c8.19-5.71,15.42-14.9,25.06-18.89
						c5.1-2.11,10.46-2.46,16.25-2.34c13.99,0.28,27.92,0.6,40.56-6.12c3.05-1.62,6.14-3.44,8.51-5.56
						c8.25-7.4,15.88-16.17,25.08-21.11c9.5-5.1,21.58-3.49,32.39-1.72c15.29,2.51,31.17,7.89,46.54,12.42
						c8.89,2.62,20.56,7.93,28.83,4.38c9.36-4.01,21.69-1.52,29.23-11.46c1.5-1.98,2.89-4.63,4.91-7.38
						c16.81-22.88,43.9-42.39,73.06-45c0.66-0.06,1.35-0.13,1.97-0.13c21-0.09,44.66,9.75,66.39,3.75
						c7.89-2.18,9.28-7.23,12.79-13.69c7.36-13.53,11.35-22.92,23.42-32.95c12.09-10.05,27.41-17.88,40.32-27.23
						c7.52-5.45,16.07-11.53,24.49-14.33c17.13-5.7,34.35-2.12,53,0.91"/>
					<path class="st10" d="M-83.92,125.31c0,0,5.51-5.33,18.99-16.15c7.44-5.97,15.13-14.29,24.66-17.53
						c5.13-1.74,10.46-1.93,16.21-1.63c13.88,0.72,27.9,1.59,40.46-5.21c3.05-1.65,6.13-3.54,8.51-5.82
						c8.37-8.05,16-17.87,25.3-23.65c9.31-5.79,20.55-4.29,31.47-2.19c14.28,2.75,29.15,8.03,43.55,12.03
						c8.94,2.48,20.03,7.27,28.55,3.92c10.16-4,22.48-0.48,31.45-9.61c1.8-1.83,3.56-4.3,6.06-6.89
						c19.84-20.52,45.84-41.66,75.51-44.43c0.64-0.06,1.29-0.11,1.92-0.13c22.23-0.87,43.52,11.99,65.96,5.03
						c7.98-2.48,9.08-7.73,12.68-14.29c7.48-13.62,12.44-23.29,24.45-33.38c11.84-9.96,26.31-18.62,38.94-27.78
						c7.52-5.45,16.19-11.51,24.68-14.21c17.23-5.47,34.79-2.15,53.34,2.11"/>
					<path class="st10" d="M-84.97,122.63c0,0,4.7-6.47,18.23-17.58c7.21-5.92,14.96-13.16,24.31-15.84
						c5.17-1.48,10.46-1.59,16.18-1.14c13.83,1.09,28.01,2.56,40.52-4.41c3.07-1.71,6.11-3.68,8.59-6.18
						c8.54-8.61,15.18-19.72,26.31-25.58c10.39-5.47,20.13-5.59,30.6-3.6c12.91,2.45,26.85,8.83,40.46,12.46
						c8.98,2.39,19.37,6.74,28.09,3.57c10.93-3.97,23.17,0.41,33.41-7.8c2.1-1.68,4.28-3.86,7.3-6.44
						c21.31-18.19,47.73-41.16,77.08-44.15c0.62-0.06,1.25-0.11,1.85-0.14c22.29-0.86,43.28,14.21,65.83,6.53
						c8.06-2.74,8.88-8.26,12.57-14.95c7.55-13.68,13.45-23.65,25.33-33.81c11.54-9.87,25.06-19.47,37.61-28.35
						c7.67-5.42,16.33-11.45,24.9-14.05c17.3-5.23,35.34-2.16,53.7,3.36"/>
					<path class="st10" d="M-86.03,119.83c0,0,4.27-8.2,17.47-18.7c7.08-5.63,14.83-12.14,23.98-14.46
						c5.2-1.32,10.46-1.45,16.16-0.88c13.83,1.38,28.25,3.45,40.76-3.73c3.13-1.8,6.22-3.87,8.75-6.63
						c8.58-9.35,15.53-20.45,27.47-26.41c10.26-5.12,19.98-6.08,30.35-4.74c12.24,1.58,25.13,8.24,37.56,12.01
						c8.48,2.57,18.83,6.33,27.41,3.44c11.62-3.92,23.75,1.21,35.03-6c2.38-1.52,5.18-3.74,8.52-6.22
						c22.05-16.42,49.11-40.7,77.74-43.99c0.59-0.07,1.2-0.12,1.78-0.15c22.36-0.92,43.35,16.69,66.02,8.25
						c8.06-3,8.74-8.82,12.5-15.61c7.6-13.73,14.28-24.01,26.02-34.28c11.19-9.8,23.9-20.37,36.34-28.94
						c7.81-5.38,16.49-11.37,25.12-13.85c17.37-4.98,36-2.14,54.07,4.63"/>
					<path class="st10" d="M-87.11,116.91c0,0,3.14-9.62,16.71-19.51c7.73-5.63,14.55-11.38,23.66-13.52
						c5.27-1.24,10.46-1.51,16.15-0.87c13.86,1.56,28.64,4.21,41.14-3.18c3.21-1.9,6.48-4.1,9.02-7.16
						c8.05-9.72,16.36-20.63,28.61-26.18c10.29-4.66,20.8-6.47,30.73-5.38c11.14,1.22,23.6,6.61,35.21,10.47
						c9.66,3.21,19.15,6.38,26.47,3.64c11.65-4.36,25.15,0.49,36.3-4.33c2.6-1.13,5.75-3.62,9.36-6.01
						c22.42-14.87,49.94-40.35,77.66-44.04c0.57-0.08,1.15-0.14,1.71-0.16c22.5-1.06,43.73,19.43,66.56,10.17
						c8.01-3.25,8.64-9.4,12.45-16.28c7.63-13.78,14.96-24.36,26.54-34.79c10.89-9.8,22.83-21.14,35.14-29.52
						c7.9-5.38,16.67-11.26,25.37-13.62c17.41-4.73,36.73-2.08,54.45,5.94"/>
					<path class="st10" d="M-88.21,113.88c0,0,2.8-10.57,15.96-20.07c7.47-5.39,14.21-10.76,23.35-13.01
						c5.27-1.3,10.48-1.76,16.15-1.11c13.88,1.6,29.18,4.74,41.66-2.79c3.33-2.01,6.51-4.5,9.08-7.66c8.2-10.09,17.38-20,29.9-25.04
						c10.02-4.03,21.46-6.62,31.64-5.51c11.02,1.2,22.53,4.83,33.42,8.41c9.04,2.97,17.36,6.48,25.71,3.74
						c12.13-3.97,25.33,1.49,36.78-2.85c2.75-1.04,6.15-3.44,10-5.75c22.64-13.58,50.11-39.9,76.88-44.29
						c0.55-0.09,1.12-0.17,1.66-0.2c22.81-1.55,44.27,22.48,67.41,12.32c7.91-3.47,8.57-9.99,12.41-16.94
						c7.63-13.82,15.5-24.72,26.91-35.32c10.64-9.89,21.8-21.83,34.03-30.1c7.95-5.38,16.86-11.12,25.62-13.37
						c17.46-4.47,37.54-1.96,54.85,7.26"/>
					<path class="st10" d="M-89.32,110.73c0,0,2.48-11.21,15.23-20.45c7.21-5.22,13.88-10.4,23.07-12.94
						c5.28-1.46,10.54-2.2,16.16-1.6c13.78,1.47,29.63,5.03,42.01-2.57c3.29-2.02,6.47-4.35,9.13-7.37
						c8.68-9.88,18.49-19.26,31.35-23.8c10.95-3.87,22.36-5.65,33-5.18c10.28,0.45,21.67,3.24,32.14,6.35
						c8.57,2.55,16.1,6.23,25.06,3.44c12.07-3.76,25.34,2.19,36.68-1.57c2.85-0.95,6.48-3.26,10.53-5.48
						c13.9-7.63,27.45-16.43,40.94-24.96c10.51-6.64,22.15-17.53,34.71-19.72c0.55-0.1,1.12-0.18,1.66-0.22
						c23.07-1.74,45.04,25.54,68.32,14.58c7.73-3.64,8.57-10.63,12.39-17.58c7.62-13.86,15.91-25.07,27.12-35.87
						c10.42-10.03,20.8-22.46,33.02-30.67c8.01-5.38,17.05-10.98,25.88-13.1c17.53-4.21,38.4-1.79,55.26,8.61"/>
					<path class="st10" d="M-90.44,107.46c0,0,2.17-11.58,14.51-20.72c6.95-5.15,13.56-10.31,22.8-13.32
						c5.3-1.73,10.67-2.85,16.18-2.39c13.54,1.12,29.47,5.18,42.02-1.77c3.36-1.86,6.63-4.02,9.38-6.89
						c9.21-9.64,19.87-19.01,32.8-22.64c11.43-3.21,23.11-5.01,34.64-4.6c10.08,0.35,21.18,2.09,31.43,4.6
						c8.21,2.01,15.17,5.68,24.41,2.8c11.5-3.58,25.28,2.63,36.26-0.53c2.92-0.84,6.73-3.08,10.93-5.22
						c14.21-7.21,28.16-15.75,41.51-24.61c9.92-6.58,20.5-18.26,32.58-20.47c0.55-0.1,1.12-0.19,1.66-0.24
						c23.31-1.95,45.89,28.5,69.23,16.84c7.47-3.73,8.63-11.32,12.4-18.21c7.59-13.9,16.19-25.43,27.19-36.43
						c10.23-10.23,19.84-23.05,32.13-31.21c8.06-5.35,17.25-10.82,26.15-12.82c17.62-3.95,39.3-1.57,55.67,9.97"/>
					<path class="st10" d="M-91.55,104.18c0,0,1.83-11.81,13.78-21.03c6.7-5.17,13.26-10.48,22.55-14.14
						c5.32-2.09,10.64-3.71,15.99-3.21c13.39,1.24,29.24,5.8,42.02-0.47c3.45-1.69,6.84-3.67,9.68-6.4
						C22.7,49.1,33.51,41.59,46.65,37.32c11.17-3.64,24.37-4.77,36.4-3.92c10.3,0.73,21.04,1.53,31.32,3.35
						c7.96,1.41,14.43,4.94,23.84,1.9c10.84-3.51,25.13,2.85,35.62,0.22c2.96-0.74,6.92-2.9,11.24-4.94
						c14.36-6.79,28.67-15.07,41.71-24.3c9.55-6.76,18.63-18.82,30.54-21.17c0.55-0.11,1.11-0.2,1.66-0.26
						c23.64-2.31,46.86,31.49,70.12,19.08c7.25-3.87,8.7-11.93,12.43-18.8c7.56-13.93,16.36-25.84,27.13-37
						c10.07-10.45,18.86-23.54,31.35-31.73c8.14-5.33,17.44-10.66,26.43-12.52c17.74-3.69,40.23-1.3,56.08,11.34"/>
					<path class="st10" d="M-92.66,100.98c0,0,1.5-12.03,13.05-21.51c6.46-5.29,12.96-10.91,22.32-15.39
						c5.34-2.56,10.4-4.09,15.6-3.57c13.26,1.34,29.01,6.38,42.01,0.84c3.57-1.52,7.08-3.3,10.02-5.89
						c10.77-9.5,22.04-16.75,35.45-20.79c11.78-3.55,25.54-4.44,38.14-3.27c10.48,0.98,21.24,1.66,31.82,2.77
						c7.79,0.81,13.92,4.11,23.41,0.84c10.19-3.51,24.87,2.85,34.86,0.67c2.98-0.65,7.03-2.71,11.44-4.67
						c14.36-6.36,29-14.37,41.54-24.02c9.23-7.1,16.64-19.29,28.64-21.8c0.55-0.12,1.11-0.22,1.65-0.28
						c23.85-2.53,48.32,34.24,70.98,21.26c6.95-3.99,8.74-12.43,12.5-19.34c7.58-13.93,16.42-26.13,26.93-37.56
						c9.9-10.75,17.99-24.01,30.72-32.21c8.22-5.3,17.63-10.49,26.7-12.22c17.9-3.42,41.16-0.98,56.5,12.72"/>
					<path class="st10" d="M-93.77,97.84c0,0,1.17-12.26,12.33-22.17c6.22-5.52,12.95-12.16,22.04-16.89
						c5.18-2.69,10.09-4.15,15.13-3.6C-31.06,56.6-15.53,62-2.35,57.3c3.69-1.31,7.34-2.93,10.38-5.4
						c11.27-9.12,22.94-16.24,36.58-20.2c12.32-3.57,26.7-4.43,39.71-2.78c10.9,1.38,21.84,2.53,32.91,2.96
						c7.69,0.3,13.67,3.25,23.15-0.29c9.63-3.59,24.27,2.52,34.06,0.8c2.99-0.53,7.19-2.48,11.56-4.38
						c15.04-6.55,31.5-14.61,43.87-26.2c7.82-7.33,12.75-17.39,24.07-19.93c0.55-0.12,1.11-0.23,1.65-0.29
						c24.09-2.76,50.44,36.89,71.76,23.34c6.5-4.13,8.73-12.79,12.61-19.82c7.67-13.89,16.37-26.3,26.62-38.1
						c9.68-11.16,17.28-24.47,30.21-32.66c8.3-5.25,17.43-9.75,26.98-11.92c18.1-4.1,43.24,0.21,56.92,14.09"/>
					<path class="st10" d="M-94.89,94.74c0,0,1.09-12.49,11.62-23.02c6.63-6.63,13.51-13.63,21.63-18.29
						c4.86-2.78,9.75-4.14,14.7-3.64c13.47,1.37,28.23,7.3,41.74,3.37c3.81-1.11,7.62-2.56,10.77-4.91
						C17.3,39.52,29.3,32.39,43.1,28.37c12.76-3.72,27.73-4.76,41-2.58c11.37,1.87,22.82,4.07,34.56,4
						c7.79-0.04,13.72,2.45,23.13-1.38c9.19-3.74,23.91,2.2,33.33,0.59c2.99-0.51,7.19-2.23,11.57-4.06
						c14.79-6.15,31.2-13.92,42.7-26c7.42-7.8,11.35-17.65,22.85-20.38c0.54-0.13,1.11-0.24,1.65-0.31
						c24.21-2.98,51.72,39.18,72.4,25.25c6.35-4.28,8.87-13.04,12.85-20.18c7.72-13.86,16.28-26.24,26.19-38.62
						c9.38-11.71,16.8-24.98,29.86-33.07c8.39-5.2,17.6-9.59,27.26-11.62c18.36-3.84,44.14,0.65,57.34,15.46"/>
					<path class="st10" d="M-96,91.65c0,0,0.8-12.75,10.92-24.06c6.35-7.09,12.93-14.63,21.13-19.53c4.72-2.82,9.51-4.18,14.34-3.69
						c13.46,1.37,27.82,7.71,41.45,4.53c3.94-0.92,7.89-2.21,11.14-4.44c12.1-8.32,24.37-15.6,38.25-19.86
						c13.04-4,28.35-5.38,41.86-2.78c11.98,2.31,24.13,6.13,36.73,5.93c8.14-0.13,14.08,1.82,23.4-2.32
						c8.87-3.94,23.55,1.75,32.71,0.21c2.97-0.5,7.17-2.09,11.54-3.84c14.61-5.83,30.42-13.32,41.15-25.82
						c7.02-8.18,10.31-17.85,21.94-20.74c0.54-0.14,1.1-0.25,1.64-0.33c24.41-3.34,51.25,41.09,72.79,26.94
						c7.83-5.14,11.08-16.74,15.76-25.14c6.77-12.15,15.04-23.42,23.18-34.35c8.79-11.8,16.52-25.49,29.64-33.45
						c8.48-5.14,17.79-9.43,27.54-11.31c18.63-3.6,45.01,1.1,57.75,16.81"/>
					<path class="st10" d="M-97.12,88.58c0,0,0.61-13.04,10.22-25.27c5.92-7.52,12.41-15.49,20.58-20.6
						c4.58-2.87,9.31-4.22,14.02-3.74c13.4,1.36,27.38,8.1,41.03,5.62c4.07-0.74,8.15-1.87,11.51-4.01
						C12.65,32.66,25.15,25.03,39,20.39c13.72-4.6,28.54-6.16,42.11-3.61c12.28,2.31,25.81,8.79,39.42,8.85
						c8.69,0.04,14.78,1.46,23.99-2.99c8.69-4.19,23.24,1.24,32.27-0.31c2.95-0.5,6.99-2.12,11.46-3.72
						c14.76-5.31,29.4-13.12,39.22-25.65c6.62-8.44,9.79-18.02,21.37-21.03c0.54-0.14,1.1-0.27,1.64-0.34
						c25.09-3.65,50.93,42.5,73.17,28.54c8.06-5.05,11.48-16.88,16.19-25.41c6.71-12.15,14.85-23.56,22.53-34.72
						c8.32-12.09,16.35-25.96,29.58-33.79c8.58-5.08,18.34-9.71,27.82-11.01c18.66-2.55,45.19,0.66,58.15,18.15"/>
					<path class="st10" d="M-98.23,85.5c0.49-10.15,4.47-18.45,9.53-26.65c4.98-8.06,11.89-16.21,20-21.5
						c4.47-2.92,9.17-4.27,13.77-3.81c13.31,1.33,27.08,8.58,40.53,6.65c4.04-0.58,8.39-1.56,11.84-3.62
						c12.63-7.54,25.2-15.34,39.07-20.9c14.13-5.66,28.62-8.32,42.18-5.35c12.83,2.81,27.32,12.02,41.95,12.91
						c9.45,0.57,15.84,1.47,24.96-3.25c11.17-5.79,20.42,2.74,32.08-0.88c2.9-0.9,6.94-2.19,11.36-3.72
						c14.84-5.12,27.69-12.65,36.94-25.39c6.27-8.64,9.75-18.26,21.17-21.35c0.54-0.15,1.1-0.28,1.64-0.36
						c25.77-3.96,50.61,43.76,73.52,30.06c8.28-4.95,11.84-17.01,16.57-25.68c6.63-12.13,14.47-23.65,21.81-35.04
						c8.03-12.46,16.27-26.38,29.66-34.11c8.68-5.01,18.56-9.52,28.1-10.7c18.91-2.35,46.05,1.11,58.53,19.46"/>
					<path class="st10" d="M-99.34,82.41c0.25-10.53,3.99-19.52,8.84-28.17c4.62-8.24,11.34-16.78,19.43-22.24
						c4.41-2.97,9.07-4.32,13.59-3.89c13.25,1.28,26.64,8.89,40.05,7.66c4.04-0.37,8.5-1.31,12.03-3.31
						c12.97-7.32,25.85-15.59,39.55-22.34C48.32,3.13,62.76-0.46,76.31,2.8c13.29,3.21,28.31,15.4,43.67,17.59
						c10.49,1.49,17.29,2,26.35-2.98c11.2-6.16,20.54,2.24,32.19-1.46c2.86-0.91,6.86-2.23,11.23-3.78
						c14.5-5.13,25.98-12.27,34.66-25.04c6-8.83,9.73-18.57,21.06-21.76c0.54-0.15,1.1-0.29,1.64-0.37
						c26.4-4.27,50.29,44.89,73.84,31.46c8.49-4.84,12.18-17.14,16.91-25.93c6.52-12.11,13.97-23.7,21.06-35.3
						c7.86-12.85,16.25-26.75,29.86-34.39c8.78-4.93,18.78-9.32,28.37-10.4c19.18-2.16,46.88,1.55,58.91,20.74"/>
					<path class="st10" d="M-100.46,79.3c0.01-10.95,3.5-20.62,8.17-29.77c4.29-8.4,10.82-17.26,18.89-22.85
						c4.36-3.02,9.02-4.38,13.46-3.97c13.21,1.22,26.24,9.16,39.59,8.61c4.04-0.17,8.48-1.09,12.12-3.03
						C5.37,21.07,18.54,11.74,32.01,3.75C45.89-4.49,59.6-8.48,73.98-5.53c15.25,3.13,28.54,17.73,44.4,22.42
						c9.12,2.7,20.07,2.54,28.19-2.03c11.4-6.41,21.04,1.8,32.69-1.97c2.84-0.92,6.76-2.27,11.05-3.83
						c14.24-5.17,24.34-12.06,32.51-24.81c5.75-8.98,9.72-18.84,20.96-22.11c0.54-0.16,1.1-0.3,1.63-0.39
						c26.95-4.56,50,45.87,74.11,32.75c16.5-8.97,27.58-44.7,37.57-61.71c7.73-13.14,16.27-27.07,30.08-34.62
						c8.89-4.86,19-9.11,28.65-10.1c19.46-2,47.67,1.98,59.26,21.98"/>
					<path class="st10" d="M-101.57,76.17c-0.29-10.75,2.58-21.72,7.52-31.19c4.61-8.84,10.29-17.86,18.39-23.59
						c4.35-3.07,9.02-4.44,13.41-4.06c13.2,1.14,25.91,9.4,39.19,9.52c4.05,0.04,8.44-0.85,12.14-2.77
						C3.39,16.68,16.76,5.27,30.08-3.27c12.24-7.85,26.39-15.44,41.66-11.14c16.85,4.75,29.53,20.57,44.45,26.5
						c9.67,3.84,20.06,5.99,30.04,0.18c11.57-6.74,21.78,1.63,33.61-2.33c2.81-0.94,6.65-2.3,10.86-3.89
						c13.94-5.28,22.81-12.06,30.54-24.66c5.58-9.09,9.69-19.06,20.87-22.4c0.54-0.16,1.1-0.31,1.63-0.4
						c27.44-4.83,49.7,46.72,74.34,33.93c16.78-8.71,27.39-45.05,37.2-62.14c7.64-13.31,16.32-27.35,30.34-34.79
						c9-4.77,19.23-8.89,28.93-9.79c19.76-1.85,48.42,2.39,59.6,23.18"/>
					<path class="st10" d="M-102.68,73.01c-0.51-11.12,2.11-22.62,6.82-32.55c4.3-9.07,9.83-18.44,18-24.31
						c4.36-3.13,9.07-4.51,13.43-4.16c13.21,1.05,25.65,9.62,38.85,10.38c4.05,0.23,8.39-0.57,12.13-2.48
						C1.69,12.15,14.84-1.08,28.32-10.78C40.1-19.25,54.18-27.9,69.57-23.59c17.46,4.89,29.8,21.63,44.36,29.87
						c9.65,5.46,20.3,9.72,31.24,3.24c11.9-7.05,22.86,1.76,35.03-2.45c2.79-0.96,6.53-2.32,10.64-3.97
						c13.55-5.42,21.41-12.3,28.81-24.6c5.52-9.17,9.6-19.22,20.79-22.65c0.54-0.17,1.09-0.31,1.63-0.41
						c27.86-5.2,49.4,47.6,74.51,34.98c17.23-8.65,27.12-45.38,36.87-62.52c7.6-13.37,16.39-27.59,30.62-34.9
						c9.11-4.68,19.46-8.65,29.21-9.49c20.06-1.71,49.13,2.77,59.91,24.33"/>
					<path class="st10" d="M-103.79,69.82c-0.72-11.51,1.64-23.37,6.11-33.86c4-9.39,9.45-19.03,17.72-25.03
						c4.39-3.19,9.17-4.58,13.52-4.27c13.25,0.94,25.47,9.81,38.6,11.2c4.06,0.43,8.35-0.2,12.17-2.13
						C0.14,7.74,13.22-7.96,26.73-18.6C38.08-27.53,52.01-37,67.48-32.82c17.9,4.83,30.25,22.41,44.15,32.47
						c9.14,6.61,20,13.55,31.69,6.85c12.44-7.13,24.27,2.33,36.98-2.19c2.77-0.99,6.42-2.38,10.42-4.05
						c13.04-5.46,20.27-12.72,27.35-24.62c5.49-9.23,9.51-19.35,20.72-22.85c0.54-0.17,1.09-0.32,1.63-0.42
						c28.33-5.44,49.09,48.15,74.62,35.91c17.6-8.44,26.85-45.7,36.57-62.84c7.59-13.39,16.5-27.79,30.93-34.96
						c9.23-4.59,19.33-7.99,29.49-9.17c20.69-2.41,50.44,4.13,60.19,25.41"/>
					<path class="st10" d="M-104.9,66.61c-0.92-11.88,1.17-24.07,5.39-35.11c3.72-9.73,9.12-19.61,17.53-25.74
						c4.45-3.25,9.28-4.64,13.7-4.38c13.48,0.78,25.47,9.89,38.5,11.87c4.04,0.61,8.34,0.25,12.27-2
						c16.22-9.27,28.7-26.22,42.77-37.83c11.19-9.23,24.68-19.2,40.19-15.28c18.18,4.59,30.72,22.39,43.84,34.18
						c8.21,7.38,19.86,17.22,31.87,10.56c12.77-7.08,25.71,3.5,38.91-1.27c2.77-1,6.33-2.45,10.2-4.14
						c22.54-9.8,24.95-40.76,46.88-47.7c0.54-0.17,1.09-0.32,1.63-0.43c28.82-5.67,48.72,48.35,74.67,36.71
						c17.63-7.91,26.79-45.97,36.33-63.11c7.55-13.57,16.63-27.94,31.27-34.96c9.35-4.49,19.56-7.74,29.78-8.85
						c21.06-2.28,51.03,4.45,60.45,26.44"/>
					<path class="st10" d="M-106.01,63.39c-1.16-12.59,1.05-24.62,4.66-36.29c3.08-9.96,8.86-20.19,17.44-26.45
						c4.54-3.31,9.39-4.6,13.9-4.58C-56.16-3.89-44.28,5.45-31.35,8c4.01,0.79,8.45,0.47,12.33-1.91
						c16.3-9.98,28.64-28.28,42.9-40.61c10.9-9.42,24.07-19.45,39.58-15.9c18.39,4.21,31.1,22.16,43.46,34.91
						c7.7,7.94,19.48,20.62,32.05,14.27c13.1-6.62,26.62,5.4,40.51,0.24c2.77-1.03,6.23-2.5,9.98-4.22
						c21.88-10.08,24.39-41.01,46.06-47.95c0.54-0.17,1.09-0.33,1.63-0.43c29.23-5.85,48.39,48.37,74.66,37.38
						c17.58-7.36,26.79-46.23,36.13-63.32c7.52-13.76,16.79-28.06,31.62-34.92c9.47-4.38,19.76-7.46,30.08-8.5
						c21.5-2.17,51.57,4.73,60.66,27.38"/>
					<path class="st10" d="M-107.12,60.15c-1.37-12.88,0.58-25.35,3.95-37.42c2.86-10.25,8.65-20.77,17.43-27.15
						c4.65-3.38,9.52-4.82,14.13-5.09c14.1-0.84,26.09,8.63,38.94,11.66c3.98,0.94,8.48,0.66,12.39-1.84
						c16.39-10.48,28.44-29.85,42.81-42.6c10.69-9.48,23.45-19.08,38.93-16c18.64,3.7,31.22,21.17,43.06,34.59
						c7.4,8.39,19.12,23.61,32.22,17.84c13.64-6,26.81,7.91,41.71,2.31c2.78-1.04,6.15-2.53,9.76-4.3
						c21.29-10.42,24.25-41.3,45.66-48.19c0.54-0.17,1.09-0.33,1.63-0.44c29.52-5.96,48.12,48.28,74.59,37.94
						c17.46-6.82,26.85-46.46,35.99-63.47c7.5-13.95,16.98-28.14,32-34.83c9.6-4.27,19.96-7.16,30.39-8.13
						c21.97-2.04,52.06,4.94,60.84,28.23"/>
					<path class="st10" d="M-108.23,56.92c-1.56-13.18-0.27-26.74,3.24-38.5c3.08-10.34,7.86-20.84,17.41-27.79
						c4.64-3.38,9.72-5.32,14.43-5.89C-58.85-17-46.59-7.71-33.8-4.14c3.97,1.11,8.5,0.81,12.46-1.79
						c16.42-10.78,28.08-30.94,42.51-43.8c10.55-9.41,22.85-18.01,38.27-15.51c18.85,3.06,31.19,19.33,42.69,33.16
						c7.31,8.8,18.87,26.05,32.38,21.13c14.51-5.28,26.26,11.03,42.48,4.86c2.78-1.06,6.06-2.54,9.58-4.27
						c21.38-10.46,24.23-41.59,45.7-48.52c0.54-0.17,1.09-0.33,1.63-0.44c29.72-6.02,47.94,48.06,74.46,38.37
						c17.26-6.31,26.95-46.64,35.9-63.56c7.48-14.14,17.19-28.19,32.4-34.69c9.73-4.16,20.17-6.86,30.71-7.75
						c22.39-1.9,52.5,5.09,60.98,29.01"/>
					<path class="st10" d="M-109.33,53.7c-3-22.64,0.46-53.28,19.9-68.04c25.05-19.02,47.23,14.42,67.18,1.85
						C3.48-28.7,19.39-75.76,57.33-71c18.77,2.36,30.3,16.18,41.73,29.75c7.98,9.47,19.3,28.94,33.18,24.83
						c8.81-2.61,13.03,3.34,20.62,6.01c12.28,4.31,19.8,4.1,31.93-2.27c20.66-10.85,24.6-42.35,45.88-48.94
						c30.38-9.41,48.66,47.65,75.88,38.23c14.43-4.99,19.97-32.12,26.51-45.7c9.48-19.7,21.04-44.48,42.2-52.37
						c27.51-10.26,79.68-15,92.11,22.36"/>
				</g>
			</g>
		</g>
	</g>
</g>
</svg>
