<?xml version="1.0" encoding="utf-8"?>
<!-- Generator: Adobe Illustrator 26.0.1, SVG Export Plug-In . SVG Version: 6.00 Build 0)  -->
<svg version="1.1" xmlns="http://www.w3.org/2000/svg" xmlns:xlink="http://www.w3.org/1999/xlink" x="0px" y="0px"
	 viewBox="0 0 500 500" style="enable-background:new 0 0 500 500;" xml:space="preserve">
<style type="text/css">
	.st0{opacity:0.7;fill:#FFFFFF;}
	.st1{fill:#00D7D7;}
	.st2{fill:none;stroke:#263238;stroke-linecap:round;stroke-linejoin:round;stroke-miterlimit:10;}
	.st3{fill:#FFFFFF;}
	.st4{opacity:0.6;fill:#00D7D7;}
	.st5{opacity:0.4;clip-path:url(#XMLID_00000093885472290132408480000018068340489680312463_);fill:#00D7D7;}
	.st6{opacity:0.4;clip-path:url(#XMLID_00000109707765742455524910000005785285209253253794_);fill:#00D7D7;}
	.st7{opacity:0.4;clip-path:url(#XMLID_00000083792835075010071620000017011717424471554199_);fill:#00D7D7;}
	.st8{fill:#FFFFFF;stroke:#263238;stroke-linecap:round;stroke-linejoin:round;stroke-miterlimit:10;}
	.st9{fill:#999999;stroke:#263238;stroke-linecap:round;stroke-linejoin:round;stroke-miterlimit:10;}
	.st10{fill:#263238;}
	.st11{fill:#BFBFBF;stroke:#263238;stroke-miterlimit:10;}
	.st12{opacity:0.15;fill:#00D7D7;}
	.st13{opacity:0.3;fill:#00D7D7;}
	.st14{opacity:0.5;fill:#00D7D7;}
	.st15{opacity:0.7;}
	.st16{fill:none;stroke:#263238;stroke-miterlimit:10;}
	.st17{fill:none;}
	.st18{opacity:0.4;fill:#00D7D7;}
</style>
<g id="Background_Simple">
	<g>
		<path class="st0" d="M67.93,167.09c0,0-27.88,71.99,11.3,144.5c39.17,72.52,119.88,110.8,184.47,143.55
			c64.59,32.75,131.66,16.8,163.53-36.84c31.87-53.64-11.85-91.93-11.9-168.42c-0.05-76.49,11.45-96.74-29.96-161.36
			c-41.41-64.62-143.06-78.93-219.9-31C88.63,105.45,67.93,167.09,67.93,167.09z"/>
	</g>
	<g>
		<path class="st1" d="M233.27,45C357.3,33.96,357.51,103.94,413.4,169.13c55.89,65.2,67.85,94.75,46.78,169.91
			c-21.07,75.15-92.06,134.07-179.89,100.69c-87.83-33.38-138.14-1.32-193.54-30.97c-55.4-29.64-75.97-86.91-35.42-154.41
			S80.32,58.62,233.27,45z"/>
	</g>
</g>
<g id="World">
	<g>
		<g>
			<path class="st2" d="M305.8,188.32c-1.39,2.64-2.94,5.14-4.63,7.48c-9.11,12.67-22.33,21.14-36.81,24.53
				c-7.18,1.68-14.68,2.12-22.15,1.19c-7.36-0.91-14.68-3.15-21.63-6.81c-1.39-0.73-2.74-1.51-4.05-2.33
				c-1.31-0.81-2.57-1.66-3.79-2.56c-1.48-1.07-2.9-2.21-4.26-3.4c-0.01,0-0.01-0.01-0.02-0.02c-0.08-0.07-0.17-0.14-0.24-0.22
				c-0.02-0.02-0.03-0.02-0.03-0.02c-8-7.06-13.91-15.91-17.45-25.62c-1.45-3.98-2.51-8.11-3.13-12.33
				c-1.93-12.83,0.08-26.37,6.59-38.72c9.63-18.28,26.97-29.86,45.9-32.88c13-2.08,26.78-0.12,39.32,6.5
				c11.85,6.25,20.9,15.74,26.61,26.82C315.17,147.61,315.8,169.35,305.8,188.32z"/>
			<path class="st2" d="M306.02,129.92c-0.68,0.6-1.78,0.79-3.52,0.25c-6.25-1.93-9.5,5.09-8.4,5.17c1.1,0.07,1.86,3.24-0.38,4.76
				c-2.25,1.53-7.5,1.02-7.15,2.57c0.35,1.56,2.92,5.47,2.92,5.47s2.3-1.08,2.96,0.27c0.65,1.35,1.39,5-0.3,5.66
				c-1.68,0.67-1.32,2.5-1.32,2.5l-5.06-0.3c-0.81,3.73-0.81,3.73-0.81,3.73l-3.1,2.6l-1.67-0.88c0,0-1.46-3.81-2.87-1.51
				c-1.4,2.29-1.4,2.29-1.4,2.29l-0.9,2.06c0,0,3.63,0.81,4.54,2.39c0.9,1.58,0.9,1.58,0.9,1.58l7.88,2.22l0.62,2.26l1.46,0.77
				l0.37,3.94l2.94,1.54l2.94,0.23l3.59-4.97c0,0,1.55,3.06,1.9,4.34c0.35,1.29-0.67,4.5-0.67,4.5s-1.13,2.21-2.56,2.96
				c-1.43,0.74-3.17-1.23-3.05,1.18c0.12,2.41,0.12,2.41,0.12,2.41l-0.36,2.67l2.21,1.17l2.1,1.11l1.22,0.96"/>
			<path class="st2" d="M187.61,168.21l0.88,0.17l3.97-4.42l3.6-1.46c0,0,1.52,0.8,2.58,1.36c1.07,0.56,2.14-2.12,2.14-2.12
				s0,0-0.69-0.63c-0.69-0.63,0.31-4.34,0.31-4.34s4.37,0.61,5.96,0.42c1.58-0.19,2.33-0.13,3.04-1.47c0.7-1.33,0.17-1.62,0.17-1.62
				s1.16-3.48,1.16-5.21c0.01-1.73,2.58,1.36,2.58,1.36l1.26-2.39l2.83-2.24l3.68-2.56c0,0,5.35-1.54,5.77-0.38
				c0.41,1.15,2.58,2.1,2.58,2.1l-0.92,1.75c0,0-1.18,3.64-2.32,4.41c-1.15,0.76,0.46,6.34,0.46,6.34s-2.08,2-2.78,3.33
				c-0.7,1.33-1.38,1.32-1.38,1.32l-3.49-0.48c0,0-3.99-2.78-5.32-3.49c0,0-2.34,2.51-2.11,4c0.24,1.49-0.82,1.56-0.82,1.56
				l3.69,3.35l0.6,2.1l2.19,2.95l-0.71,1.35l-1.34,2.54l0.59,2.77l2.39,3.21l1.34,2.92l1.46,4.72l0.47,2.61l4.3,1.93l1.9-1.02l3.7-2
				l1.75,3.48l0.69,1.75l-3.08,2.79l1.09,2.27l0.36,2.57l-0.31,3.44l-0.63,2.2l2.57,1.35l4.56-0.66l-0.16-3.49
				c0,0,2.81-1.66,4.75-2.22c1.94-0.55,1.75-0.52,4.14-1.25c2.39-0.75,1.65-0.54,2.8-0.92c1.14-0.38,2.27-0.84,2.27-0.84l0.08-3.63
				l1.89-6.58c0,0,0,0,1.17,0.77c1.17,0.78,2.9-2.04,2.9-2.04l0.82-5.01l-2.31-1.22c0,0-2.15-0.45-4.17-0.49l-3.3-1.74l-2.75-4.86
				c0,0-1.33-1.38-2.29-3.25l1.27-2.4l1.56-2.96l1.63,0.86l1.5,0.79l1.59,0.84l2.6-1.69l1.45-4.06c0,0,0.66-0.6,1.96-1.77
				c1.3-1.18,2.21,0.98,2.21,0.98s0,0,2.14-2.69c2.15-2.68,0.37-1.44-0.73-2.82c-1.1-1.38-2.31-1.22-2.31-1.22l-3.91-4.67
				l-3.07,1.11c0,0,0,0-0.44,1.47c-0.43,1.48,0,0-4.51-1.77l-1.49-4.31l0.89-1.04l0.22-4.02c0,0-2.6-1.27-4.56-2.33
				c-1.97-1.07-2.42-3.77-2.42-3.77c-0.26-1.76,0.89-4.31,0.89-4.31l-1.04-2.84l-3.69-7.21l0.63-3.25l2.14-1.35l0.85-4.32
				l-3.86-3.66l1.55-2.94l1.1-2.09l1.29-2.44l0.96-4.95c0,0-0.24-0.91-0.48-1.94"/>
			<path class="st2" d="M208.48,206.42c-0.1-0.12-0.21-0.21-0.26-0.24c-0.02-0.02-0.03-0.02-0.03-0.02l1.12-2.12l-0.45-3.96
				l-1.47-0.77c0,0,1.79-1.78,1.68-3.2c-0.11-1.43,1.13-2.14,1.13-2.14l-0.48-2.64c0,0,0,0-0.8-0.42s-0.31-2.64-0.31-2.64
				l-3.42,0.67c0,0,0,0-0.93,3.6l-3.48,0.89c0,0-1.73-1.25-1.67-2.92c0.06-1.67,0.7-1.33,0.7-1.33l3.22-0.01l2-3.8l-0.4-1.82
				l-1.45-0.76"/>
			<path class="st2" d="M203.16,182.77l0.01,0.01c0.16,0.09-0.87-4.55-0.87-4.55s-1.28-3.4-2.68-3.97c-1.4-0.57-4.56,1.54-4.56,1.54
				l-3.53,0.5l-0.8,4.24"/>
			<path class="st2" d="M217.37,209.79l-0.84,2.58c-1.31-0.81-2.57-1.66-3.79-2.56l3.95-3.91l-0.33-4.27c0,0-0.73-1.58,0.67-1.27
				s2.35-0.21,3.18-1.13c0.82-0.93,0.72-1.33,2.84-0.21c2.13,1.12,2.26,1.87,2.57,2.72c0.31,0.85-3.65,6.93-3.65,6.93l1.4,0.74
				c0,0-0.82,1.9,0.57,2.32L217.37,209.79z"/>
			<path class="st2" d="M264.36,220.33c-7.18,1.68-14.68,2.12-22.15,1.19l0.77-2.78c0,0-0.72-1.21,2.21-0.95
				c2.93,0.25,5.16,0.56,5.16,0.56l2.33-4.42l4.09,0l1.33,0.7l1.15,1.68l2.48,2.4C261.74,218.72,263.18,219.49,264.36,220.33z"/>
			<path class="st2" d="M262.32,178.17l2.45-0.78l2.15,2.17c0,0,4.25,0.55,2.6,2.4c-1.66,1.85-4.83,1.83-4.83,1.83l-1.15,2.18
				l-2.02-2.43l-1.02-1.95l0.76-1.44L262.32,178.17z"/>
			<path class="st2" d="M265.86,168.88c0,0-0.93,1.12-1.08,2.06c-0.16,0.94-0.16,0.94-0.16,0.94l-4-2.11l2.17-4.13L265.86,168.88z"
				/>
		</g>
		<g>
			<path class="st2" d="M399.44,82.04c0,3.82-3.1,6.92-6.92,6.92c-3.82,0-6.92-3.1-6.92-6.92c0-3.82,3.1-6.92,6.92-6.92
				C396.34,75.12,399.44,78.22,399.44,82.04z"/>
			<path class="st2" d="M360.29,191.04c0,2.41-1.96,4.37-4.37,4.37c-2.41,0-4.37-1.96-4.37-4.37c0-2.41,1.96-4.37,4.37-4.37
				C358.33,186.66,360.29,188.62,360.29,191.04z"/>
			<path class="st2" d="M234.75,52.52c0,2.41-1.96,4.37-4.37,4.37c-2.41,0-4.37-1.96-4.37-4.37c0-2.41,1.96-4.37,4.37-4.37
				C232.79,48.15,234.75,50.1,234.75,52.52z"/>
			<circle class="st2" cx="462.47" cy="184.55" r="10.86"/>
			<circle class="st2" cx="89.03" cy="76.7" r="6.69"/>
			<circle class="st2" cx="54.29" cy="211.9" r="11.68"/>
			<circle class="st2" cx="157.99" cy="132.27" r="3.37"/>
			<path class="st2" d="M233.93,82.11c0.27,2.28,0.55,4.57,0.82,6.85"/>
			<path class="st2" d="M231.38,60.86c0.69,5.71,1.37,11.42,2.06,17.14"/>
			<path class="st2" d="M318.8,118.71c-1.85,0.83-3.7,1.65-5.57,2.45"/>
			<path class="st2" d="M357.5,99.44c-11.2,5.79-22.36,11.67-33.78,17.01"/>
			<path class="st2" d="M374.14,91.01c-4.19,2.06-8.35,4.17-12.5,6.3"/>
			<path class="st2" d="M381.68,87.39c-1.16,0.54-2.33,1.1-3.48,1.65"/>
			<path class="st2" d="M331.88,170.25c-4.11-0.49-8.23-0.98-12.34-1.49"/>
			<path class="st2" d="M391.62,176.92c-18.31-2.01-36.63-4.05-54.93-6.11"/>
			<path class="st2" d="M447.03,182.84c-16.88-1.75-33.76-3.56-50.63-5.4"/>
			<path class="st2" d="M338.59,184.99c-7.4-2.3-15.02-4-22.21-6.94"/>
			<path class="st2" d="M348.39,188.56c-1.68-0.74-3.39-1.4-5.12-2.02"/>
			<path class="st2" d="M165.03,134.16c6.46,1.73,12.91,3.46,19.37,5.19"/>
			<path class="st2" d="M156.08,112.24c10.39,5.78,20.83,11.47,31.53,16.66"/>
			<path class="st2" d="M108.58,86.74c14.82,7.17,29.15,15.26,43.52,23.29"/>
			<path class="st2" d="M100.12,82.58c1.21,0.58,2.42,1.17,3.63,1.77"/>
			<path class="st2" d="M177.33,185.47c1.58-0.36,3.17-0.73,4.75-1.1"/>
			<path class="st2" d="M101.97,201.52c23.49-5.2,46.98-10.43,70.61-14.97"/>
			<path class="st2" d="M70.73,208.35c9.06-1.95,18.12-3.94,27.17-5.94"/>
		</g>
	</g>
</g>
<g id="Books">
	<g>
		<g>
			<g>
				<path class="st3" d="M457.34,293.24v-2.63h-45.63h-17.44h-78.22c-2.66,0-5.08,1.08-6.83,2.83c-1.75,1.75-2.83,4.17-2.83,6.83
					c0,5.33,4.33,9.66,9.66,9.66h78.22h17.44h45.63v-2.63h-3.39v-14.05H457.34z"/>
				<path class="st4" d="M394.17,293.24h17.55h42.24h3.39v-2.63h-45.63h-17.44h-78.22c-2.66,0-5.08,1.08-6.83,2.83
					c-1.75,1.75-2.83,4.17-2.83,6.83c0,5.33,4.33,9.66,9.66,9.66h78.22h17.44h45.63v-2.63h-3.39h-42.24h-17.55
					c-3.89,0-7.03-3.14-7.03-7.03c0-1.94,0.78-3.7,2.06-4.97C390.46,294.02,392.22,293.24,394.17,293.24z"/>
				<path class="st4" d="M389.2,295.3c-1.28,1.26-2.06,3.02-2.06,4.97c0,3.89,3.14,7.03,7.03,7.03h63.18v2.63h-63.07
					c-5.33,0-9.66-4.33-9.66-9.66c0-2.66,1.08-5.08,2.83-6.83c1.75-1.75,4.17-2.83,6.83-2.83h63.07v2.63h-63.18
					C392.22,293.24,390.46,294.02,389.2,295.3z"/>
				<path class="st2" d="M389.2,295.3c-1.28,1.26-2.06,3.02-2.06,4.97c0,3.89,3.14,7.03,7.03,7.03h63.18v2.63h-63.07
					c-5.33,0-9.66-4.33-9.66-9.66c0-2.66,1.08-5.08,2.83-6.83c1.75-1.75,4.17-2.83,6.83-2.83h63.07v2.63h-63.18
					C392.22,293.24,390.46,294.02,389.2,295.3z"/>
				<line class="st2" x1="453.95" y1="293.24" x2="453.95" y2="307.29"/>
				<line class="st2" x1="453.95" y1="295.79" x2="420.86" y2="295.79"/>
				<line class="st2" x1="418.11" y1="295.79" x2="414.67" y2="295.79"/>
				<line class="st2" x1="398.83" y1="300.26" x2="429.11" y2="300.26"/>
				<line class="st2" x1="432.89" y1="300.26" x2="441.03" y2="300.26"/>
				<line class="st2" x1="443.41" y1="300.26" x2="453.95" y2="300.26"/>
				<line class="st2" x1="450.3" y1="304.2" x2="439.08" y2="304.2"/>
				<line class="st2" x1="407.45" y1="304.2" x2="405.21" y2="304.2"/>
				<path class="st2" d="M390.59,294.22c0,0,2.92,2.8,2.92,6.05s-2.92,6.04-2.92,6.04"/>
				<path class="st2" d="M411.71,309.92h-95.67c-5.33,0-9.66-4.33-9.66-9.66c0-2.66,1.08-5.08,2.83-6.83
					c1.75-1.75,4.17-2.83,6.83-2.83h95.67"/>
			</g>
			<g>
				<path class="st3" d="M319.42,326.85v2.63h97.78h17.44h26.07c2.66,0,5.08-1.08,6.83-2.83c1.75-1.75,2.83-4.17,2.83-6.83
					c0-5.33-4.33-9.66-9.66-9.66h-26.07H417.2h-97.78v2.63h3.39v14.05H319.42z"/>
				<path class="st4" d="M434.75,326.85H417.2h-94.38h-3.39v2.63h97.78h17.44h26.07c2.66,0,5.08-1.08,6.83-2.83
					c1.75-1.75,2.83-4.17,2.83-6.83c0-5.33-4.33-9.66-9.66-9.66h-26.07H417.2h-97.78v2.63h3.39h94.38h17.55
					c3.88,0,7.03,3.14,7.03,7.03c0,1.94-0.78,3.7-2.06,4.97C438.45,326.06,436.69,326.85,434.75,326.85z"/>
				<path class="st1" d="M460.72,310.16h-26.07c5.33,0,9.66,4.33,9.66,9.66c0,2.66-1.08,5.08-2.83,6.83
					c-1.75,1.75-4.17,2.83-6.83,2.83h26.07c2.66,0,5.08-1.08,6.83-2.83c1.75-1.75,2.83-4.17,2.83-6.83
					C470.38,314.49,466.05,310.16,460.72,310.16z"/>
				<g>
					<path class="st2" d="M439.72,324.79c1.28-1.26,2.06-3.02,2.06-4.97c0-3.89-3.14-7.03-7.03-7.03H319.42v-2.63h115.22
						c5.33,0,9.66,4.33,9.66,9.66c0,2.66-1.08,5.08-2.83,6.83c-1.75,1.75-4.17,2.83-6.83,2.83H319.42v-2.63h115.33
						C436.69,326.85,438.45,326.06,439.72,324.79z"/>
					<line class="st2" x1="322.82" y1="326.85" x2="322.82" y2="312.79"/>
					<line class="st2" x1="322.82" y1="324.29" x2="408.06" y2="324.29"/>
					<line class="st2" x1="410.81" y1="324.29" x2="414.24" y2="324.29"/>
					<line class="st2" x1="430.09" y1="319.82" x2="386.77" y2="319.82"/>
					<line class="st2" x1="382.98" y1="319.82" x2="374.85" y2="319.82"/>
					<line class="st2" x1="372.47" y1="319.82" x2="322.82" y2="319.82"/>
					<line class="st2" x1="326.47" y1="315.88" x2="376.8" y2="315.88"/>
					<line class="st2" x1="421.46" y1="315.88" x2="423.7" y2="315.88"/>
					<path class="st2" d="M438.33,325.87c0,0-2.92-2.8-2.92-6.05c0-3.25,2.92-6.04,2.92-6.04"/>
					<path class="st2" d="M417.2,310.16h43.52c5.33,0,9.66,4.33,9.66,9.66c0,2.66-1.08,5.08-2.83,6.83
						c-1.75,1.75-4.17,2.83-6.83,2.83H417.2"/>
				</g>
			</g>
			<g>
				<path class="st3" d="M469.08,332.35v-2.63h-71.7h-17.44h-78.22c-2.66,0-5.08,1.08-6.83,2.83c-1.75,1.75-2.83,4.17-2.83,6.83
					c0,5.33,4.33,9.66,9.66,9.66h78.22h17.44h71.7v-2.63h-3.39v-14.05H469.08z"/>
				<path class="st4" d="M379.82,332.35h17.55h68.31h3.39v-2.63h-71.7h-17.44h-78.22c-2.66,0-5.08,1.08-6.83,2.83
					c-1.75,1.75-2.83,4.17-2.83,6.83c0,5.33,4.33,9.66,9.66,9.66h78.22h17.44h71.7v-2.63h-3.39h-68.31h-17.55
					c-3.88,0-7.03-3.14-7.03-7.03c0-1.94,0.78-3.7,2.06-4.97C376.12,333.13,377.88,332.35,379.82,332.35z"/>
				<path class="st4" d="M374.86,334.41c-1.28,1.26-2.06,3.02-2.06,4.97c0,3.89,3.14,7.03,7.03,7.03h89.25v2.63h-89.15
					c-5.33,0-9.66-4.33-9.66-9.66c0-2.66,1.08-5.08,2.83-6.83c1.75-1.75,4.17-2.83,6.83-2.83h89.15v2.63h-89.25
					C377.88,332.35,376.12,333.13,374.86,334.41z"/>
				<path class="st2" d="M374.86,334.41c-1.28,1.26-2.06,3.02-2.06,4.97c0,3.89,3.14,7.03,7.03,7.03h89.25v2.63h-89.15
					c-5.33,0-9.66-4.33-9.66-9.66c0-2.66,1.08-5.08,2.83-6.83c1.75-1.75,4.17-2.83,6.83-2.83h89.15v2.63h-89.25
					C377.88,332.35,376.12,333.13,374.86,334.41z"/>
				<line class="st2" x1="465.68" y1="332.35" x2="465.68" y2="346.4"/>
				<line class="st2" x1="465.68" y1="334.9" x2="406.52" y2="334.9"/>
				<line class="st2" x1="403.77" y1="334.9" x2="400.33" y2="334.9"/>
				<line class="st2" x1="384.48" y1="339.37" x2="414.77" y2="339.37"/>
				<line class="st2" x1="418.55" y1="339.37" x2="439.72" y2="339.37"/>
				<line class="st2" x1="442.11" y1="339.37" x2="465.68" y2="339.37"/>
				<line class="st2" x1="462.03" y1="343.31" x2="437.78" y2="343.31"/>
				<line class="st2" x1="393.11" y1="343.31" x2="390.87" y2="343.31"/>
				<path class="st2" d="M376.25,333.33c0,0,2.92,2.8,2.92,6.05s-2.92,6.04-2.92,6.04"/>
				<path class="st2" d="M397.37,349.04h-95.67c-5.33,0-9.66-4.33-9.66-9.66c0-2.66,1.08-5.08,2.83-6.83
					c1.75-1.75,4.17-2.83,6.83-2.83h95.67"/>
			</g>
		</g>
		<g>
			<g>
				<defs>
					<path id="XMLID_504_" d="M50.41,309.94c0,0-13.85-2.04-14.55,6.17c-0.7,8.21,9.04,26.87,23.06,24.23v-4.75
						c0,0-13.67,2.58-17.35-14.98c-2.04-9.72,10.96-4.5,10.96-4.5L50.41,309.94z"/>
				</defs>
				<use xlink:href="#XMLID_504_"  style="overflow:visible;fill:#FFFFFF;"/>
				<clipPath id="XMLID_00000090985984519895521190000012146892953543994782_">
					<use xlink:href="#XMLID_504_"  style="overflow:visible;"/>
				</clipPath>
				<path style="opacity:0.4;clip-path:url(#XMLID_00000090985984519895521190000012146892953543994782_);fill:#00D7D7;" d="
					M50.41,309.94c0,0-13.85-2.04-14.55,6.17c-0.7,8.21,9.04,26.87,23.06,24.23v-4.75c0,0-13.67,2.58-17.35-14.98
					c-2.04-9.72,10.96-4.5,10.96-4.5L50.41,309.94z"/>
				
					<use xlink:href="#XMLID_504_"  style="overflow:visible;fill:none;stroke:#263238;stroke-linecap:round;stroke-linejoin:round;stroke-miterlimit:10;"/>
			</g>
			<g>
				<defs>
					<path id="XMLID_503_" d="M91.66,340.34v0.02c-3.93,3.22-9.24,5.32-16.38,5.32c-30.97,0-27.47-39.68-27.47-39.68h54.93
						C102.75,306.01,104.83,329.52,91.66,340.34z"/>
				</defs>
				<use xlink:href="#XMLID_503_"  style="overflow:visible;fill:#FFFFFF;"/>
				<clipPath id="XMLID_00000134251421927277280080000002395370404354487708_">
					<use xlink:href="#XMLID_503_"  style="overflow:visible;"/>
				</clipPath>
				<path style="opacity:0.4;clip-path:url(#XMLID_00000134251421927277280080000002395370404354487708_);fill:#00D7D7;" d="
					M91.66,340.34v0.02c-3.93,3.22-9.24,5.32-16.38,5.32c-30.97,0-27.47-39.68-27.47-39.68h10.09c0,0,1.17,17.44,7.51,25.9
					C71.74,340.33,91.5,340.34,91.66,340.34z"/>
				
					<use xlink:href="#XMLID_503_"  style="overflow:visible;fill:none;stroke:#263238;stroke-linecap:round;stroke-linejoin:round;stroke-miterlimit:10;"/>
			</g>
			<g>
				<g>
					<defs>
						<polygon id="XMLID_502_" points="98.32,349.04 49.17,349.04 37.04,344.47 110.45,344.47 						"/>
					</defs>
					<use xlink:href="#XMLID_502_"  style="overflow:visible;fill:#FFFFFF;"/>
					<clipPath id="XMLID_00000135668514660360810580000016399749468188507066_">
						<use xlink:href="#XMLID_502_"  style="overflow:visible;"/>
					</clipPath>
					
						<polygon style="opacity:0.4;clip-path:url(#XMLID_00000135668514660360810580000016399749468188507066_);fill:#00D7D7;" points="
						98.32,349.04 49.17,349.04 37.04,344.47 110.45,344.47 					"/>
					
						<use xlink:href="#XMLID_502_"  style="overflow:visible;fill:none;stroke:#263238;stroke-linecap:round;stroke-linejoin:round;stroke-miterlimit:10;"/>
				</g>
				<path class="st8" d="M113.82,345.31H33.67c-0.57,0-1.03-0.46-1.03-1.03v-1.61c0-0.57,0.46-1.03,1.03-1.03h80.15
					c0.57,0,1.03,0.46,1.03,1.03v1.61C114.86,344.85,114.39,345.31,113.82,345.31z"/>
			</g>
			<path class="st2" d="M73.16,261.18c-12.77,10.8,9.25,28.17,0,35.44c0,0,9.06-3.52,3.42-15.49
				C70.95,269.16,73.16,261.18,73.16,261.18z"/>
		</g>
		<line class="st2" x1="18.56" y1="349.6" x2="479.04" y2="349.6"/>
	</g>
</g>
<g id="Device">
	<g>
		<path class="st9" d="M395.64,385.24c-73.21,0-219.63,0-291.29,0c-9.83,0-39.11-4.15-39.11-4.15h369.51
			C434.76,381.09,405.48,385.24,395.64,385.24z"/>
		<path class="st10" d="M395.64,370.4H104.36V196.52c0-2,1.62-3.62,3.62-3.62h284.05c2,0,3.62,1.62,3.62,3.62V370.4z"/>
		<path class="st11" d="M434.76,381.09H65.24c-1.38,0-1.59-1.99-0.24-2.28l39.35-8.41h291.29l39.35,8.41
			C436.35,379.1,436.14,381.09,434.76,381.09z"/>
		<rect x="107.58" y="200.69" class="st8" width="284.84" height="157.85"/>
		<path class="st3" d="M256.29,365.4h-12.57c-0.8,0-1.45-0.65-1.45-1.45l0,0c0-0.8,0.65-1.45,1.45-1.45h12.57
			c0.8,0,1.45,0.65,1.45,1.45l0,0C257.74,364.75,257.09,365.4,256.29,365.4z"/>
		<path class="st3" d="M252.08,196.61c0,1.15-0.93,2.08-2.08,2.08c-1.15,0-2.08-0.93-2.08-2.08c0-1.15,0.93-2.08,2.08-2.08
			C251.15,194.54,252.08,195.47,252.08,196.61z"/>
		<polygon class="st2" points="411.84,375.74 88.16,375.74 105.16,371.74 394.84,371.74 		"/>
		<g>
			<path class="st12" d="M286.78,201.87c0,0-65.52,88.81-176.96,76.75v-76.75H286.78z"/>
			<path class="st13" d="M109.82,340.97c0,0,17.31-43.85,108.43-57.69c91.12-13.85,162.44-50.34,171.92-71.7V355H109.82V340.97z"/>
			<rect x="109.82" y="201.87" class="st14" width="280.35" height="5.44"/>
			<g>
				<line class="st2" x1="109.82" y1="207.31" x2="390.18" y2="207.31"/>
				<line class="st2" x1="113.67" y1="204.46" x2="121.8" y2="204.46"/>
				<line class="st2" x1="130.69" y1="204.46" x2="138.01" y2="204.46"/>
				<line class="st2" x1="147.49" y1="204.46" x2="154.62" y2="204.46"/>
			</g>
			<g class="st15">
				<path class="st1" d="M156.39,339.35h-9.02c-1.22,0-2.22,1-2.22,2.22v9.02c0,1.22,1,2.22,2.22,2.22h9.02c1.22,0,2.22-1,2.22-2.22
					v-9.02C158.61,340.35,157.61,339.35,156.39,339.35z"/>
				<path class="st1" d="M176.01,339.35H167c-1.22,0-2.22,1-2.22,2.22v9.02c0,1.22,1,2.22,2.22,2.22h9.02c1.22,0,2.22-1,2.22-2.22
					v-9.02C178.23,340.35,177.23,339.35,176.01,339.35z"/>
				<path class="st1" d="M195.64,339.35h-9.02c-1.22,0-2.22,1-2.22,2.22v9.02c0,1.22,1,2.22,2.22,2.22h9.02c1.22,0,2.22-1,2.22-2.22
					v-9.02C197.85,340.35,196.86,339.35,195.64,339.35z"/>
				<path class="st1" d="M215.26,339.35h-9.02c-1.22,0-2.22,1-2.22,2.22v9.02c0,1.22,1,2.22,2.22,2.22h9.02c1.22,0,2.22-1,2.22-2.22
					v-9.02C217.48,340.35,216.48,339.35,215.26,339.35z"/>
				<path class="st1" d="M234.88,339.35h-9.02c-1.22,0-2.22,1-2.22,2.22v9.02c0,1.22,1,2.22,2.22,2.22h9.02c1.22,0,2.22-1,2.22-2.22
					v-9.02C237.1,340.35,236.1,339.35,234.88,339.35z"/>
				<path class="st1" d="M254.51,339.35h-9.02c-1.22,0-2.22,1-2.22,2.22v9.02c0,1.22,1,2.22,2.22,2.22h9.02c1.22,0,2.22-1,2.22-2.22
					v-9.02C256.73,340.35,255.73,339.35,254.51,339.35z"/>
				<path class="st1" d="M274.13,339.35h-9.02c-1.22,0-2.22,1-2.22,2.22v9.02c0,1.22,1,2.22,2.22,2.22h9.02c1.22,0,2.22-1,2.22-2.22
					v-9.02C276.35,340.35,275.35,339.35,274.13,339.35z"/>
				<path class="st1" d="M293.76,339.35h-9.02c-1.22,0-2.22,1-2.22,2.22v9.02c0,1.22,1,2.22,2.22,2.22h9.02c1.22,0,2.22-1,2.22-2.22
					v-9.02C295.97,340.35,294.98,339.35,293.76,339.35z"/>
				<path class="st1" d="M313.38,339.35h-9.02c-1.22,0-2.22,1-2.22,2.22v9.02c0,1.22,1,2.22,2.22,2.22h9.02c1.22,0,2.22-1,2.22-2.22
					v-9.02C315.6,340.35,314.6,339.35,313.38,339.35z"/>
				<path class="st1" d="M333,339.35h-9.02c-1.22,0-2.22,1-2.22,2.22v9.02c0,1.22,1,2.22,2.22,2.22H333c1.22,0,2.22-1,2.22-2.22
					v-9.02C335.22,340.35,334.22,339.35,333,339.35z"/>
				<path class="st1" d="M352.63,339.35h-9.02c-1.22,0-2.22,1-2.22,2.22v9.02c0,1.22,1,2.22,2.22,2.22h9.02c1.22,0,2.22-1,2.22-2.22
					v-9.02C354.85,340.35,353.85,339.35,352.63,339.35z"/>
			</g>
			<path class="st14" d="M367.69,355v-5.65c0-1.25-1.01-2.26-2.26-2.26h-10.59v3.49c0,1.22-1,2.22-2.22,2.22h-9.02
				c-1.22,0-2.22-1-2.22-2.22v-3.49h-6.17v3.49c0,1.22-1,2.22-2.22,2.22h-9.02c-1.22,0-2.22-1-2.22-2.22v-3.49h-6.17v3.49
				c0,1.22-1,2.22-2.22,2.22h-9.02c-1.22,0-2.22-1-2.22-2.22v-3.49h-6.17v3.49c0,1.22-1,2.22-2.22,2.22h-9.02
				c-1.22,0-2.22-1-2.22-2.22v-3.49h-6.17v3.49c0,1.22-1,2.22-2.22,2.22h-9.02c-1.22,0-2.22-1-2.22-2.22v-3.49h-6.17v3.49
				c0,1.22-1,2.22-2.22,2.22h-9.02c-1.22,0-2.22-1-2.22-2.22v-3.49h-6.17v3.49c0,1.22-1,2.22-2.22,2.22h-9.02
				c-1.22,0-2.22-1-2.22-2.22v-3.49h-6.17v3.49c0,1.22-1,2.22-2.22,2.22h-9.02c-1.22,0-2.22-1-2.22-2.22v-3.49h-6.17v3.49
				c0,1.22-1,2.22-2.22,2.22h-9.02c-1.22,0-2.22-1-2.22-2.22v-3.49h-6.17v3.49c0,1.22-1,2.22-2.22,2.22H167
				c-1.22,0-2.22-1-2.22-2.22v-3.49h-6.17v3.49c0,1.22-1,2.22-2.22,2.22h-9.02c-1.22,0-2.22-1-2.22-2.22v-3.49h-10.59
				c-1.25,0-2.26,1.01-2.26,2.26V355"/>
			<path class="st2" d="M367.69,355v-5.65c0-1.25-1.01-2.26-2.26-2.26h-10.59v3.49c0,1.22-1,2.22-2.22,2.22h-9.02
				c-1.22,0-2.22-1-2.22-2.22v-3.49h-6.17v3.49c0,1.22-1,2.22-2.22,2.22h-9.02c-1.22,0-2.22-1-2.22-2.22v-3.49h-6.17v3.49
				c0,1.22-1,2.22-2.22,2.22h-9.02c-1.22,0-2.22-1-2.22-2.22v-3.49h-6.17v3.49c0,1.22-1,2.22-2.22,2.22h-9.02
				c-1.22,0-2.22-1-2.22-2.22v-3.49h-6.17v3.49c0,1.22-1,2.22-2.22,2.22h-9.02c-1.22,0-2.22-1-2.22-2.22v-3.49h-6.17v3.49
				c0,1.22-1,2.22-2.22,2.22h-9.02c-1.22,0-2.22-1-2.22-2.22v-3.49h-6.17v3.49c0,1.22-1,2.22-2.22,2.22h-9.02
				c-1.22,0-2.22-1-2.22-2.22v-3.49h-6.17v3.49c0,1.22-1,2.22-2.22,2.22h-9.02c-1.22,0-2.22-1-2.22-2.22v-3.49h-6.17v3.49
				c0,1.22-1,2.22-2.22,2.22h-9.02c-1.22,0-2.22-1-2.22-2.22v-3.49h-6.17v3.49c0,1.22-1,2.22-2.22,2.22H167
				c-1.22,0-2.22-1-2.22-2.22v-3.49h-6.17v3.49c0,1.22-1,2.22-2.22,2.22h-9.02c-1.22,0-2.22-1-2.22-2.22v-3.49h-10.59
				c-1.25,0-2.26,1.01-2.26,2.26V355"/>
			<g>
				<path class="st16" d="M156.39,339.35h-9.02c-1.22,0-2.22,1-2.22,2.22v9.02c0,1.22,1,2.22,2.22,2.22h9.02
					c1.22,0,2.22-1,2.22-2.22v-9.02C158.61,340.35,157.61,339.35,156.39,339.35z"/>
				<path class="st16" d="M176.01,339.35H167c-1.22,0-2.22,1-2.22,2.22v9.02c0,1.22,1,2.22,2.22,2.22h9.02c1.22,0,2.22-1,2.22-2.22
					v-9.02C178.23,340.35,177.23,339.35,176.01,339.35z"/>
				<path class="st16" d="M195.64,339.35h-9.02c-1.22,0-2.22,1-2.22,2.22v9.02c0,1.22,1,2.22,2.22,2.22h9.02
					c1.22,0,2.22-1,2.22-2.22v-9.02C197.85,340.35,196.86,339.35,195.64,339.35z"/>
				<path class="st16" d="M215.26,339.35h-9.02c-1.22,0-2.22,1-2.22,2.22v9.02c0,1.22,1,2.22,2.22,2.22h9.02
					c1.22,0,2.22-1,2.22-2.22v-9.02C217.48,340.35,216.48,339.35,215.26,339.35z"/>
				<path class="st16" d="M234.88,339.35h-9.02c-1.22,0-2.22,1-2.22,2.22v9.02c0,1.22,1,2.22,2.22,2.22h9.02
					c1.22,0,2.22-1,2.22-2.22v-9.02C237.1,340.35,236.1,339.35,234.88,339.35z"/>
				<path class="st16" d="M254.51,339.35h-9.02c-1.22,0-2.22,1-2.22,2.22v9.02c0,1.22,1,2.22,2.22,2.22h9.02
					c1.22,0,2.22-1,2.22-2.22v-9.02C256.73,340.35,255.73,339.35,254.51,339.35z"/>
				<path class="st16" d="M274.13,339.35h-9.02c-1.22,0-2.22,1-2.22,2.22v9.02c0,1.22,1,2.22,2.22,2.22h9.02
					c1.22,0,2.22-1,2.22-2.22v-9.02C276.35,340.35,275.35,339.35,274.13,339.35z"/>
				<path class="st16" d="M293.76,339.35h-9.02c-1.22,0-2.22,1-2.22,2.22v9.02c0,1.22,1,2.22,2.22,2.22h9.02
					c1.22,0,2.22-1,2.22-2.22v-9.02C295.97,340.35,294.98,339.35,293.76,339.35z"/>
				<path class="st16" d="M313.38,339.35h-9.02c-1.22,0-2.22,1-2.22,2.22v9.02c0,1.22,1,2.22,2.22,2.22h9.02
					c1.22,0,2.22-1,2.22-2.22v-9.02C315.6,340.35,314.6,339.35,313.38,339.35z"/>
				<path class="st16" d="M333,339.35h-9.02c-1.22,0-2.22,1-2.22,2.22v9.02c0,1.22,1,2.22,2.22,2.22H333c1.22,0,2.22-1,2.22-2.22
					v-9.02C335.22,340.35,334.22,339.35,333,339.35z"/>
				<path class="st16" d="M352.63,339.35h-9.02c-1.22,0-2.22,1-2.22,2.22v9.02c0,1.22,1,2.22,2.22,2.22h9.02
					c1.22,0,2.22-1,2.22-2.22v-9.02C354.85,340.35,353.85,339.35,352.63,339.35z"/>
			</g>
			<g>
				<path class="st3" d="M322.03,279H177.97c-5.59,0-10.12-4.53-10.12-10.12l0,0c0-5.59,4.53-10.12,10.12-10.12h144.06
					c5.59,0,10.12,4.53,10.12,10.12l0,0C332.15,274.47,327.62,279,322.03,279z"/>
				<path class="st2" d="M322.03,279H177.97c-5.59,0-10.12-4.53-10.12-10.12l0,0c0-5.59,4.53-10.12,10.12-10.12h144.06
					c5.59,0,10.12,4.53,10.12,10.12l0,0C332.15,274.47,327.62,279,322.03,279z"/>
				<g>
					<path class="st10" d="M181.33,268.42h-0.03l-0.66,6.31h-2.56l-1.32-11.84h1.81l0.98,9.34h0.03l0.88-9.34h1.79l0.91,9.41h0.03
						l0.95-9.41h1.62l-1.32,11.84h-2.47L181.33,268.42z"/>
					<path class="st10" d="M190.85,268.42h-0.03l-0.66,6.31h-2.56l-1.32-11.84h1.81l0.98,9.34h0.03l0.88-9.34h1.79l0.91,9.41h0.03
						l0.95-9.41h1.62l-1.32,11.84h-2.47L190.85,268.42z"/>
					<path class="st10" d="M200.38,268.42h-0.03l-0.66,6.31h-2.56l-1.32-11.84h1.81l0.98,9.34h0.03l0.88-9.34h1.79l0.91,9.41h0.03
						l0.95-9.41h1.62l-1.32,11.84h-2.47L200.38,268.42z"/>
					<path class="st10" d="M206.88,272.94v1.79h-1.79v-1.79H206.88z"/>
					<path class="st10" d="M208.24,262.89h2.94c1.86,0,2.78,1.03,2.78,2.93v5.99c0,1.9-0.91,2.93-2.78,2.93h-2.94V262.89z
						 M210.1,264.58v8.46h1.05c0.59,0,0.95-0.3,0.95-1.15v-6.16c0-0.85-0.36-1.15-0.95-1.15H210.1z"/>
					<path class="st10" d="M214.99,265.73c0-1.89,1-2.98,2.83-2.98c1.83,0,2.83,1.08,2.83,2.98v6.16c0,1.9-1,2.98-2.83,2.98
						c-1.83,0-2.83-1.08-2.83-2.98V265.73z M216.85,272.01c0,0.85,0.37,1.17,0.96,1.17s0.96-0.32,0.96-1.17v-6.4
						c0-0.85-0.37-1.17-0.96-1.17s-0.96,0.32-0.96,1.17V272.01z"/>
					<path class="st10" d="M225.77,271.3h0.03l1.25-8.41h2.59v11.84h-1.76v-8.5h-0.03l-1.25,8.5h-1.76l-1.35-8.38h-0.03v8.38h-1.62
						v-11.84h2.59L225.77,271.3z"/>
					<path class="st10" d="M237.02,274.73h-1.88l-0.32-2.15h-2.28l-0.32,2.15h-1.71l1.9-11.84h2.72L237.02,274.73z M232.78,270.98
						h1.79l-0.88-5.99h-0.03L232.78,270.98z"/>
					<path class="st10" d="M237.89,262.89h1.86v11.84h-1.86V262.89z"/>
					<path class="st10" d="M242.8,266.15h-0.03v8.58h-1.68v-11.84h2.34l1.88,7.09h0.03v-7.09h1.66v11.84h-1.91L242.8,266.15z"/>
					<path class="st10" d="M250.02,266.15h-0.03v8.58h-1.68v-11.84h2.33l1.88,7.09h0.03v-7.09h1.66v11.84h-1.91L250.02,266.15z"/>
					<path class="st10" d="M261.58,274.73h-1.88l-0.32-2.15h-2.28l-0.32,2.15h-1.71l1.89-11.84h2.72L261.58,274.73z M257.33,270.98
						h1.79l-0.88-5.99h-0.03L257.33,270.98z"/>
					<path class="st10" d="M266.37,271.3h0.03l1.25-8.41h2.59v11.84h-1.76v-8.5h-0.03l-1.25,8.5h-1.76l-1.35-8.38h-0.03v8.38h-1.62
						v-11.84h2.59L266.37,271.3z"/>
					<path class="st10" d="M273.46,267.88h2.56v1.69h-2.56v3.47h3.22v1.69h-5.08v-11.84h5.08v1.69h-3.22V267.88z"/>
					<path class="st10" d="M280.34,262.75c1.81,0,2.74,1.08,2.74,2.98v0.37h-1.76v-0.49c0-0.85-0.34-1.17-0.93-1.17
						c-0.59,0-0.93,0.32-0.93,1.17c0,0.86,0.37,1.51,1.59,2.57c1.56,1.37,2.05,2.35,2.05,3.71c0,1.9-0.95,2.98-2.78,2.98
						c-1.83,0-2.77-1.08-2.77-2.98v-0.73h1.76v0.85c0,0.85,0.37,1.15,0.96,1.15c0.59,0,0.96-0.3,0.96-1.15
						c0-0.86-0.37-1.51-1.59-2.57c-1.56-1.37-2.05-2.35-2.05-3.71C277.59,263.84,278.53,262.75,280.34,262.75z"/>
					<path class="st10" d="M285.87,272.94v1.79h-1.79v-1.79H285.87z"/>
					<path class="st10" d="M292.45,270.32v1.57c0,1.9-0.95,2.98-2.78,2.98c-1.83,0-2.78-1.08-2.78-2.98v-6.16
						c0-1.89,0.95-2.98,2.78-2.98c1.83,0,2.78,1.08,2.78,2.98v1.15h-1.76v-1.27c0-0.85-0.37-1.17-0.96-1.17
						c-0.59,0-0.96,0.32-0.96,1.17v6.4c0,0.85,0.37,1.15,0.96,1.15c0.59,0,0.96-0.3,0.96-1.15v-1.69H292.45z"/>
					<path class="st10" d="M293.44,265.73c0-1.89,1-2.98,2.83-2.98c1.83,0,2.83,1.08,2.83,2.98v6.16c0,1.9-1,2.98-2.83,2.98
						c-1.83,0-2.83-1.08-2.83-2.98V265.73z M295.3,272.01c0,0.85,0.37,1.17,0.96,1.17c0.59,0,0.96-0.32,0.96-1.17v-6.4
						c0-0.85-0.37-1.17-0.96-1.17c-0.59,0-0.96,0.32-0.96,1.17V272.01z"/>
					<path class="st10" d="M304.22,271.3h0.03l1.25-8.41h2.59v11.84h-1.76v-8.5h-0.03l-1.25,8.5h-1.76l-1.35-8.38h-0.03v8.38h-1.62
						v-11.84h2.59L304.22,271.3z"/>
				</g>
				<g>
					<path class="st17" d="M322.1,268.89c0.29-0.48,0.44-1.03,0.44-1.6c0-0.84-0.32-1.64-0.92-2.23c-0.6-0.6-1.39-0.93-2.23-0.93
						c-0.85,0-1.64,0.33-2.24,0.93c-0.59,0.59-0.92,1.39-0.92,2.23s0.33,1.64,0.92,2.23c1.01,1.01,2.64,1.17,3.84,0.47
						c0.23-0.12,0.44-0.28,0.63-0.47S321.98,269.12,322.1,268.89z"/>
					<path class="st10" d="M326.29,272.78l-3.34-3.34c0.96-1.6,0.76-3.71-0.62-5.09c-0.79-0.79-1.83-1.22-2.94-1.22
						c-1.11,0-2.16,0.43-2.94,1.22c-0.79,0.78-1.22,1.83-1.22,2.94c0,1.11,0.43,2.15,1.22,2.94c0.78,0.79,1.83,1.22,2.94,1.22
						c0.77,0,1.5-0.21,2.14-0.6l3.34,3.34c0.2,0.19,0.45,0.29,0.71,0.29c0.26,0,0.51-0.1,0.71-0.29
						C326.68,273.8,326.68,273.17,326.29,272.78z M320.99,269.99c-1.2,0.7-2.83,0.54-3.84-0.47c-0.59-0.59-0.92-1.39-0.92-2.23
						s0.33-1.64,0.92-2.23c0.6-0.6,1.39-0.93,2.24-0.93c0.84,0,1.63,0.33,2.23,0.93c0.6,0.59,0.92,1.39,0.92,2.23
						c0,0.57-0.15,1.12-0.44,1.6c-0.12,0.23-0.29,0.44-0.48,0.63S321.22,269.87,320.99,269.99z"/>
				</g>
			</g>
		</g>
	</g>
</g>
<g id="Left_hand">
	<g>
		<path class="st3" d="M236.2,404.44c-0.77-3.86-1.35-5.01-7.71-6.56c-5.23-1.27-10.59,0.07-12.32,0.59
			c-0.37,0.11-0.58,0.18-0.58,0.18s-1.56-5.39-2.71-6.84c-1.16-1.44-6.55-15.9-7.12-17.25c-0.23-0.55-1.2-1.51-2.53-2.45
			c-1.89-1.35-4.51-2.66-6.74-2.67h-0.15c-3.82,0.07-17.77-0.88-17.77-0.88s-2.12-3.92-3.85-5.37c-1.73-1.44-8.29-3.08-10.21-2.69
			c-0.18,0.04-0.41,0.12-0.67,0.24c0,0-0.01,0.01-0.02,0.01c-2.58,1.19-8.56,5.91-8.56,5.91s-0.21-0.25-0.55-0.58
			c-0.62-0.59-1.66-1.44-2.54-1.44c-1.22,0-6.39-1.5-8.5-0.42c-0.22,0.11-0.41,0.25-0.56,0.42c-0.9,1.06-4.95,5.38-8.7,9.1
			c-2.68,2.66-5.21,5.02-6.33,5.68c-2.7,1.59-7.34,2.34-10.02,3.13c-2.68,0.8-10.98,8.97-10.98,8.97
			c-7.13,1.41-32.1,2.92-48.69,3.79c-8.91,0.48-25.41,2.77-25.41,2.77l25.92,77.47c0,0,2.07-0.73,5.49-1.91
			c15.04-5.25,56.22-19.49,62.34-20.35c7.52-1.06,11.57-4.72,17.16-5.37c5.6-0.64,10.59-1.46,18.85,0
			c8.26,1.46,20.65-3.98,30.01-6.1c9.36-2.12,13.27-9.22,15.12-12.64c1.84-3.43,4.62-5.66,9.63-7.98c5.01-2.32,6.75-4.82,10.22-6.94
			c3.21-1.96,8.38-5.38,8.54-8.93C236.28,405.03,236.26,404.74,236.2,404.44z M203.23,404.48c0,0-1.05,0.5-1.64-0.06
			c-0.6-0.56-3.54-1.77-3.54-1.77c0.57-1.55-0.44-3.51-1.24-5.12c-0.79-1.62-1.78-4.75-1.78-4.75s3.59,5.1,4.65,5.87
			c1.06,0.78,1.57,0.87,1.57,0.87s0.69,3.29,1.94,4.9C203.2,404.44,203.21,404.46,203.23,404.48z"/>
		<path class="st18" d="M58.39,395.31c16.59-0.87,41.56-2.38,48.69-3.79c0,0,8.3-8.17,10.98-8.97c2.68-0.79,7.32-1.54,10.02-3.13
			c1.12-0.66,3.65-3.02,6.33-5.68c-3.07,4.62-6.99,10.18-9.38,12.33c-4.4,3.97-5.89,0-5.89,0
			C114.11,394.87,70.85,395.36,58.39,395.31z"/>
		<path class="st18" d="M143.67,364.22c2.11-1.08,7.28,0.42,8.5,0.42c0.88,0,1.92,0.85,2.54,1.44c-1.41,1.19-2.35,2.1-2.35,2.1
			s-2.5-1.52-5.56-3.53C145.86,364.03,144.75,363.98,143.67,364.22z"/>
		<path class="st18" d="M163.84,360.74c0.26-0.12,0.49-0.2,0.67-0.24c1.92-0.39,8.48,1.25,10.21,2.69c1.73,1.45,3.85,5.37,3.85,5.37
			s13.95,0.95,17.77,0.88h0.15c1.43,5.35-5.8,7.63-5.8,7.63s-1.76-7.88-8.78-8.29c-7.02-0.42-9.36,1.32-9.36,1.32
			c-0.13-6.47-2.47-7.44-6.7-9.19C165.27,360.67,164.58,360.63,163.84,360.74z"/>
		<path class="st18" d="M195.03,392.78c0,0,0.99,3.13,1.78,4.75c0.8,1.61,1.81,3.57,1.24,5.12c0,0,2.94,1.21,3.54,1.77
			c-2.22-1.16-6.56-3.19-6.56-3.19c1.38-3.16-2.17-14.93-2.17-14.93s5.93-1.03,10.37-4.7c2.66-2.2,1.42-6.44,0-9.49
			c1.33,0.94,2.3,1.9,2.53,2.45c0.57,1.35,5.96,15.81,7.12,17.25c1.15,1.45,2.71,6.84,2.71,6.84s0.21-0.07,0.58-0.18
			c-3.96,2.17-9.95,5.31-12.98,5.95c-1.25-1.61-1.94-4.9-1.94-4.9s-0.51-0.09-1.57-0.87C198.62,397.88,195.03,392.78,195.03,392.78z
			"/>
		<path class="st18" d="M232.29,402.95c1.73,0.58,3.01,1.43,3.97,2.38c-0.16,3.55-5.33,6.97-8.54,8.93
			c-3.47,2.12-5.21,4.62-10.22,6.94c-5.01,2.32-7.79,4.55-9.63,7.98c-1.85,3.42-5.76,10.52-15.12,12.64
			c-9.36,2.12-21.75,7.56-30.01,6.1c-8.26-1.46-13.25-0.64-18.85,0c-5.59,0.65-9.64,4.31-17.16,5.37
			c-6.12,0.86-47.3,15.1-62.34,20.35c15.04-16.15,63.17-31.45,70.18-30.62c7.65,0.92,20.57-2.23,26.11-3.32
			c5.54-1.08,6.46-3.39,6.46-3.39c0,1.84-1.97,4.23-1.97,4.23s1.45,1.31,3.29,2.36c1.85,1.06,25.45-4.88,29.59-8.44
			c4.13-3.56,9.84-10.68,11.95-12.3c2.11-1.61,13.88-5.06,15.56-8.28c1.68-3.22-2.11-9.88-2.9-10.93
			C221.87,401.89,224.9,400.44,232.29,402.95z"/>
		<path class="st18" d="M239.01,412.74v-1.02C239.05,412.35,239.01,412.74,239.01,412.74z"/>
		<g>
			<path class="st2" d="M32.97,398.08c0,0,63.14-4.39,74.1-6.55c0,0,8.31-8.17,10.99-8.97c2.68-0.8,7.32-1.55,10.02-3.13
				c2.7-1.58,13.49-12.96,15.03-14.79c1.54-1.83,7.71,0,9.06,0c1.35,0,3.08,2.03,3.08,2.03s7.32-5.78,9.25-6.17
				c1.93-0.39,8.48,1.26,10.21,2.7c1.73,1.44,3.85,5.36,3.85,5.36s13.94,0.96,17.76,0.88c3.82-0.08,8.86,3.78,9.43,5.13
				c0.56,1.35,5.96,15.81,7.12,17.25c1.16,1.44,2.71,6.84,2.71,6.84s6.54-2.31,12.9-0.77c6.36,1.54,6.94,2.7,7.71,6.55
				c0.77,3.85-5.01,7.71-8.48,9.83c-3.47,2.12-5.2,4.62-10.21,6.94c-5.01,2.32-7.79,4.55-9.64,7.97
				c-1.85,3.42-5.76,10.53-15.12,12.65c-9.36,2.12-21.75,7.56-30.01,6.1c-8.26-1.46-13.25-0.65-18.85,0
				c-5.6,0.65-9.64,4.31-17.16,5.37c-7.52,1.06-67.84,22.26-67.84,22.26"/>
			<path class="st2" d="M178.57,368.56c-4.11,0.03-7.32,2.3-7.32,2.3"/>
			<path class="st2" d="M186.91,370.85c2.56,1.18,4.51,8.57,4.51,8.57"/>
			<path class="st2" d="M193.99,388.44c0,0,1.41,7,2.82,9.09s1.22,4.62,1.22,4.62"/>
			<path class="st2" d="M193.99,400.77c0,0,5.46,2.35,7.26,3.68c1.8,1.33,7.61-3.29,14.34-5.8"/>
			<path class="st2" d="M194.56,391c0,0,1.35-1.11,4.24-1.69c2.89-0.58,5.32-4.91,5.98-7.71"/>
			<path class="st2" d="M203.23,404.48c-1.27-1.59-1.98-4.96-1.98-4.96s-0.51-0.1-1.57-0.87c-1.06-0.77-4.65-5.87-4.65-5.87"/>
			<path class="st2" d="M201.25,399.52c0,0,4.98,0.48,7.96-1.93"/>
			<path class="st2" d="M155.25,366.66c0,0-2.22,1.65-5.78,3.04"/>
			<path class="st2" d="M143.74,364.18c3.23-0.3,5.73,2.1,6.12,2.49"/>
			<path class="st2" d="M164.5,360.5c0,0,5.59,1.54,6.75,3.08c1.16,1.54,1.16,3.08,1.16,3.08"/>
			<path class="st2" d="M107.07,391.52c0,0,5.1,0,8.14-1.93"/>
			<path class="st2" d="M143.89,447.92c0,0,10.98-3.4,15.41-4.17c4.43-0.77,6.55-4.05,6.55-4.05"/>
			<path class="st2" d="M222.13,406.36c0,0,2.84,3.7,1.93,7.52"/>
			<path class="st2" d="M203.23,410.12c0,0,4.47,2.6,5.99,8.96"/>
			<path class="st2" d="M155.25,371.97c0,0-10.39,11.22-16.28,14.32"/>
			<path class="st2" d="M172.4,375.14c0,0-10.79,11.37-15.22,13.3"/>
		</g>
	</g>
</g>
<g id="Right_hand">
	<g>
		<path class="st3" d="M263.74,365.33c0.16,3.55,5.33,6.97,8.54,8.93c3.47,2.12,5.21,4.62,10.22,6.94c5.01,2.32,7.79,4.55,9.63,7.98
			c1.85,3.42,5.76,10.52,15.12,12.64c9.36,2.12,21.75,7.56,30.01,6.1c8.26-1.46,13.25-0.64,18.85,0c5.59,0.65,9.64,4.31,17.16,5.37
			c6.12,0.86,47.3,15.1,62.34,20.35c3.42,1.18,5.49,1.91,5.49,1.91l25.92-77.47c0,0-6.5-0.29-15.41-0.77
			c-16.59-0.87-51.56-4.38-58.69-5.79c0,0-8.3-8.17-10.98-8.97c-2.68-0.79-7.32-1.54-10.02-3.13c-1.12-0.66-3.65-3.02-6.33-5.68
			c-3.75-3.72-7.8-8.04-8.7-9.1c-0.15-0.17-0.34-0.31-0.56-0.42c-2.11-1.08-7.28,0.42-8.5,0.42c-0.88,0-1.92,0.85-2.54,1.44
			c-0.34,0.33-0.55,0.58-0.55,0.58s-5.98-4.72-8.56-5.91c-0.01,0-0.02-0.01-0.02-0.01c-0.26-0.12-0.49-0.2-0.67-0.24
			c-1.92-0.39-8.48,1.25-10.21,2.69c-1.73,1.45-3.85,5.37-3.85,5.37s-13.95,0.95-17.77,0.88h-0.15c-2.23,0.01-4.85,1.32-6.74,2.67
			c-1.33,0.94-2.3,1.9-2.53,2.45c-0.57,1.35-5.96,15.81-7.12,17.25c-1.15,1.45-2.71,6.84-2.71,6.84s-0.21-0.07-0.58-0.18
			c-1.73-0.52-7.09-1.86-12.32-0.59c-6.36,1.55-6.94,2.7-7.71,6.56C263.74,364.74,263.72,365.03,263.74,365.33z M296.81,364.42
			c1.25-1.61,1.94-4.9,1.94-4.9s0.51-0.09,1.57-0.87c1.06-0.77,4.65-5.87,4.65-5.87s-0.99,3.13-1.78,4.75
			c-0.8,1.61-1.81,3.57-1.24,5.12c0,0-2.94,1.21-3.54,1.77c-0.59,0.56-1.64,0.06-1.64,0.06
			C296.79,364.46,296.8,364.44,296.81,364.42z"/>
		<path class="st18" d="M451.61,357.31c-16.59-0.87-51.56-4.38-58.69-5.79c0,0-8.3-8.17-10.98-8.97c-2.68-0.79-7.32-1.54-10.02-3.13
			c-1.12-0.66-3.65-3.02-6.33-5.68c3.07,4.62,6.99,10.18,9.38,12.33c4.4,3.97,5.89,0,5.89,0
			C385.89,354.87,439.15,357.36,451.61,357.31z"/>
		<path class="st18" d="M356.33,324.22c-2.11-1.08-7.28,0.42-8.5,0.42c-0.88,0-1.92,0.85-2.54,1.44c1.41,1.19,2.35,2.1,2.35,2.1
			s2.5-1.52,5.56-3.53C354.14,324.03,355.25,323.98,356.33,324.22z"/>
		<path class="st18" d="M336.16,320.74c-0.26-0.12-0.49-0.2-0.67-0.24c-1.92-0.39-8.48,1.25-10.21,2.69
			c-1.73,1.45-3.85,5.37-3.85,5.37s-13.95,0.95-17.77,0.88h-0.15c-1.43,5.35,5.8,7.63,5.8,7.63s1.76-7.88,8.78-8.29
			c7.02-0.42,9.36,1.32,9.36,1.32c0.13-6.47,2.47-7.44,6.7-9.19C334.73,320.67,335.42,320.63,336.16,320.74z"/>
		<path class="st18" d="M304.97,352.78c0,0-0.99,3.13-1.78,4.75c-0.8,1.61-1.81,3.57-1.24,5.12c0,0-2.94,1.21-3.54,1.77
			c2.22-1.16,6.56-3.19,6.56-3.19c-1.38-3.16,2.17-14.93,2.17-14.93s-5.93-1.03-10.37-4.7c-2.66-2.2-1.42-6.44,0-9.49
			c-1.33,0.94-2.3,1.9-2.53,2.45c-0.57,1.35-5.96,15.81-7.12,17.25c-1.15,1.45-2.71,6.84-2.71,6.84s-0.21-0.07-0.58-0.18
			c3.96,2.17,9.95,5.31,12.98,5.95c1.25-1.61,1.94-4.9,1.94-4.9s0.51-0.09,1.57-0.87C301.38,357.88,304.97,352.78,304.97,352.78z"/>
		<path class="st18" d="M267.71,362.95c-1.73,0.58-3.01,1.43-3.97,2.38c0.16,3.55,5.33,6.97,8.54,8.93
			c3.47,2.12,5.21,4.62,10.22,6.94c5.01,2.32,7.79,4.55,9.63,7.98c1.85,3.42,5.76,10.52,15.12,12.64c9.36,2.12,21.75,7.56,30.01,6.1
			c8.26-1.46,13.25-0.64,18.85,0c5.59,0.65,9.64,4.31,17.16,5.37c6.12,0.86,47.3,15.1,62.34,20.35
			c-15.04-16.15-63.17-31.45-70.18-30.62c-7.65,0.92-20.57-2.23-26.11-3.32c-5.54-1.08-6.46-3.39-6.46-3.39
			c0,1.84,1.97,4.23,1.97,4.23s-1.45,1.31-3.29,2.36c-1.85,1.06-25.45-4.88-29.59-8.44c-4.13-3.56-9.84-10.68-11.95-12.3
			c-2.11-1.61-13.88-5.06-15.56-8.28s2.11-9.88,2.9-10.93C278.13,361.89,275.1,360.44,267.71,362.95z"/>
		<path class="st18" d="M260.99,372.74v-1.02C260.95,372.35,260.99,372.74,260.99,372.74z"/>
		<g>
			<path class="st2" d="M467.03,358.08c0,0-63.14-4.39-74.1-6.55c0,0-8.31-8.17-10.98-8.97c-2.68-0.8-7.32-1.55-10.02-3.13
				c-2.7-1.58-13.49-12.96-15.03-14.79c-1.54-1.83-7.71,0-9.06,0c-1.35,0-3.08,2.03-3.08,2.03s-7.32-5.78-9.25-6.17
				c-1.93-0.39-8.48,1.26-10.21,2.7c-1.73,1.44-3.85,5.36-3.85,5.36s-13.94,0.96-17.76,0.88c-3.82-0.08-8.86,3.78-9.43,5.13
				c-0.56,1.35-5.96,15.81-7.12,17.25c-1.16,1.44-2.71,6.84-2.71,6.84s-6.54-2.31-12.9-0.77c-6.36,1.54-6.94,2.7-7.71,6.55
				c-0.77,3.85,5.01,7.71,8.48,9.83c3.47,2.12,5.2,4.62,10.21,6.94c5.01,2.32,7.79,4.55,9.64,7.97c1.85,3.42,5.76,10.53,15.12,12.65
				s21.75,7.56,30.01,6.1c8.26-1.46,13.25-0.65,18.85,0c5.6,0.65,9.64,4.31,17.16,5.37c7.52,1.06,67.84,22.26,67.84,22.26"/>
			<path class="st2" d="M321.43,328.56c4.11,0.03,7.32,2.3,7.32,2.3"/>
			<path class="st2" d="M313.09,330.85c-2.56,1.18-4.51,8.57-4.51,8.57"/>
			<path class="st2" d="M306.01,348.44c0,0-1.41,7-2.82,9.09s-1.22,4.62-1.22,4.62"/>
			<path class="st2" d="M306.01,360.77c0,0-5.46,2.35-7.26,3.68c-1.8,1.33-7.61-3.29-14.34-5.8"/>
			<path class="st2" d="M305.44,351c0,0-1.35-1.11-4.24-1.69c-2.89-0.58-5.32-4.91-5.98-7.71"/>
			<path class="st2" d="M296.77,364.48c1.27-1.59,1.98-4.96,1.98-4.96s0.51-0.1,1.57-0.87c1.06-0.77,4.65-5.87,4.65-5.87"/>
			<path class="st2" d="M298.75,359.52c0,0-4.98,0.48-7.96-1.93"/>
			<path class="st2" d="M344.75,326.66c0,0,2.22,1.65,5.78,3.04"/>
			<path class="st2" d="M356.26,324.18c-3.23-0.3-5.73,2.1-6.12,2.49"/>
			<path class="st2" d="M335.5,320.5c0,0-5.59,1.54-6.75,3.08c-1.16,1.54-1.16,3.08-1.16,3.08"/>
			<path class="st2" d="M392.93,351.52c0,0-5.1,0-8.14-1.93"/>
			<path class="st2" d="M356.11,407.92c0,0-10.98-3.4-15.41-4.17c-4.43-0.77-6.55-4.05-6.55-4.05"/>
			<path class="st2" d="M277.87,366.36c0,0-2.84,3.7-1.93,7.52"/>
			<path class="st2" d="M296.77,370.12c0,0-4.47,2.6-5.99,8.96"/>
			<path class="st2" d="M344.75,331.97c0,0,10.39,11.22,16.28,14.32"/>
			<path class="st2" d="M327.6,335.14c0,0,10.79,11.37,15.22,13.3"/>
		</g>
	</g>
</g>
</svg>
